<svg width="136" height="44" viewBox="0 0 136 44" fill="none" xmlns="http://www.w3.org/2000/svg">
<rect x="0.5" y="0.5" width="135" height="43" rx="21.5" fill="white"/>
<mask id="mask0_522_4829" style="mask-type:alpha" maskUnits="userSpaceOnUse" x="16" y="10" width="24" height="24">
<rect x="16" y="10" width="24" height="24" fill="#D9D9D9"/>
</mask>
<g mask="url(#mask0_522_4829)">
<path d="M26.7992 26.5502H22.9992C21.7492 26.5502 20.6786 26.1045 19.7872 25.2132C18.8952 24.3212 18.4492 23.2502 18.4492 22.0002C18.4492 20.7502 18.8952 19.6792 19.7872 18.7872C20.6786 17.8959 21.7492 17.4502 22.9992 17.4502H26.7992V18.9502H22.9992C22.1659 18.9502 21.4492 19.2502 20.8492 19.8502C20.2492 20.4502 19.9492 21.1669 19.9492 22.0002C19.9492 22.8335 20.2492 23.5502 20.8492 24.1502C21.4492 24.7502 22.1659 25.0502 22.9992 25.0502H26.7992V26.5502ZM24.2492 22.7502V21.2502H31.7492V22.7502H24.2492ZM29.1992 26.5502V25.0502H32.9992C33.8326 25.0502 34.5492 24.7502 35.1492 24.1502C35.7492 23.5502 36.0492 22.8335 36.0492 22.0002C36.0492 21.1669 35.7492 20.4502 35.1492 19.8502C34.5492 19.2502 33.8326 18.9502 32.9992 18.9502H29.1992V17.4502H32.9992C34.2492 17.4502 35.3199 17.8959 36.2112 18.7872C37.1032 19.6792 37.5492 20.7502 37.5492 22.0002C37.5492 23.2502 37.1032 24.3212 36.2112 25.2132C35.3199 26.1045 34.2492 26.5502 32.9992 26.5502H29.1992Z" fill="#251B2C"/>
</g>
<path d="M60.7727 20H59.3636C59.2803 19.5947 59.1345 19.2386 58.9261 18.9318C58.7216 18.625 58.4716 18.3674 58.1761 18.1591C57.8845 17.947 57.5606 17.7879 57.2045 17.6818C56.8485 17.5758 56.4773 17.5227 56.0909 17.5227C55.3864 17.5227 54.7481 17.7008 54.1761 18.0568C53.608 18.4129 53.1553 18.9375 52.8182 19.6307C52.4848 20.3239 52.3182 21.1742 52.3182 22.1818C52.3182 23.1894 52.4848 24.0398 52.8182 24.733C53.1553 25.4261 53.608 25.9508 54.1761 26.3068C54.7481 26.6629 55.3864 26.8409 56.0909 26.8409C56.4773 26.8409 56.8485 26.7879 57.2045 26.6818C57.5606 26.5758 57.8845 26.4186 58.1761 26.2102C58.4716 25.9981 58.7216 25.7386 58.9261 25.4318C59.1345 25.1212 59.2803 24.7652 59.3636 24.3636H60.7727C60.6667 24.9583 60.4735 25.4905 60.1932 25.9602C59.9129 26.4299 59.5644 26.8295 59.1477 27.1591C58.7311 27.4848 58.2633 27.733 57.7443 27.9034C57.2292 28.0739 56.678 28.1591 56.0909 28.1591C55.0985 28.1591 54.2159 27.9167 53.4432 27.4318C52.6705 26.947 52.0625 26.2576 51.6193 25.3636C51.1761 24.4697 50.9545 23.4091 50.9545 22.1818C50.9545 20.9545 51.1761 19.8939 51.6193 19C52.0625 18.1061 52.6705 17.4167 53.4432 16.9318C54.2159 16.447 55.0985 16.2045 56.0909 16.2045C56.678 16.2045 57.2292 16.2898 57.7443 16.4602C58.2633 16.6307 58.7311 16.8807 59.1477 17.2102C59.5644 17.536 59.9129 17.9337 60.1932 18.4034C60.4735 18.8693 60.6667 19.4015 60.7727 20ZM66.4134 28.1818C65.6255 28.1818 64.9342 27.9943 64.3395 27.6193C63.7486 27.2443 63.2865 26.7197 62.9531 26.0455C62.6236 25.3712 62.4588 24.5833 62.4588 23.6818C62.4588 22.7727 62.6236 21.9792 62.9531 21.3011C63.2865 20.6231 63.7486 20.0966 64.3395 19.7216C64.9342 19.3466 65.6255 19.1591 66.4134 19.1591C67.2012 19.1591 67.8906 19.3466 68.4815 19.7216C69.0762 20.0966 69.5384 20.6231 69.8679 21.3011C70.2012 21.9792 70.3679 22.7727 70.3679 23.6818C70.3679 24.5833 70.2012 25.3712 69.8679 26.0455C69.5384 26.7197 69.0762 27.2443 68.4815 27.6193C67.8906 27.9943 67.2012 28.1818 66.4134 28.1818ZM66.4134 26.9773C67.0118 26.9773 67.5043 26.8239 67.8906 26.517C68.277 26.2102 68.563 25.8068 68.7486 25.3068C68.9342 24.8068 69.027 24.2652 69.027 23.6818C69.027 23.0985 68.9342 22.5549 68.7486 22.0511C68.563 21.5473 68.277 21.1402 67.8906 20.8295C67.5043 20.5189 67.0118 20.3636 66.4134 20.3636C65.8149 20.3636 65.3224 20.5189 64.9361 20.8295C64.5497 21.1402 64.2637 21.5473 64.0781 22.0511C63.8925 22.5549 63.7997 23.0985 63.7997 23.6818C63.7997 24.2652 63.8925 24.8068 64.0781 25.3068C64.2637 25.8068 64.5497 26.2102 64.9361 26.517C65.3224 26.8239 65.8149 26.9773 66.4134 26.9773ZM72.4148 31.2727V19.2727H73.7102V20.6591H73.8693C73.9678 20.5076 74.1042 20.3144 74.2784 20.0795C74.4564 19.8409 74.7102 19.6288 75.0398 19.4432C75.3731 19.2538 75.8239 19.1591 76.392 19.1591C77.1269 19.1591 77.7746 19.3428 78.3352 19.7102C78.8958 20.0777 79.3333 20.5985 79.6477 21.2727C79.9621 21.947 80.1193 22.7424 80.1193 23.6591C80.1193 24.5833 79.9621 25.3845 79.6477 26.0625C79.3333 26.7367 78.8977 27.2595 78.3409 27.6307C77.7841 27.9981 77.142 28.1818 76.4148 28.1818C75.8542 28.1818 75.4053 28.089 75.0682 27.9034C74.7311 27.714 74.4716 27.5 74.2898 27.2614C74.108 27.0189 73.9678 26.8182 73.8693 26.6591H73.7557V31.2727H72.4148ZM73.733 23.6364C73.733 24.2955 73.8295 24.8769 74.0227 25.3807C74.2159 25.8807 74.4981 26.2727 74.8693 26.5568C75.2405 26.8371 75.6951 26.9773 76.233 26.9773C76.7936 26.9773 77.2614 26.8295 77.6364 26.5341C78.0152 26.2348 78.2992 25.8333 78.4886 25.3295C78.6818 24.822 78.7784 24.2576 78.7784 23.6364C78.7784 23.0227 78.6837 22.4697 78.4943 21.9773C78.3087 21.4811 78.0265 21.089 77.6477 20.8011C77.2727 20.5095 76.8011 20.3636 76.233 20.3636C75.6875 20.3636 75.2292 20.5019 74.858 20.7784C74.4867 21.0511 74.2064 21.4337 74.017 21.9261C73.8277 22.4148 73.733 22.9848 73.733 23.6364ZM82.7159 31.2727C82.4886 31.2727 82.286 31.2538 82.108 31.2159C81.9299 31.1818 81.8068 31.1477 81.7386 31.1136L82.0795 29.9318C82.4053 30.0152 82.6932 30.0455 82.9432 30.0227C83.1932 30 83.4148 29.8883 83.608 29.6875C83.8049 29.4905 83.9848 29.1705 84.1477 28.7273L84.3977 28.0455L81.1705 19.2727H82.625L85.0341 26.2273H85.125L87.5341 19.2727H88.9886L85.2841 29.2727C85.1174 29.7235 84.911 30.0966 84.6648 30.392C84.4186 30.6913 84.1326 30.9129 83.8068 31.0568C83.4848 31.2008 83.1212 31.2727 82.7159 31.2727ZM96.5994 16.3636V28H95.2585V16.3636H96.5994ZM99.0554 28V19.2727H100.396V28H99.0554ZM99.7372 17.8182C99.4759 17.8182 99.2505 17.7292 99.0611 17.5511C98.8755 17.3731 98.7827 17.1591 98.7827 16.9091C98.7827 16.6591 98.8755 16.4451 99.0611 16.267C99.2505 16.089 99.4759 16 99.7372 16C99.9986 16 100.222 16.089 100.408 16.267C100.597 16.4451 100.692 16.6591 100.692 16.9091C100.692 17.1591 100.597 17.3731 100.408 17.5511C100.222 17.7292 99.9986 17.8182 99.7372 17.8182ZM104.193 22.75V28H102.852V19.2727H104.148V20.6364H104.261C104.466 20.1932 104.777 19.8371 105.193 19.5682C105.61 19.2955 106.148 19.1591 106.807 19.1591C107.398 19.1591 107.915 19.2803 108.358 19.5227C108.801 19.7614 109.146 20.125 109.392 20.6136C109.638 21.0985 109.761 21.7121 109.761 22.4545V28H108.42V22.5455C108.42 21.8598 108.242 21.3258 107.886 20.9432C107.53 20.5568 107.042 20.3636 106.42 20.3636C105.992 20.3636 105.61 20.4564 105.273 20.642C104.939 20.8277 104.676 21.0985 104.483 21.4545C104.29 21.8106 104.193 22.2424 104.193 22.75ZM113.462 24.8182L113.439 23.1591H113.712L117.53 19.2727H119.189L115.121 23.3864H115.007L113.462 24.8182ZM112.212 28V16.3636H113.553V28H112.212ZM117.757 28L114.348 23.6818L115.303 22.75L119.462 28H117.757Z" fill="#251B2C"/>
<rect x="0.5" y="0.5" width="135" height="43" rx="21.5" stroke="#EBEBEB"/>
</svg>
