<svg width="142" height="44" viewBox="0 0 142 44" fill="none" xmlns="http://www.w3.org/2000/svg">
<rect x="0.5" y="0.5" width="141" height="43" rx="21.5" fill="white"/>
<mask id="mask0_522_4823" style="mask-type:alpha" maskUnits="userSpaceOnUse" x="16" y="10" width="24" height="24">
<rect x="16" y="10" width="24" height="24" fill="#D9D9D9"/>
</mask>
<g mask="url(#mask0_522_4823)">
<path d="M22.3 29.5002C21.8 29.5002 21.375 29.3252 21.025 28.9752C20.675 28.6252 20.5 28.2002 20.5 27.7002V25.0002H22V27.7002C22 27.7669 22.0333 27.8335 22.1 27.9002C22.1667 27.9669 22.2333 28.0002 22.3 28.0002H33.7C33.7667 28.0002 33.8333 27.9669 33.9 27.9002C33.9667 27.8335 34 27.7669 34 27.7002V25.0002H35.5V27.7002C35.5 28.2002 35.325 28.6252 34.975 28.9752C34.625 29.3252 34.2 29.5002 33.7 29.5002H22.3ZM28 25.6252L23.725 21.3502L24.775 20.2502L27.25 22.7252V14.3252H28.75V22.7252L31.225 20.2502L32.275 21.3502L28 25.6252Z" fill="#251B2C"/>
</g>
<path d="M55 28H51.4091V16.3636H55.1591C56.2879 16.3636 57.2538 16.5966 58.0568 17.0625C58.8598 17.5246 59.4754 18.1894 59.9034 19.0568C60.3314 19.9205 60.5455 20.9545 60.5455 22.1591C60.5455 23.3712 60.3295 24.4148 59.8977 25.2898C59.4659 26.161 58.8371 26.8314 58.0114 27.3011C57.1856 27.767 56.1818 28 55 28ZM52.8182 26.75H54.9091C55.8712 26.75 56.6686 26.5644 57.3011 26.1932C57.9337 25.822 58.4053 25.2936 58.7159 24.608C59.0265 23.9223 59.1818 23.1061 59.1818 22.1591C59.1818 21.2197 59.0284 20.411 58.7216 19.733C58.4148 19.0511 57.9564 18.5284 57.3466 18.1648C56.7367 17.7973 55.9773 17.6136 55.0682 17.6136H52.8182V26.75ZM66.2727 28.1818C65.4848 28.1818 64.7936 27.9943 64.1989 27.6193C63.608 27.2443 63.1458 26.7197 62.8125 26.0455C62.483 25.3712 62.3182 24.5833 62.3182 23.6818C62.3182 22.7727 62.483 21.9792 62.8125 21.3011C63.1458 20.6231 63.608 20.0966 64.1989 19.7216C64.7936 19.3466 65.4848 19.1591 66.2727 19.1591C67.0606 19.1591 67.75 19.3466 68.3409 19.7216C68.9356 20.0966 69.3977 20.6231 69.7273 21.3011C70.0606 21.9792 70.2273 22.7727 70.2273 23.6818C70.2273 24.5833 70.0606 25.3712 69.7273 26.0455C69.3977 26.7197 68.9356 27.2443 68.3409 27.6193C67.75 27.9943 67.0606 28.1818 66.2727 28.1818ZM66.2727 26.9773C66.8712 26.9773 67.3636 26.8239 67.75 26.517C68.1364 26.2102 68.4223 25.8068 68.608 25.3068C68.7936 24.8068 68.8864 24.2652 68.8864 23.6818C68.8864 23.0985 68.7936 22.5549 68.608 22.0511C68.4223 21.5473 68.1364 21.1402 67.75 20.8295C67.3636 20.5189 66.8712 20.3636 66.2727 20.3636C65.6742 20.3636 65.1818 20.5189 64.7955 20.8295C64.4091 21.1402 64.1231 21.5473 63.9375 22.0511C63.7519 22.5549 63.6591 23.0985 63.6591 23.6818C63.6591 24.2652 63.7519 24.8068 63.9375 25.3068C64.1231 25.8068 64.4091 26.2102 64.7955 26.517C65.1818 26.8239 65.6742 26.9773 66.2727 26.9773ZM73.9545 28L71.2955 19.2727H72.7045L74.5909 25.9545H74.6818L76.5455 19.2727H77.9773L79.8182 25.9318H79.9091L81.7955 19.2727H83.2045L80.5455 28H79.2273L77.3182 21.2955H77.1818L75.2727 28H73.9545ZM86.3182 22.75V28H84.9773V19.2727H86.2727V20.6364H86.3864C86.5909 20.1932 86.9015 19.8371 87.3182 19.5682C87.7348 19.2955 88.2727 19.1591 88.9318 19.1591C89.5227 19.1591 90.0398 19.2803 90.483 19.5227C90.9261 19.7614 91.2708 20.125 91.517 20.6136C91.7633 21.0985 91.8864 21.7121 91.8864 22.4545V28H90.5455V22.5455C90.5455 21.8598 90.3674 21.3258 90.0114 20.9432C89.6553 20.5568 89.1667 20.3636 88.5455 20.3636C88.1174 20.3636 87.7348 20.4564 87.3977 20.642C87.0644 20.8277 86.8011 21.0985 86.608 21.4545C86.4148 21.8106 86.3182 22.2424 86.3182 22.75ZM95.6776 16.3636V28H94.3366V16.3636H95.6776ZM101.679 28.1818C100.891 28.1818 100.2 27.9943 99.6051 27.6193C99.0142 27.2443 98.5521 26.7197 98.2188 26.0455C97.8892 25.3712 97.7244 24.5833 97.7244 23.6818C97.7244 22.7727 97.8892 21.9792 98.2188 21.3011C98.5521 20.6231 99.0142 20.0966 99.6051 19.7216C100.2 19.3466 100.891 19.1591 101.679 19.1591C102.467 19.1591 103.156 19.3466 103.747 19.7216C104.342 20.0966 104.804 20.6231 105.134 21.3011C105.467 21.9792 105.634 22.7727 105.634 23.6818C105.634 24.5833 105.467 25.3712 105.134 26.0455C104.804 26.7197 104.342 27.2443 103.747 27.6193C103.156 27.9943 102.467 28.1818 101.679 28.1818ZM101.679 26.9773C102.277 26.9773 102.77 26.8239 103.156 26.517C103.543 26.2102 103.829 25.8068 104.014 25.3068C104.2 24.8068 104.293 24.2652 104.293 23.6818C104.293 23.0985 104.2 22.5549 104.014 22.0511C103.829 21.5473 103.543 21.1402 103.156 20.8295C102.77 20.5189 102.277 20.3636 101.679 20.3636C101.08 20.3636 100.588 20.5189 100.202 20.8295C99.8153 21.1402 99.5294 21.5473 99.3438 22.0511C99.1581 22.5549 99.0653 23.0985 99.0653 23.6818C99.0653 24.2652 99.1581 24.8068 99.3438 25.3068C99.5294 25.8068 99.8153 26.2102 100.202 26.517C100.588 26.8239 101.08 26.9773 101.679 26.9773ZM110.249 28.2045C109.696 28.2045 109.194 28.1004 108.743 27.892C108.292 27.6799 107.934 27.375 107.669 26.9773C107.404 26.5758 107.271 26.0909 107.271 25.5227C107.271 25.0227 107.37 24.6174 107.567 24.3068C107.764 23.9924 108.027 23.7462 108.357 23.5682C108.686 23.3902 109.05 23.2576 109.447 23.1705C109.849 23.0795 110.252 23.0076 110.658 22.9545C111.188 22.8864 111.618 22.8352 111.947 22.8011C112.281 22.7633 112.523 22.7008 112.675 22.6136C112.83 22.5265 112.908 22.375 112.908 22.1591V22.1136C112.908 21.553 112.754 21.1174 112.447 20.8068C112.144 20.4962 111.684 20.3409 111.067 20.3409C110.427 20.3409 109.925 20.4811 109.561 20.7614C109.197 21.0417 108.942 21.3409 108.794 21.6591L107.521 21.2045C107.749 20.6742 108.052 20.2614 108.43 19.9659C108.813 19.6667 109.23 19.4583 109.68 19.3409C110.135 19.2197 110.582 19.1591 111.021 19.1591C111.302 19.1591 111.624 19.1932 111.987 19.2614C112.355 19.3258 112.709 19.4602 113.05 19.6648C113.394 19.8693 113.68 20.178 113.908 20.5909C114.135 21.0038 114.249 21.5568 114.249 22.25V28H112.908V26.8182H112.839C112.749 27.0076 112.597 27.2102 112.385 27.4261C112.173 27.642 111.891 27.8258 111.538 27.9773C111.186 28.1288 110.756 28.2045 110.249 28.2045ZM110.453 27C110.983 27 111.43 26.8958 111.794 26.6875C112.161 26.4792 112.438 26.2102 112.624 25.8807C112.813 25.5511 112.908 25.2045 112.908 24.8409V23.6136C112.851 23.6818 112.726 23.7443 112.533 23.8011C112.343 23.8542 112.124 23.9015 111.874 23.9432C111.627 23.9811 111.387 24.0152 111.152 24.0455C110.921 24.072 110.733 24.0947 110.589 24.1136C110.241 24.1591 109.915 24.233 109.612 24.3352C109.313 24.4337 109.071 24.5833 108.885 24.7841C108.703 24.9811 108.612 25.25 108.612 25.5909C108.612 26.0568 108.785 26.4091 109.129 26.6477C109.478 26.8826 109.919 27 110.453 27ZM119.991 28.1818C119.264 28.1818 118.622 27.9981 118.065 27.6307C117.509 27.2595 117.073 26.7367 116.759 26.0625C116.444 25.3845 116.287 24.5833 116.287 23.6591C116.287 22.7424 116.444 21.947 116.759 21.2727C117.073 20.5985 117.51 20.0777 118.071 19.7102C118.632 19.3428 119.279 19.1591 120.014 19.1591C120.582 19.1591 121.031 19.2538 121.361 19.4432C121.694 19.6288 121.948 19.8409 122.122 20.0795C122.3 20.3144 122.438 20.5076 122.537 20.6591H122.651V16.3636H123.991V28H122.696V26.6591H122.537C122.438 26.8182 122.298 27.0189 122.116 27.2614C121.935 27.5 121.675 27.714 121.338 27.9034C121.001 28.089 120.552 28.1818 119.991 28.1818ZM120.173 26.9773C120.711 26.9773 121.166 26.8371 121.537 26.5568C121.908 26.2727 122.19 25.8807 122.384 25.3807C122.577 24.8769 122.673 24.2955 122.673 23.6364C122.673 22.9848 122.579 22.4148 122.389 21.9261C122.2 21.4337 121.92 21.0511 121.548 20.7784C121.177 20.5019 120.719 20.3636 120.173 20.3636C119.605 20.3636 119.132 20.5095 118.753 20.8011C118.378 21.089 118.096 21.4811 117.906 21.9773C117.721 22.4697 117.628 23.0227 117.628 23.6364C117.628 24.2576 117.723 24.822 117.912 25.3295C118.105 25.8333 118.389 26.2348 118.764 26.5341C119.143 26.8295 119.613 26.9773 120.173 26.9773Z" fill="#251B2C"/>
<rect x="0.5" y="0.5" width="141" height="43" rx="21.5" stroke="#EBEBEB"/>
</svg>
