<svg width="193" height="44" viewBox="0 0 193 44" fill="none" xmlns="http://www.w3.org/2000/svg">
<rect x="0.5" y="0.5" width="192" height="43" rx="21.5" fill="white"/>
<mask id="mask0_522_4832" style="mask-type:alpha" maskUnits="userSpaceOnUse" x="16" y="10" width="24" height="24">
<rect x="16" y="10" width="24" height="24" fill="#D9D9D9"/>
</mask>
<g mask="url(#mask0_522_4832)">
<path d="M24.0016 27.6496L18.3516 21.9996L24.0016 16.3496L25.0766 17.4246L20.4766 22.0246L25.0516 26.5996L24.0016 27.6496ZM32.0016 27.6496L30.9266 26.5746L35.5266 21.9746L30.9516 17.3996L32.0016 16.3496L37.6516 21.9996L32.0016 27.6496Z" fill="#251B2C"/>
</g>
<path d="M59.3636 20C59.2386 19.6174 59.0739 19.2746 58.8693 18.9716C58.6686 18.6648 58.428 18.4034 58.1477 18.1875C57.8712 17.9716 57.5568 17.8068 57.2045 17.6932C56.8523 17.5795 56.4659 17.5227 56.0455 17.5227C55.3561 17.5227 54.7292 17.7008 54.1648 18.0568C53.6004 18.4129 53.1515 18.9375 52.8182 19.6307C52.4848 20.3239 52.3182 21.1742 52.3182 22.1818C52.3182 23.1894 52.4867 24.0398 52.8239 24.733C53.161 25.4261 53.6174 25.9508 54.1932 26.3068C54.7689 26.6629 55.4167 26.8409 56.1364 26.8409C56.803 26.8409 57.3902 26.6989 57.8977 26.4148C58.4091 26.1269 58.8068 25.7216 59.0909 25.1989C59.3788 24.6723 59.5227 24.053 59.5227 23.3409L59.9545 23.4318H56.4545V22.1818H60.8864V23.4318C60.8864 24.3902 60.6818 25.2235 60.2727 25.9318C59.8674 26.6402 59.3068 27.1894 58.5909 27.5795C57.8788 27.9659 57.0606 28.1591 56.1364 28.1591C55.1061 28.1591 54.2008 27.9167 53.4205 27.4318C52.6439 26.947 52.0379 26.2576 51.6023 25.3636C51.1705 24.4697 50.9545 23.4091 50.9545 22.1818C50.9545 21.2614 51.0777 20.4337 51.3239 19.6989C51.5739 18.9602 51.9261 18.3314 52.3807 17.8125C52.8352 17.2936 53.3731 16.8958 53.9943 16.6193C54.6155 16.3428 55.2992 16.2045 56.0455 16.2045C56.6591 16.2045 57.2311 16.2973 57.7614 16.483C58.2955 16.6648 58.7708 16.9242 59.1875 17.2614C59.608 17.5947 59.9583 17.9943 60.2386 18.4602C60.5189 18.9223 60.7121 19.4356 60.8182 20H59.3636ZM66.777 28.1818C65.9361 28.1818 65.2107 27.9962 64.6009 27.625C63.9948 27.25 63.527 26.7273 63.1974 26.0568C62.8717 25.3826 62.7088 24.5985 62.7088 23.7045C62.7088 22.8106 62.8717 22.0227 63.1974 21.3409C63.527 20.6553 63.9853 20.1212 64.5724 19.7386C65.1634 19.3523 65.8527 19.1591 66.6406 19.1591C67.0952 19.1591 67.544 19.2348 67.9872 19.3864C68.4304 19.5379 68.8338 19.7841 69.1974 20.125C69.5611 20.4621 69.8509 20.9091 70.0668 21.4659C70.2827 22.0227 70.3906 22.7083 70.3906 23.5227V24.0909H63.6634V22.9318H69.027C69.027 22.4394 68.9285 22 68.7315 21.6136C68.5384 21.2273 68.2618 20.9223 67.902 20.6989C67.5459 20.4754 67.1255 20.3636 66.6406 20.3636C66.1065 20.3636 65.6444 20.4962 65.2543 20.7614C64.8679 21.0227 64.5705 21.3636 64.3622 21.7841C64.1539 22.2045 64.0497 22.6553 64.0497 23.1364V23.9091C64.0497 24.5682 64.1634 25.1269 64.3906 25.5852C64.6217 26.0398 64.9418 26.3864 65.3509 26.625C65.7599 26.8598 66.2353 26.9773 66.777 26.9773C67.1293 26.9773 67.4474 26.928 67.7315 26.8295C68.0194 26.7273 68.2675 26.5758 68.4759 26.375C68.6842 26.1705 68.8452 25.9167 68.9588 25.6136L70.2543 25.9773C70.1179 26.4167 69.8887 26.803 69.5668 27.1364C69.2448 27.4659 68.8471 27.7235 68.3736 27.9091C67.9001 28.0909 67.3679 28.1818 66.777 28.1818ZM76.2259 19.2727V20.4091H71.7031V19.2727H76.2259ZM73.0213 17.1818H74.3622V25.5C74.3622 25.8788 74.4171 26.1629 74.527 26.3523C74.6406 26.5379 74.7846 26.6629 74.9588 26.7273C75.1368 26.7879 75.3243 26.8182 75.5213 26.8182C75.669 26.8182 75.7902 26.8106 75.8849 26.7955C75.9796 26.7765 76.0554 26.7614 76.1122 26.75L76.3849 27.9545C76.294 27.9886 76.1671 28.0227 76.0043 28.0568C75.8414 28.0947 75.6349 28.1136 75.3849 28.1136C75.0062 28.1136 74.6349 28.0322 74.2713 27.8693C73.9115 27.7064 73.6122 27.4583 73.3736 27.125C73.1387 26.7917 73.0213 26.3712 73.0213 25.8636V17.1818ZM86.402 28.1818C85.5611 28.1818 84.8357 27.9962 84.2259 27.625C83.6198 27.25 83.152 26.7273 82.8224 26.0568C82.4967 25.3826 82.3338 24.5985 82.3338 23.7045C82.3338 22.8106 82.4967 22.0227 82.8224 21.3409C83.152 20.6553 83.6103 20.1212 84.1974 19.7386C84.7884 19.3523 85.4777 19.1591 86.2656 19.1591C86.7202 19.1591 87.169 19.2348 87.6122 19.3864C88.0554 19.5379 88.4588 19.7841 88.8224 20.125C89.1861 20.4621 89.4759 20.9091 89.6918 21.4659C89.9077 22.0227 90.0156 22.7083 90.0156 23.5227V24.0909H83.2884V22.9318H88.652C88.652 22.4394 88.5535 22 88.3565 21.6136C88.1634 21.2273 87.8868 20.9223 87.527 20.6989C87.1709 20.4754 86.7505 20.3636 86.2656 20.3636C85.7315 20.3636 85.2694 20.4962 84.8793 20.7614C84.4929 21.0227 84.1955 21.3636 83.9872 21.7841C83.7789 22.2045 83.6747 22.6553 83.6747 23.1364V23.9091C83.6747 24.5682 83.7884 25.1269 84.0156 25.5852C84.2467 26.0398 84.5668 26.3864 84.9759 26.625C85.3849 26.8598 85.8603 26.9773 86.402 26.9773C86.7543 26.9773 87.0724 26.928 87.3565 26.8295C87.6444 26.7273 87.8925 26.5758 88.1009 26.375C88.3092 26.1705 88.4702 25.9167 88.5838 25.6136L89.8793 25.9773C89.7429 26.4167 89.5137 26.803 89.1918 27.1364C88.8698 27.4659 88.4721 27.7235 87.9986 27.9091C87.5251 28.0909 86.9929 28.1818 86.402 28.1818ZM92.0554 28V19.2727H93.3509V20.6364H93.4645C93.6463 20.1705 93.9399 19.8087 94.3452 19.5511C94.7505 19.2898 95.2372 19.1591 95.8054 19.1591C96.3812 19.1591 96.8603 19.2898 97.2429 19.5511C97.6293 19.8087 97.9304 20.1705 98.1463 20.6364H98.2372C98.4607 20.1856 98.7959 19.8277 99.2429 19.5625C99.6899 19.2936 100.226 19.1591 100.851 19.1591C101.631 19.1591 102.269 19.4034 102.766 19.892C103.262 20.3769 103.51 21.1326 103.51 22.1591V28H102.169V22.1591C102.169 21.5152 101.993 21.0549 101.641 20.7784C101.288 20.5019 100.874 20.3636 100.396 20.3636C99.7827 20.3636 99.3073 20.5492 98.9702 20.9205C98.633 21.2879 98.4645 21.7538 98.4645 22.3182V28H97.1009V22.0227C97.1009 21.5265 96.9399 21.1269 96.6179 20.8239C96.2959 20.517 95.8812 20.3636 95.3736 20.3636C95.0251 20.3636 94.6993 20.4564 94.3963 20.642C94.0971 20.8277 93.8546 21.0852 93.669 21.4148C93.4872 21.7405 93.3963 22.1174 93.3963 22.5455V28H92.0554ZM106.143 28V16.3636H107.484V20.6591H107.598C107.696 20.5076 107.833 20.3144 108.007 20.0795C108.185 19.8409 108.439 19.6288 108.768 19.4432C109.102 19.2538 109.553 19.1591 110.121 19.1591C110.856 19.1591 111.503 19.3428 112.064 19.7102C112.625 20.0777 113.062 20.5985 113.376 21.2727C113.691 21.947 113.848 22.7424 113.848 23.6591C113.848 24.5833 113.691 25.3845 113.376 26.0625C113.062 26.7367 112.626 27.2595 112.07 27.6307C111.513 27.9981 110.871 28.1818 110.143 28.1818C109.583 28.1818 109.134 28.089 108.797 27.9034C108.46 27.714 108.2 27.5 108.018 27.2614C107.837 27.0189 107.696 26.8182 107.598 26.6591H107.439V28H106.143ZM107.462 23.6364C107.462 24.2955 107.558 24.8769 107.751 25.3807C107.945 25.8807 108.227 26.2727 108.598 26.5568C108.969 26.8371 109.424 26.9773 109.962 26.9773C110.522 26.9773 110.99 26.8295 111.365 26.5341C111.744 26.2348 112.028 25.8333 112.217 25.3295C112.411 24.822 112.507 24.2576 112.507 23.6364C112.507 23.0227 112.412 22.4697 112.223 21.9773C112.037 21.4811 111.755 21.089 111.376 20.8011C111.001 20.5095 110.53 20.3636 109.962 20.3636C109.416 20.3636 108.958 20.5019 108.587 20.7784C108.215 21.0511 107.935 21.4337 107.746 21.9261C107.556 22.4148 107.462 22.9848 107.462 23.6364ZM119.558 28.1818C118.717 28.1818 117.992 27.9962 117.382 27.625C116.776 27.25 116.308 26.7273 115.979 26.0568C115.653 25.3826 115.49 24.5985 115.49 23.7045C115.49 22.8106 115.653 22.0227 115.979 21.3409C116.308 20.6553 116.767 20.1212 117.354 19.7386C117.945 19.3523 118.634 19.1591 119.422 19.1591C119.876 19.1591 120.325 19.2348 120.768 19.3864C121.212 19.5379 121.615 19.7841 121.979 20.125C122.342 20.4621 122.632 20.9091 122.848 21.4659C123.064 22.0227 123.172 22.7083 123.172 23.5227V24.0909H116.445V22.9318H121.808C121.808 22.4394 121.71 22 121.513 21.6136C121.32 21.2273 121.043 20.9223 120.683 20.6989C120.327 20.4754 119.907 20.3636 119.422 20.3636C118.888 20.3636 118.426 20.4962 118.036 20.7614C117.649 21.0227 117.352 21.3636 117.143 21.7841C116.935 22.2045 116.831 22.6553 116.831 23.1364V23.9091C116.831 24.5682 116.945 25.1269 117.172 25.5852C117.403 26.0398 117.723 26.3864 118.132 26.625C118.541 26.8598 119.017 26.9773 119.558 26.9773C119.911 26.9773 120.229 26.928 120.513 26.8295C120.801 26.7273 121.049 26.5758 121.257 26.375C121.465 26.1705 121.626 25.9167 121.74 25.6136L123.036 25.9773C122.899 26.4167 122.67 26.803 122.348 27.1364C122.026 27.4659 121.628 27.7235 121.155 27.9091C120.681 28.0909 120.149 28.1818 119.558 28.1818ZM128.507 28.1818C127.78 28.1818 127.138 27.9981 126.581 27.6307C126.024 27.2595 125.589 26.7367 125.274 26.0625C124.96 25.3845 124.803 24.5833 124.803 23.6591C124.803 22.7424 124.96 21.947 125.274 21.2727C125.589 20.5985 126.026 20.0777 126.587 19.7102C127.147 19.3428 127.795 19.1591 128.53 19.1591C129.098 19.1591 129.547 19.2538 129.876 19.4432C130.21 19.6288 130.464 19.8409 130.638 20.0795C130.816 20.3144 130.954 20.5076 131.053 20.6591H131.166V16.3636H132.507V28H131.212V26.6591H131.053C130.954 26.8182 130.814 27.0189 130.632 27.2614C130.45 27.5 130.191 27.714 129.854 27.9034C129.517 28.089 129.068 28.1818 128.507 28.1818ZM128.689 26.9773C129.227 26.9773 129.681 26.8371 130.053 26.5568C130.424 26.2727 130.706 25.8807 130.899 25.3807C131.092 24.8769 131.189 24.2955 131.189 23.6364C131.189 22.9848 131.094 22.4148 130.905 21.9261C130.715 21.4337 130.435 21.0511 130.064 20.7784C129.693 20.5019 129.234 20.3636 128.689 20.3636C128.121 20.3636 127.647 20.5095 127.268 20.8011C126.893 21.089 126.611 21.4811 126.422 21.9773C126.236 22.4697 126.143 23.0227 126.143 23.6364C126.143 24.2576 126.238 24.822 126.428 25.3295C126.621 25.8333 126.905 26.2348 127.28 26.5341C127.659 26.8295 128.128 26.9773 128.689 26.9773ZM143.195 28.1818C142.376 28.1818 141.672 27.9886 141.081 27.6023C140.49 27.2159 140.036 26.6837 139.717 26.0057C139.399 25.3277 139.24 24.553 139.24 23.6818C139.24 22.7955 139.403 22.0133 139.729 21.3352C140.058 20.6534 140.517 20.1212 141.104 19.7386C141.695 19.3523 142.384 19.1591 143.172 19.1591C143.786 19.1591 144.339 19.2727 144.831 19.5C145.323 19.7273 145.727 20.0455 146.041 20.4545C146.356 20.8636 146.551 21.3409 146.626 21.8864H145.286C145.183 21.4886 144.956 21.1364 144.604 20.8295C144.255 20.5189 143.786 20.3636 143.195 20.3636C142.672 20.3636 142.214 20.5 141.82 20.7727C141.429 21.0417 141.125 21.4223 140.905 21.9148C140.689 22.4034 140.581 22.9773 140.581 23.6364C140.581 24.3106 140.687 24.8977 140.899 25.3977C141.115 25.8977 141.418 26.286 141.808 26.5625C142.202 26.839 142.664 26.9773 143.195 26.9773C143.543 26.9773 143.859 26.9167 144.143 26.7955C144.428 26.6742 144.668 26.5 144.865 26.2727C145.062 26.0455 145.202 25.7727 145.286 25.4545H146.626C146.551 25.9697 146.363 26.4337 146.064 26.8466C145.768 27.2557 145.376 27.5814 144.888 27.8239C144.403 28.0625 143.839 28.1818 143.195 28.1818ZM152.132 28.1818C151.344 28.1818 150.653 27.9943 150.058 27.6193C149.467 27.2443 149.005 26.7197 148.672 26.0455C148.342 25.3712 148.178 24.5833 148.178 23.6818C148.178 22.7727 148.342 21.9792 148.672 21.3011C149.005 20.6231 149.467 20.0966 150.058 19.7216C150.653 19.3466 151.344 19.1591 152.132 19.1591C152.92 19.1591 153.609 19.3466 154.2 19.7216C154.795 20.0966 155.257 20.6231 155.587 21.3011C155.92 21.9792 156.087 22.7727 156.087 23.6818C156.087 24.5833 155.92 25.3712 155.587 26.0455C155.257 26.7197 154.795 27.2443 154.2 27.6193C153.609 27.9943 152.92 28.1818 152.132 28.1818ZM152.132 26.9773C152.731 26.9773 153.223 26.8239 153.609 26.517C153.996 26.2102 154.282 25.8068 154.467 25.3068C154.653 24.8068 154.746 24.2652 154.746 23.6818C154.746 23.0985 154.653 22.5549 154.467 22.0511C154.282 21.5473 153.996 21.1402 153.609 20.8295C153.223 20.5189 152.731 20.3636 152.132 20.3636C151.534 20.3636 151.041 20.5189 150.655 20.8295C150.268 21.1402 149.982 21.5473 149.797 22.0511C149.611 22.5549 149.518 23.0985 149.518 23.6818C149.518 24.2652 149.611 24.8068 149.797 25.3068C149.982 25.8068 150.268 26.2102 150.655 26.517C151.041 26.8239 151.534 26.9773 152.132 26.9773ZM161.429 28.1818C160.702 28.1818 160.06 27.9981 159.503 27.6307C158.946 27.2595 158.51 26.7367 158.196 26.0625C157.882 25.3845 157.724 24.5833 157.724 23.6591C157.724 22.7424 157.882 21.947 158.196 21.2727C158.51 20.5985 158.948 20.0777 159.509 19.7102C160.069 19.3428 160.717 19.1591 161.452 19.1591C162.02 19.1591 162.469 19.2538 162.798 19.4432C163.132 19.6288 163.385 19.8409 163.56 20.0795C163.738 20.3144 163.876 20.5076 163.974 20.6591H164.088V16.3636H165.429V28H164.134V26.6591H163.974C163.876 26.8182 163.736 27.0189 163.554 27.2614C163.372 27.5 163.113 27.714 162.776 27.9034C162.438 28.089 161.99 28.1818 161.429 28.1818ZM161.611 26.9773C162.149 26.9773 162.603 26.8371 162.974 26.5568C163.346 26.2727 163.628 25.8807 163.821 25.3807C164.014 24.8769 164.111 24.2955 164.111 23.6364C164.111 22.9848 164.016 22.4148 163.827 21.9261C163.637 21.4337 163.357 21.0511 162.986 20.7784C162.615 20.5019 162.156 20.3636 161.611 20.3636C161.043 20.3636 160.569 20.5095 160.19 20.8011C159.815 21.089 159.533 21.4811 159.344 21.9773C159.158 22.4697 159.065 23.0227 159.065 23.6364C159.065 24.2576 159.16 24.822 159.349 25.3295C159.543 25.8333 159.827 26.2348 160.202 26.5341C160.58 26.8295 161.05 26.9773 161.611 26.9773ZM171.73 28.1818C170.889 28.1818 170.164 27.9962 169.554 27.625C168.948 27.25 168.48 26.7273 168.151 26.0568C167.825 25.3826 167.662 24.5985 167.662 23.7045C167.662 22.8106 167.825 22.0227 168.151 21.3409C168.48 20.6553 168.938 20.1212 169.526 19.7386C170.116 19.3523 170.806 19.1591 171.594 19.1591C172.048 19.1591 172.497 19.2348 172.94 19.3864C173.384 19.5379 173.787 19.7841 174.151 20.125C174.514 20.4621 174.804 20.9091 175.02 21.4659C175.236 22.0227 175.344 22.7083 175.344 23.5227V24.0909H168.616V22.9318H173.98C173.98 22.4394 173.882 22 173.685 21.6136C173.491 21.2273 173.215 20.9223 172.855 20.6989C172.499 20.4754 172.079 20.3636 171.594 20.3636C171.06 20.3636 170.598 20.4962 170.207 20.7614C169.821 21.0227 169.524 21.3636 169.315 21.7841C169.107 22.2045 169.003 22.6553 169.003 23.1364V23.9091C169.003 24.5682 169.116 25.1269 169.344 25.5852C169.575 26.0398 169.895 26.3864 170.304 26.625C170.713 26.8598 171.188 26.9773 171.73 26.9773C172.082 26.9773 172.401 26.928 172.685 26.8295C172.973 26.7273 173.221 26.5758 173.429 26.375C173.637 26.1705 173.798 25.9167 173.912 25.6136L175.207 25.9773C175.071 26.4167 174.842 26.803 174.52 27.1364C174.198 27.4659 173.8 27.7235 173.327 27.9091C172.853 28.0909 172.321 28.1818 171.73 28.1818Z" fill="#251B2C"/>
<rect x="0.5" y="0.5" width="192" height="43" rx="21.5" stroke="#EBEBEB"/>
</svg>
