<svg width="116" height="44" viewBox="0 0 116 44" fill="none" xmlns="http://www.w3.org/2000/svg">
<rect x="0.5" y="0.5" width="115" height="43" rx="21.5" fill="white"/>
<path d="M25 27V21L23 23" stroke="#251B2C" stroke-width="1.5" stroke-linecap="round" stroke-linejoin="round"/>
<path d="M25 21L27 23" stroke="#251B2C" stroke-width="1.5" stroke-linecap="round" stroke-linejoin="round"/>
<path d="M38 20V25C38 30 36 32 31 32H25C20 32 18 30 18 25V19C18 14 20 12 25 12H30" stroke="#251B2C" stroke-width="1.5" stroke-linecap="round" stroke-linejoin="round"/>
<path d="M38 20H34C31 20 30 19 30 16V12L38 20Z" stroke="#251B2C" stroke-width="1.5" stroke-linecap="round" stroke-linejoin="round"/>
<path d="M51.4091 28V16.3636H58.4318V17.6136H52.8182V21.5455H58.0682V22.7955H52.8182V26.75H58.5227V28H51.4091ZM61.7898 19.2727L63.8807 22.8409L65.9716 19.2727H67.517L64.6989 23.6364L67.517 28H65.9716L63.8807 24.6136L61.7898 28H60.2443L63.017 23.6364L60.2443 19.2727H61.7898ZM69.4304 31.2727V19.2727H70.7259V20.6591H70.8849C70.9834 20.5076 71.1198 20.3144 71.294 20.0795C71.4721 19.8409 71.7259 19.6288 72.0554 19.4432C72.3887 19.2538 72.8395 19.1591 73.4077 19.1591C74.1425 19.1591 74.7902 19.3428 75.3509 19.7102C75.9115 20.0777 76.349 20.5985 76.6634 21.2727C76.9777 21.947 77.1349 22.7424 77.1349 23.6591C77.1349 24.5833 76.9777 25.3845 76.6634 26.0625C76.349 26.7367 75.9134 27.2595 75.3565 27.6307C74.7997 27.9981 74.1577 28.1818 73.4304 28.1818C72.8698 28.1818 72.4209 28.089 72.0838 27.9034C71.7467 27.714 71.4872 27.5 71.3054 27.2614C71.1236 27.0189 70.9834 26.8182 70.8849 26.6591H70.7713V31.2727H69.4304ZM70.7486 23.6364C70.7486 24.2955 70.8452 24.8769 71.0384 25.3807C71.2315 25.8807 71.5137 26.2727 71.8849 26.5568C72.2562 26.8371 72.7107 26.9773 73.2486 26.9773C73.8092 26.9773 74.277 26.8295 74.652 26.5341C75.0308 26.2348 75.3149 25.8333 75.5043 25.3295C75.6974 24.822 75.794 24.2576 75.794 23.6364C75.794 23.0227 75.6993 22.4697 75.5099 21.9773C75.3243 21.4811 75.0421 21.089 74.6634 20.8011C74.2884 20.5095 73.8168 20.3636 73.2486 20.3636C72.7031 20.3636 72.2448 20.5019 71.8736 20.7784C71.5024 21.0511 71.2221 21.4337 71.0327 21.9261C70.8433 22.4148 70.7486 22.9848 70.7486 23.6364ZM82.7259 28.1818C81.938 28.1818 81.2467 27.9943 80.652 27.6193C80.0611 27.2443 79.599 26.7197 79.2656 26.0455C78.9361 25.3712 78.7713 24.5833 78.7713 23.6818C78.7713 22.7727 78.9361 21.9792 79.2656 21.3011C79.599 20.6231 80.0611 20.0966 80.652 19.7216C81.2467 19.3466 81.938 19.1591 82.7259 19.1591C83.5137 19.1591 84.2031 19.3466 84.794 19.7216C85.3887 20.0966 85.8509 20.6231 86.1804 21.3011C86.5137 21.9792 86.6804 22.7727 86.6804 23.6818C86.6804 24.5833 86.5137 25.3712 86.1804 26.0455C85.8509 26.7197 85.3887 27.2443 84.794 27.6193C84.2031 27.9943 83.5137 28.1818 82.7259 28.1818ZM82.7259 26.9773C83.3243 26.9773 83.8168 26.8239 84.2031 26.517C84.5895 26.2102 84.8755 25.8068 85.0611 25.3068C85.2467 24.8068 85.3395 24.2652 85.3395 23.6818C85.3395 23.0985 85.2467 22.5549 85.0611 22.0511C84.8755 21.5473 84.5895 21.1402 84.2031 20.8295C83.8168 20.5189 83.3243 20.3636 82.7259 20.3636C82.1274 20.3636 81.6349 20.5189 81.2486 20.8295C80.8622 21.1402 80.5762 21.5473 80.3906 22.0511C80.205 22.5549 80.1122 23.0985 80.1122 23.6818C80.1122 24.2652 80.205 24.8068 80.3906 25.3068C80.5762 25.8068 80.8622 26.2102 81.2486 26.517C81.6349 26.8239 82.1274 26.9773 82.7259 26.9773ZM88.7273 28V19.2727H90.0227V20.5909H90.1136C90.2727 20.1591 90.5606 19.8087 90.9773 19.5398C91.3939 19.2708 91.8636 19.1364 92.3864 19.1364C92.4848 19.1364 92.608 19.1383 92.7557 19.142C92.9034 19.1458 93.0152 19.1515 93.0909 19.1591V20.5227C93.0455 20.5114 92.9413 20.4943 92.7784 20.4716C92.6193 20.4451 92.4508 20.4318 92.2727 20.4318C91.8485 20.4318 91.4697 20.5208 91.1364 20.6989C90.8068 20.8731 90.5455 21.1155 90.3523 21.4261C90.1629 21.733 90.0682 22.0833 90.0682 22.4773V28H88.7273ZM99.0227 19.2727V20.4091H94.5V19.2727H99.0227ZM95.8182 17.1818H97.1591V25.5C97.1591 25.8788 97.214 26.1629 97.3239 26.3523C97.4375 26.5379 97.5814 26.6629 97.7557 26.7273C97.9337 26.7879 98.1212 26.8182 98.3182 26.8182C98.4659 26.8182 98.5871 26.8106 98.6818 26.7955C98.7765 26.7765 98.8523 26.7614 98.9091 26.75L99.1818 27.9545C99.0909 27.9886 98.964 28.0227 98.8011 28.0568C98.6383 28.0947 98.4318 28.1136 98.1818 28.1136C97.803 28.1136 97.4318 28.0322 97.0682 27.8693C96.7083 27.7064 96.4091 27.4583 96.1705 27.125C95.9356 26.7917 95.8182 26.3712 95.8182 25.8636V17.1818Z" fill="#251B2C"/>
<rect x="0.5" y="0.5" width="115" height="43" rx="21.5" stroke="#EBEBEB"/>
</svg>
