<svg width="110" height="44" viewBox="0 0 110 44" fill="none" xmlns="http://www.w3.org/2000/svg">
<rect x="0.5" y="0.5" width="109" height="43" rx="21.5" fill="white"/>
<mask id="mask0_522_4826" style="mask-type:alpha" maskUnits="userSpaceOnUse" x="16" y="10" width="24" height="24">
<rect x="16" y="10" width="24" height="24" fill="#D9D9D9"/>
</mask>
<g mask="url(#mask0_522_4826)">
<path d="M22.3 32.4996C21.8 32.4996 21.375 32.3246 21.025 31.9746C20.675 31.6246 20.5 31.1996 20.5 30.6996V20.2996C20.5 19.7996 20.675 19.3746 21.025 19.0246C21.375 18.6746 21.8 18.4996 22.3 18.4996H24.875V19.9996H22.3C22.2333 19.9996 22.1667 20.0329 22.1 20.0996C22.0333 20.1663 22 20.2329 22 20.2996V30.6996C22 30.7663 22.0333 30.8329 22.1 30.8996C22.1667 30.9663 22.2333 30.9996 22.3 30.9996H33.7C33.7667 30.9996 33.8333 30.9663 33.9 30.8996C33.9667 30.8329 34 30.7663 34 30.6996V20.2996C34 20.2329 33.9667 20.1663 33.9 20.0996C33.8333 20.0329 33.7667 19.9996 33.7 19.9996H31.125V18.4996H33.7C34.2 18.4996 34.625 18.6746 34.975 19.0246C35.325 19.3746 35.5 19.7996 35.5 20.2996V30.6996C35.5 31.1996 35.325 31.6246 34.975 31.9746C34.625 32.3246 34.2 32.4996 33.7 32.4996H22.3ZM27.25 25.7496V14.7246L25.4 16.5746L24.35 15.4996L28 11.8496L31.65 15.4996L30.6 16.5746L28.75 14.7246V25.7496H27.25Z" fill="#251B2C"/>
</g>
<path d="M57.7727 19.2727C57.7045 18.697 57.428 18.25 56.9432 17.9318C56.4583 17.6136 55.8636 17.4545 55.1591 17.4545C54.6439 17.4545 54.1932 17.5379 53.8068 17.7045C53.4242 17.8712 53.125 18.1004 52.9091 18.392C52.697 18.6837 52.5909 19.0152 52.5909 19.3864C52.5909 19.697 52.6648 19.964 52.8125 20.1875C52.964 20.4072 53.1572 20.5909 53.392 20.7386C53.6269 20.8826 53.8731 21.0019 54.1307 21.0966C54.3883 21.1875 54.625 21.2614 54.8409 21.3182L56.0227 21.6364C56.3258 21.7159 56.6629 21.8258 57.0341 21.9659C57.4091 22.1061 57.767 22.2973 58.108 22.5398C58.4527 22.7784 58.7367 23.0852 58.9602 23.4602C59.1837 23.8352 59.2955 24.2955 59.2955 24.8409C59.2955 25.4697 59.1307 26.0379 58.8011 26.5455C58.4754 27.053 57.9981 27.4564 57.3693 27.7557C56.7443 28.0549 55.9848 28.2045 55.0909 28.2045C54.2576 28.2045 53.536 28.0701 52.9261 27.8011C52.3201 27.5322 51.8428 27.1572 51.4943 26.6761C51.1496 26.1951 50.9545 25.6364 50.9091 25H52.3636C52.4015 25.4394 52.5492 25.803 52.8068 26.0909C53.0682 26.375 53.3977 26.5871 53.7955 26.7273C54.197 26.8636 54.6288 26.9318 55.0909 26.9318C55.6288 26.9318 56.1117 26.8447 56.5398 26.6705C56.9678 26.4924 57.3068 26.2462 57.5568 25.9318C57.8068 25.6136 57.9318 25.2424 57.9318 24.8182C57.9318 24.4318 57.8239 24.1174 57.608 23.875C57.392 23.6326 57.108 23.4356 56.7557 23.2841C56.4034 23.1326 56.0227 23 55.6136 22.8864L54.1818 22.4773C53.2727 22.2159 52.553 21.8428 52.0227 21.358C51.4924 20.8731 51.2273 20.2386 51.2273 19.4545C51.2273 18.803 51.4034 18.2348 51.7557 17.75C52.1117 17.2614 52.589 16.8826 53.1875 16.6136C53.7898 16.3409 54.4621 16.2045 55.2045 16.2045C55.9545 16.2045 56.6212 16.339 57.2045 16.608C57.7879 16.8731 58.25 17.2367 58.5909 17.6989C58.9356 18.161 59.1174 18.6856 59.1364 19.2727H57.7727ZM62.7713 22.75V28H61.4304V16.3636H62.7713V20.6364H62.8849C63.0895 20.1856 63.3963 19.8277 63.8054 19.5625C64.2183 19.2936 64.7675 19.1591 65.4531 19.1591C66.0478 19.1591 66.5687 19.2784 67.0156 19.517C67.4626 19.7519 67.8092 20.1136 68.0554 20.6023C68.3054 21.0871 68.4304 21.7045 68.4304 22.4545V28H67.0895V22.5455C67.0895 21.8523 66.9096 21.3163 66.5497 20.9375C66.1937 20.5549 65.6993 20.3636 65.0668 20.3636C64.6274 20.3636 64.2334 20.4564 63.8849 20.642C63.5402 20.8277 63.2675 21.0985 63.0668 21.4545C62.8698 21.8106 62.7713 22.2424 62.7713 22.75ZM73.4517 28.2045C72.8987 28.2045 72.3968 28.1004 71.946 27.892C71.4953 27.6799 71.1373 27.375 70.8722 26.9773C70.607 26.5758 70.4744 26.0909 70.4744 25.5227C70.4744 25.0227 70.5729 24.6174 70.7699 24.3068C70.9669 23.9924 71.2301 23.7462 71.5597 23.5682C71.8892 23.3902 72.2528 23.2576 72.6506 23.1705C73.0521 23.0795 73.4555 23.0076 73.8608 22.9545C74.3911 22.8864 74.821 22.8352 75.1506 22.8011C75.4839 22.7633 75.7263 22.7008 75.8778 22.6136C76.0331 22.5265 76.1108 22.375 76.1108 22.1591V22.1136C76.1108 21.553 75.9574 21.1174 75.6506 20.8068C75.3475 20.4962 74.8873 20.3409 74.2699 20.3409C73.6297 20.3409 73.1278 20.4811 72.7642 20.7614C72.4006 21.0417 72.1449 21.3409 71.9972 21.6591L70.7244 21.2045C70.9517 20.6742 71.2547 20.2614 71.6335 19.9659C72.0161 19.6667 72.4328 19.4583 72.8835 19.3409C73.3381 19.2197 73.785 19.1591 74.2244 19.1591C74.5047 19.1591 74.8267 19.1932 75.1903 19.2614C75.5578 19.3258 75.9119 19.4602 76.2528 19.6648C76.5975 19.8693 76.8835 20.178 77.1108 20.5909C77.3381 21.0038 77.4517 21.5568 77.4517 22.25V28H76.1108V26.8182H76.0426C75.9517 27.0076 75.8002 27.2102 75.5881 27.4261C75.3759 27.642 75.0938 27.8258 74.7415 27.9773C74.3892 28.1288 73.9593 28.2045 73.4517 28.2045ZM73.6562 27C74.1866 27 74.6335 26.8958 74.9972 26.6875C75.3646 26.4792 75.6411 26.2102 75.8267 25.8807C76.0161 25.5511 76.1108 25.2045 76.1108 24.8409V23.6136C76.054 23.6818 75.929 23.7443 75.7358 23.8011C75.5464 23.8542 75.3267 23.9015 75.0767 23.9432C74.8305 23.9811 74.59 24.0152 74.3551 24.0455C74.1241 24.072 73.9366 24.0947 73.7926 24.1136C73.4441 24.1591 73.1184 24.233 72.8153 24.3352C72.5161 24.4337 72.2737 24.5833 72.0881 24.7841C71.9063 24.9811 71.8153 25.25 71.8153 25.5909C71.8153 26.0568 71.9877 26.4091 72.3324 26.6477C72.6809 26.8826 73.1222 27 73.6562 27ZM79.8991 28V19.2727H81.1946V20.5909H81.2855C81.4446 20.1591 81.7325 19.8087 82.1491 19.5398C82.5658 19.2708 83.0355 19.1364 83.5582 19.1364C83.6567 19.1364 83.7798 19.1383 83.9276 19.142C84.0753 19.1458 84.187 19.1515 84.2628 19.1591V20.5227C84.2173 20.5114 84.1132 20.4943 83.9503 20.4716C83.7912 20.4451 83.6226 20.4318 83.4446 20.4318C83.0204 20.4318 82.6416 20.5208 82.3082 20.6989C81.9787 20.8731 81.7173 21.1155 81.5241 21.4261C81.3348 21.733 81.2401 22.0833 81.2401 22.4773V28H79.8991ZM89.2457 28.1818C88.4048 28.1818 87.6795 27.9962 87.0696 27.625C86.4635 27.25 85.9957 26.7273 85.6662 26.0568C85.3404 25.3826 85.1776 24.5985 85.1776 23.7045C85.1776 22.8106 85.3404 22.0227 85.6662 21.3409C85.9957 20.6553 86.4541 20.1212 87.0412 19.7386C87.6321 19.3523 88.3215 19.1591 89.1094 19.1591C89.5639 19.1591 90.0128 19.2348 90.456 19.3864C90.8991 19.5379 91.3026 19.7841 91.6662 20.125C92.0298 20.4621 92.3196 20.9091 92.5355 21.4659C92.7514 22.0227 92.8594 22.7083 92.8594 23.5227V24.0909H86.1321V22.9318H91.4957C91.4957 22.4394 91.3973 22 91.2003 21.6136C91.0071 21.2273 90.7306 20.9223 90.3707 20.6989C90.0147 20.4754 89.5942 20.3636 89.1094 20.3636C88.5753 20.3636 88.1132 20.4962 87.723 20.7614C87.3366 21.0227 87.0393 21.3636 86.831 21.7841C86.6226 22.2045 86.5185 22.6553 86.5185 23.1364V23.9091C86.5185 24.5682 86.6321 25.1269 86.8594 25.5852C87.0904 26.0398 87.4105 26.3864 87.8196 26.625C88.2287 26.8598 88.7041 26.9773 89.2457 26.9773C89.598 26.9773 89.9162 26.928 90.2003 26.8295C90.4882 26.7273 90.7363 26.5758 90.9446 26.375C91.1529 26.1705 91.3139 25.9167 91.4276 25.6136L92.723 25.9773C92.5866 26.4167 92.3575 26.803 92.0355 27.1364C91.7135 27.4659 91.3158 27.7235 90.8423 27.9091C90.3688 28.0909 89.8366 28.1818 89.2457 28.1818Z" fill="#251B2C"/>
<rect x="0.5" y="0.5" width="109" height="43" rx="21.5" stroke="#EBEBEB"/>
</svg>
