<svg width="44" height="44" viewBox="0 0 44 44" fill="none" xmlns="http://www.w3.org/2000/svg">
<path d="M18.682 13.2332C18.6195 13.195 18.5691 13.1397 18.5369 13.0739C18.5046 13.0081 18.4918 12.9344 18.4999 12.8616C18.508 12.7887 18.5367 12.7197 18.5826 12.6625C18.6285 12.6054 18.6898 12.5625 18.7592 12.539C20.1645 12.0528 21.6606 11.8862 23.1385 12.0513C24.6163 12.2165 26.0387 12.7092 27.3021 13.4935C27.3491 13.5216 27.3896 13.5593 27.4209 13.6042C27.4522 13.6492 27.4736 13.7002 27.4836 13.754C27.4936 13.8078 27.4921 13.8632 27.4791 13.9163C27.4661 13.9695 27.4419 14.0193 27.4082 14.0624C26.2871 15.485 24.9185 16.6936 23.3681 17.63C22.1134 15.8679 20.5204 14.3732 18.682 13.2332ZM21.9893 18.3532C20.5776 16.4351 18.7257 14.8842 16.5897 13.831C16.5266 13.8024 16.4574 13.7901 16.3883 13.7952C16.3193 13.8002 16.2526 13.8225 16.1943 13.8599C14.466 15.1048 13.1739 16.8625 12.5014 18.8835C12.4855 18.9348 12.4805 18.9889 12.4866 19.0422C12.4928 19.0956 12.5101 19.147 12.5373 19.1933C12.5646 19.2396 12.6012 19.2797 12.6448 19.311C12.6884 19.3424 12.7381 19.3642 12.7907 19.3752C13.7983 19.5927 14.8261 19.7026 15.8569 19.7031C17.975 19.7058 20.0681 19.245 21.9893 18.3532ZM31.9978 20.9276C31.7512 18.6911 30.7596 16.6025 29.1823 14.9977C29.1434 14.9598 29.097 14.9303 29.0462 14.9111C28.9953 14.8919 28.9411 14.8834 28.8868 14.8861C28.8325 14.8888 28.7793 14.9027 28.7306 14.9269C28.6819 14.951 28.6388 14.985 28.6038 15.0266C27.3845 16.5827 25.8912 17.9028 24.1973 18.9221C24.7257 19.8389 25.1648 20.8043 25.5087 21.8051C26.8886 21.4319 28.3121 21.2439 29.7416 21.2458C30.3537 21.2472 30.9654 21.2827 31.5736 21.3519C31.6308 21.358 31.6886 21.3512 31.7429 21.332C31.7971 21.3128 31.8464 21.2818 31.887 21.2411C31.9277 21.2004 31.9588 21.1511 31.9779 21.0969C31.9971 21.0427 32.0039 20.9848 31.9978 20.9276ZM25.9329 23.29C26.2162 24.507 26.3586 25.7526 26.3572 27.0022C26.3565 28.1959 26.2239 29.3859 25.9619 30.5505C25.9447 30.6221 25.9484 30.6972 25.9725 30.7668C25.9966 30.8363 26.0401 30.8976 26.0979 30.9432C26.1557 30.9888 26.2254 31.017 26.2987 31.0243C26.3719 31.0316 26.4458 31.0177 26.5115 30.9844C27.9746 30.2526 29.2366 29.1743 30.1878 27.8433C31.139 26.5124 31.7504 24.9691 31.9689 23.3478C31.9757 23.2971 31.9722 23.2456 31.9589 23.1962C31.9455 23.1468 31.9224 23.1006 31.891 23.0602C31.8596 23.0198 31.8205 22.9861 31.7759 22.961C31.7314 22.9359 31.6823 22.9199 31.6314 22.9139C31.0052 22.8284 30.3737 22.7865 29.7416 22.7886C28.4555 22.787 27.1748 22.9556 25.9329 23.29ZM24.0334 22.2872C23.7279 21.3735 23.3271 20.4944 22.8378 19.6645C20.6587 20.7081 18.2729 21.2485 15.8569 21.2458C14.7258 21.2452 13.5978 21.1256 12.4918 20.8891C12.4382 20.878 12.3828 20.8784 12.3294 20.8903C12.276 20.9022 12.2258 20.9253 12.182 20.9582C12.1382 20.991 12.1019 21.0328 12.0755 21.0807C12.0491 21.1286 12.0333 21.1816 12.0289 21.2362C12.0096 21.4933 12 21.7537 12 22.0172C11.9995 23.3902 12.2818 24.7485 12.8292 26.0076C13.3766 27.2667 14.1775 28.3996 15.1819 29.3356C15.2233 29.3754 15.2732 29.4051 15.3279 29.4226C15.3826 29.44 15.4405 29.4448 15.4973 29.4364C15.554 29.428 15.6081 29.4068 15.6554 29.3742C15.7027 29.3417 15.7419 29.2988 15.7701 29.2488C17.6514 26.055 20.5666 23.5991 24.0334 22.2872ZM16.985 30.2323C16.9593 30.2765 16.9426 30.3254 16.9359 30.3762C16.9293 30.4269 16.9328 30.4784 16.9463 30.5278C16.9597 30.5771 16.9829 30.6233 17.0144 30.6636C17.0458 30.704 17.085 30.7376 17.1296 30.7626C18.624 31.6065 20.3117 32.0484 22.0278 32.0451C22.6131 32.0476 23.1973 31.996 23.7731 31.8908C23.8397 31.8797 23.902 31.8504 23.9531 31.8062C24.0041 31.762 24.0419 31.7045 24.0623 31.6401C24.5625 30.145 24.8165 28.5787 24.8144 27.0022C24.8139 25.9157 24.6943 24.8325 24.4577 23.7721C21.2992 25.0042 18.6607 27.2852 16.985 30.2323Z" fill="#F9F9F9"/>
</svg>
