<svg width="129" height="32" viewBox="0 0 129 32" fill="none" xmlns="http://www.w3.org/2000/svg">
<path fill-rule="evenodd" clip-rule="evenodd" d="M11.1667 0C5.27563 0 0.5 4.77563 0.5 10.6667V21.3333C0.5 27.2244 5.27563 32 11.1667 32H21.8333C27.7244 32 32.5 27.2244 32.5 21.3333V10.6667C32.5 4.77563 27.7244 0 21.8333 0H11.1667ZM9.83333 8H15.1667V24H9.83333V8ZM17.8333 8H23.1667V16H17.8333V8Z" fill="#A535F1"/>
<path d="M40.5 22.383V4.51064H47.1074C48.5361 4.51064 49.7181 4.74894 50.6535 5.22553C51.5889 5.70213 52.2862 6.35745 52.7454 7.19149C53.2046 8.02553 53.4342 8.9617 53.4342 10C53.4342 10.9872 53.2131 11.8979 52.7709 12.7319C52.3287 13.5489 51.6399 14.2128 50.7045 14.7234C49.7691 15.217 48.5701 15.4638 47.1074 15.4638H43.7654V22.383H40.5ZM43.7654 12.8085H46.9033C48.0428 12.8085 48.8592 12.5617 49.3524 12.0681C49.8626 11.5574 50.1178 10.8681 50.1178 10C50.1178 9.11489 49.8626 8.42553 49.3524 7.93191C48.8592 7.42128 48.0428 7.16596 46.9033 7.16596H43.7654V12.8085Z" fill="#F9F9F9"/>
<path d="M61.3435 22.6894C60.119 22.6894 59.0135 22.4085 58.0271 21.8468C57.0576 21.2851 56.2838 20.5106 55.7055 19.5234C55.1443 18.5191 54.8637 17.3617 54.8637 16.0511C54.8637 14.7404 55.1528 13.5915 55.731 12.6043C56.3093 11.6 57.0831 10.817 58.0526 10.2553C59.039 9.69362 60.1445 9.41277 61.369 9.41277C62.5766 9.41277 63.6651 9.69362 64.6345 10.2553C65.6209 10.817 66.3948 11.6 66.956 12.6043C67.5343 13.5915 67.8234 14.7404 67.8234 16.0511C67.8234 17.3617 67.5343 18.5191 66.956 19.5234C66.3948 20.5106 65.6209 21.2851 64.6345 21.8468C63.648 22.4085 62.5511 22.6894 61.3435 22.6894ZM61.3435 19.8553C62.1939 19.8553 62.9337 19.5404 63.563 18.9106C64.1923 18.2638 64.5069 17.3106 64.5069 16.0511C64.5069 14.7915 64.1923 13.8468 63.563 13.217C62.9337 12.5702 62.2024 12.2468 61.369 12.2468C60.5017 12.2468 59.7533 12.5702 59.124 13.217C58.5118 13.8468 58.2056 14.7915 58.2056 16.0511C58.2056 17.3106 58.5118 18.2638 59.124 18.9106C59.7533 19.5404 60.4931 19.8553 61.3435 19.8553Z" fill="#F9F9F9"/>
<path d="M70.743 22.383V4H74.0085V22.383H70.743Z" fill="#F9F9F9"/>
<path d="M79.1054 7.75319C78.5101 7.75319 78.0169 7.57447 77.6257 7.21702C77.2515 6.85957 77.0645 6.40851 77.0645 5.86383C77.0645 5.31915 77.2515 4.8766 77.6257 4.53617C78.0169 4.17872 78.5101 4 79.1054 4C79.7006 4 80.1853 4.17872 80.5595 4.53617C80.9507 4.8766 81.1463 5.31915 81.1463 5.86383C81.1463 6.40851 80.9507 6.85957 80.5595 7.21702C80.1853 7.57447 79.7006 7.75319 79.1054 7.75319ZM77.4726 22.383V9.71915H80.7381V22.383H77.4726Z" fill="#F9F9F9"/>
<path d="M90.3457 22.6894C89.0531 22.6894 87.9136 22.4085 86.9272 21.8468C85.9407 21.2851 85.1584 20.5021 84.5801 19.4979C84.0189 18.4936 83.7382 17.3447 83.7382 16.0511C83.7382 14.7574 84.0189 13.6085 84.5801 12.6043C85.1584 11.6 85.9407 10.817 86.9272 10.2553C87.9136 9.69362 89.0531 9.41277 90.3457 9.41277C91.9614 9.41277 93.322 9.8383 94.4275 10.6894C95.533 11.5234 96.2388 12.6809 96.5449 14.1617H93.1009C92.9308 13.5489 92.5907 13.0723 92.0804 12.7319C91.5872 12.3745 91.0005 12.1957 90.3202 12.1957C89.4188 12.1957 88.6534 12.5362 88.0241 13.217C87.3949 13.8979 87.0802 14.8426 87.0802 16.0511C87.0802 17.2596 87.3949 18.2043 88.0241 18.8851C88.6534 19.566 89.4188 19.9064 90.3202 19.9064C91.0005 19.9064 91.5872 19.7362 92.0804 19.3957C92.5907 19.0553 92.9308 18.5702 93.1009 17.9404H96.5449C96.2388 19.3702 95.533 20.5191 94.4275 21.3872C93.322 22.2553 91.9614 22.6894 90.3457 22.6894Z" fill="#F9F9F9"/>
<path d="M101.204 7.75319C100.608 7.75319 100.115 7.57447 99.7239 7.21702C99.3497 6.85957 99.1626 6.40851 99.1626 5.86383C99.1626 5.31915 99.3497 4.8766 99.7239 4.53617C100.115 4.17872 100.608 4 101.204 4C101.799 4 102.283 4.17872 102.658 4.53617C103.049 4.8766 103.244 5.31915 103.244 5.86383C103.244 6.40851 103.049 6.85957 102.658 7.21702C102.283 7.57447 101.799 7.75319 101.204 7.75319ZM99.5708 22.383V9.71915H102.836V22.383H99.5708Z" fill="#F9F9F9"/>
<path d="M106.831 22.383V12.4511H105.097V9.71915H106.831V8.2383C106.831 6.70638 107.214 5.61702 107.979 4.97021C108.762 4.3234 109.816 4 111.143 4H112.546V6.78298H111.653C111.092 6.78298 110.692 6.89362 110.454 7.11489C110.216 7.33617 110.097 7.71064 110.097 8.2383V9.71915H112.827V12.4511H110.097V22.383H106.831Z" fill="#F9F9F9"/>
<path d="M116.994 28L119.928 21.5404H119.163L114.239 9.71915H117.785L121.331 18.6298L125.03 9.71915H128.5L120.464 28H116.994Z" fill="#F9F9F9"/>
</svg>
