<svg width="32" height="32" viewBox="0 0 32 32" fill="none" xmlns="http://www.w3.org/2000/svg">
<path d="M22.6667 17.8667V21.8667C22.6667 27.2 20.5333 29.3333 15.2 29.3333H10.1333C4.80001 29.3333 2.66667 27.2 2.66667 21.8667V16.8C2.66667 11.4667 4.80001 9.33333 10.1333 9.33333H14.1333" stroke="#F9F9F9" stroke-width="1.5" stroke-linecap="round" stroke-linejoin="round"/>
<path d="M22.6667 17.8667H18.4C15.2 17.8667 14.1333 16.8 14.1333 13.6V9.33333L22.6667 17.8667Z" stroke="#F9F9F9" stroke-width="1.5" stroke-linecap="round" stroke-linejoin="round"/>
<path d="M15.4667 2.66667H20.8" stroke="#F9F9F9" stroke-width="1.5" stroke-linecap="round" stroke-linejoin="round"/>
<path d="M9.33333 6.66667C9.33333 4.45334 11.12 2.66667 13.3333 2.66667H16.8267" stroke="#F9F9F9" stroke-width="1.5" stroke-linecap="round" stroke-linejoin="round"/>
<path d="M29.3333 10.6667V18.92C29.3333 20.9867 27.6533 22.6667 25.5867 22.6667" stroke="#F9F9F9" stroke-width="1.5" stroke-linecap="round" stroke-linejoin="round"/>
<path d="M29.3333 10.6667H25.3333C22.3333 10.6667 21.3333 9.66667 21.3333 6.66667V2.66667L29.3333 10.6667Z" stroke="#F9F9F9" stroke-width="1.5" stroke-linecap="round" stroke-linejoin="round"/>
</svg>
