<svg width="128" height="32" viewBox="0 0 128 32" fill="none" xmlns="http://www.w3.org/2000/svg">
<path fill-rule="evenodd" clip-rule="evenodd" d="M10.6667 0C4.77563 0 0 4.77563 0 10.6667V21.3333C0 27.2244 4.77563 32 10.6667 32H21.3333C27.2244 32 32 27.2244 32 21.3333V10.6667C32 4.77563 27.2244 0 21.3333 0H10.6667ZM9.33333 8H14.6667V24H9.33333V8ZM17.3333 8H22.6667V16H17.3333V8Z" fill="#A535F1"/>
<path d="M40 22.383V4.51064H46.6074C48.0361 4.51064 49.2181 4.74894 50.1535 5.22553C51.0889 5.70213 51.7862 6.35745 52.2454 7.19149C52.7046 8.02553 52.9342 8.9617 52.9342 10C52.9342 10.9872 52.7131 11.8979 52.2709 12.7319C51.8287 13.5489 51.1399 14.2128 50.2045 14.7234C49.2691 15.217 48.0701 15.4638 46.6074 15.4638H43.2654V22.383H40ZM43.2654 12.8085H46.4033C47.5428 12.8085 48.3592 12.5617 48.8524 12.0681C49.3626 11.5574 49.6178 10.8681 49.6178 10C49.6178 9.11489 49.3626 8.42553 48.8524 7.93191C48.3592 7.42128 47.5428 7.16596 46.4033 7.16596H43.2654V12.8085Z" fill="#251B2C"/>
<path d="M60.8435 22.6894C59.619 22.6894 58.5135 22.4085 57.5271 21.8468C56.5576 21.2851 55.7838 20.5106 55.2055 19.5234C54.6443 18.5191 54.3637 17.3617 54.3637 16.0511C54.3637 14.7404 54.6528 13.5915 55.231 12.6043C55.8093 11.6 56.5831 10.817 57.5526 10.2553C58.539 9.69362 59.6445 9.41277 60.869 9.41277C62.0766 9.41277 63.1651 9.69362 64.1345 10.2553C65.1209 10.817 65.8948 11.6 66.456 12.6043C67.0343 13.5915 67.3234 14.7404 67.3234 16.0511C67.3234 17.3617 67.0343 18.5191 66.456 19.5234C65.8948 20.5106 65.1209 21.2851 64.1345 21.8468C63.148 22.4085 62.0511 22.6894 60.8435 22.6894ZM60.8435 19.8553C61.6939 19.8553 62.4337 19.5404 63.063 18.9106C63.6923 18.2638 64.0069 17.3106 64.0069 16.0511C64.0069 14.7915 63.6923 13.8468 63.063 13.217C62.4337 12.5702 61.7024 12.2468 60.869 12.2468C60.0017 12.2468 59.2533 12.5702 58.624 13.217C58.0118 13.8468 57.7056 14.7915 57.7056 16.0511C57.7056 17.3106 58.0118 18.2638 58.624 18.9106C59.2533 19.5404 59.9931 19.8553 60.8435 19.8553Z" fill="#251B2C"/>
<path d="M70.243 22.383V4H73.5085V22.383H70.243Z" fill="#251B2C"/>
<path d="M78.6054 7.75319C78.0101 7.75319 77.5169 7.57447 77.1257 7.21702C76.7515 6.85957 76.5645 6.40851 76.5645 5.86383C76.5645 5.31915 76.7515 4.8766 77.1257 4.53617C77.5169 4.17872 78.0101 4 78.6054 4C79.2006 4 79.6853 4.17872 80.0595 4.53617C80.4507 4.8766 80.6463 5.31915 80.6463 5.86383C80.6463 6.40851 80.4507 6.85957 80.0595 7.21702C79.6853 7.57447 79.2006 7.75319 78.6054 7.75319ZM76.9726 22.383V9.71915H80.2381V22.383H76.9726Z" fill="#251B2C"/>
<path d="M89.8457 22.6894C88.5531 22.6894 87.4136 22.4085 86.4272 21.8468C85.4407 21.2851 84.6584 20.5021 84.0801 19.4979C83.5189 18.4936 83.2382 17.3447 83.2382 16.0511C83.2382 14.7574 83.5189 13.6085 84.0801 12.6043C84.6584 11.6 85.4407 10.817 86.4272 10.2553C87.4136 9.69362 88.5531 9.41277 89.8457 9.41277C91.4614 9.41277 92.822 9.8383 93.9275 10.6894C95.033 11.5234 95.7388 12.6809 96.0449 14.1617H92.6009C92.4308 13.5489 92.0907 13.0723 91.5804 12.7319C91.0872 12.3745 90.5005 12.1957 89.8202 12.1957C88.9188 12.1957 88.1534 12.5362 87.5241 13.217C86.8949 13.8979 86.5802 14.8426 86.5802 16.0511C86.5802 17.2596 86.8949 18.2043 87.5241 18.8851C88.1534 19.566 88.9188 19.9064 89.8202 19.9064C90.5005 19.9064 91.0872 19.7362 91.5804 19.3957C92.0907 19.0553 92.4308 18.5702 92.6009 17.9404H96.0449C95.7388 19.3702 95.033 20.5191 93.9275 21.3872C92.822 22.2553 91.4614 22.6894 89.8457 22.6894Z" fill="#251B2C"/>
<path d="M100.704 7.75319C100.108 7.75319 99.615 7.57447 99.2239 7.21702C98.8497 6.85957 98.6626 6.40851 98.6626 5.86383C98.6626 5.31915 98.8497 4.8766 99.2239 4.53617C99.615 4.17872 100.108 4 100.704 4C101.299 4 101.783 4.17872 102.158 4.53617C102.549 4.8766 102.744 5.31915 102.744 5.86383C102.744 6.40851 102.549 6.85957 102.158 7.21702C101.783 7.57447 101.299 7.75319 100.704 7.75319ZM99.0708 22.383V9.71915H102.336V22.383H99.0708Z" fill="#251B2C"/>
<path d="M106.331 22.383V12.4511H104.597V9.71915H106.331V8.2383C106.331 6.70638 106.714 5.61702 107.479 4.97021C108.262 4.3234 109.316 4 110.643 4H112.046V6.78298H111.153C110.592 6.78298 110.192 6.89362 109.954 7.11489C109.716 7.33617 109.597 7.71064 109.597 8.2383V9.71915H112.327V12.4511H109.597V22.383H106.331Z" fill="#251B2C"/>
<path d="M116.494 28L119.428 21.5404H118.663L113.739 9.71915H117.285L120.831 18.6298L124.53 9.71915H128L119.964 28H116.494Z" fill="#251B2C"/>
</svg>
