<svg xmlns="http://www.w3.org/2000/svg" x="0px" y="0px"
width="64" height="64"
viewBox="0 0 64 64"
style=" fill:#000000;"><linearGradient id="JOZq0V4XPxMzNaLCE5XPGa_44003_gr1" x1="37.646" x2="37.646" y1="14.5" y2="56.878" gradientUnits="userSpaceOnUse" spreadMethod="reflect"><stop offset="0" stop-color="#6dc7ff"></stop><stop offset="1" stop-color="#e6abff"></stop></linearGradient><path fill="url(#JOZq0V4XPxMzNaLCE5XPGa_44003_gr1)" d="M42,56V38h5.358l0.934-8H42v-4.457c0-2.097-0.131-3.527,2.877-3.527L48,22.014v-6.479 c-1-0.088-2.487-0.285-5.136-0.285c-5.531,0-8.864,3.376-8.864,9.576V30h-7v8h7v18H42z"></path><linearGradient id="JOZq0V4XPxMzNaLCE5XPGb_44003_gr2" x1="32" x2="32" y1="6.833" y2="58.017" gradientUnits="userSpaceOnUse" spreadMethod="reflect"><stop offset="0" stop-color="#1a6dff"></stop><stop offset="1" stop-color="#c822ff"></stop></linearGradient><path fill="url(#JOZq0V4XPxMzNaLCE5XPGb_44003_gr2)" d="M50,57H14c-3.859,0-7-3.141-7-7V14c0-3.859,3.141-7,7-7h36c3.859,0,7,3.141,7,7v36 C57,53.859,53.859,57,50,57z M14,9c-2.757,0-5,2.243-5,5v36c0,2.757,2.243,5,5,5h36c2.757,0,5-2.243,5-5V14c0-2.757-2.243-5-5-5H14z"></path></svg>