<svg width="64" height="64" viewBox="0 0 64 64" fill="none" xmlns="http://www.w3.org/2000/svg">
<rect width="64" height="64" rx="32" fill="#111827"/>
<mask id="mask0_332_2566" style="mask-type:alpha" maskUnits="userSpaceOnUse" x="17" y="17" width="30" height="30">
<rect x="17" y="17" width="30" height="30" fill="#D9D9D9"/>
</mask>
<g mask="url(#mask0_332_2566)">
<path d="M34.5 33.25C33.4583 33.25 32.5729 32.8854 31.8438 32.1562C31.1146 31.4271 30.75 30.5417 30.75 29.5C30.75 28.4583 31.1146 27.5729 31.8438 26.8438C32.5729 26.1146 33.4583 25.75 34.5 25.75C35.5417 25.75 36.4271 26.1146 37.1562 26.8438C37.8854 27.5729 38.25 28.4583 38.25 29.5C38.25 30.5417 37.8854 31.4271 37.1562 32.1562C36.4271 32.8854 35.5417 33.25 34.5 33.25ZM25.75 37C25.0625 37 24.4742 36.755 23.985 36.265C23.495 35.7758 23.25 35.1875 23.25 34.5V24.5C23.25 23.8125 23.495 23.2242 23.985 22.735C24.4742 22.245 25.0625 22 25.75 22H43.25C43.9375 22 44.5263 22.245 45.0163 22.735C45.5054 23.2242 45.75 23.8125 45.75 24.5V34.5C45.75 35.1875 45.5054 35.7758 45.0163 36.265C44.5263 36.755 43.9375 37 43.25 37H25.75ZM28.25 34.5H40.75C40.75 33.8125 40.9946 33.2238 41.4837 32.7337C41.9737 32.2446 42.5625 32 43.25 32V27C42.5625 27 41.9737 26.755 41.4837 26.265C40.9946 25.7758 40.75 25.1875 40.75 24.5H28.25C28.25 25.1875 28.005 25.7758 27.515 26.265C27.0258 26.755 26.4375 27 25.75 27V32C26.4375 32 27.0258 32.2446 27.515 32.7337C28.005 33.2238 28.25 33.8125 28.25 34.5ZM42 42H20.75C20.0625 42 19.4742 41.7554 18.985 41.2663C18.495 40.7763 18.25 40.1875 18.25 39.5V25.75H20.75V39.5H42V42Z" fill="white"/>
</g>
</svg>
