<svg width="198" height="48" viewBox="0 0 198 48" fill="none" xmlns="http://www.w3.org/2000/svg">
<path fill-rule="evenodd" clip-rule="evenodd" d="M16 0C7.16344 0 0 7.16344 0 16V32C0 40.8366 7.16344 48 16 48H32C40.8366 48 48 40.8366 48 32V16C48 7.16344 40.8366 0 32 0H16ZM14 12H22V36H14V12ZM26 12H34V24H26V12Z" fill="#A535F1"/>
<path d="M60 34.1064V5.80851H70.3616C72.602 5.80851 74.4556 6.18581 75.9225 6.94042C77.3894 7.69503 78.4829 8.73262 79.203 10.0532C79.9232 11.3738 80.2832 12.856 80.2832 14.5C80.2832 16.0631 79.9365 17.505 79.2431 18.8255C78.5496 20.1191 77.4694 21.1702 76.0025 21.9787C74.5356 22.7603 72.6553 23.1511 70.3616 23.1511H65.1208V34.1064H60ZM65.1208 18.9468H70.0416C71.8285 18.9468 73.1087 18.556 73.8822 17.7745C74.6823 16.966 75.0824 15.8745 75.0824 14.5C75.0824 13.0986 74.6823 12.0071 73.8822 11.2255C73.1087 10.417 71.8285 10.0128 70.0416 10.0128H65.1208V18.9468Z" fill="#251B2C"/>
<path d="M92.6864 34.5915C90.7661 34.5915 89.0325 34.1468 87.4856 33.2574C85.9654 32.3681 84.7518 31.1418 83.845 29.5787C82.9649 27.9887 82.5248 26.156 82.5248 24.0809C82.5248 22.0057 82.9782 20.1865 83.885 18.6234C84.7918 17.0333 86.0054 15.7936 87.5256 14.9043C89.0725 14.0149 90.8061 13.5702 92.7264 13.5702C94.6201 13.5702 96.327 14.0149 97.8473 14.9043C99.3942 15.7936 100.608 17.0333 101.488 18.6234C102.395 20.1865 102.848 22.0057 102.848 24.0809C102.848 26.156 102.395 27.9887 101.488 29.5787C100.608 31.1418 99.3942 32.3681 97.8473 33.2574C96.3003 34.1468 94.5801 34.5915 92.6864 34.5915ZM92.6864 30.1043C94.02 30.1043 95.1802 29.6057 96.167 28.6085C97.1538 27.5844 97.6472 26.0752 97.6472 24.0809C97.6472 22.0865 97.1538 20.5908 96.167 19.5936C95.1802 18.5695 94.0333 18.0574 92.7264 18.0574C91.3662 18.0574 90.1927 18.5695 89.2059 19.5936C88.2457 20.5908 87.7657 22.0865 87.7657 24.0809C87.7657 26.0752 88.2457 27.5844 89.2059 28.6085C90.1927 29.6057 91.3529 30.1043 92.6864 30.1043Z" fill="#251B2C"/>
<path d="M107.427 34.1064V5H112.547V34.1064H107.427Z" fill="#251B2C"/>
<path d="M120.54 10.9426C119.607 10.9426 118.833 10.6596 118.22 10.0936C117.633 9.52766 117.34 8.81348 117.34 7.95106C117.34 7.08865 117.633 6.38794 118.22 5.84893C118.833 5.28298 119.607 5 120.54 5C121.474 5 122.234 5.28298 122.821 5.84893C123.434 6.38794 123.741 7.08865 123.741 7.95106C123.741 8.81348 123.434 9.52766 122.821 10.0936C122.234 10.6596 121.474 10.9426 120.54 10.9426ZM117.98 34.1064V14.0553H123.101V34.1064H117.98Z" fill="#251B2C"/>
<path d="M138.167 34.5915C136.14 34.5915 134.353 34.1468 132.806 33.2574C131.259 32.3681 130.032 31.1284 129.126 29.5383C128.246 27.9482 127.805 26.1291 127.805 24.0809C127.805 22.0326 128.246 20.2135 129.126 18.6234C130.032 17.0333 131.259 15.7936 132.806 14.9043C134.353 14.0149 136.14 13.5702 138.167 13.5702C140.701 13.5702 142.834 14.244 144.568 15.5915C146.302 16.9121 147.409 18.7447 147.889 21.0894H142.488C142.221 20.1191 141.688 19.3645 140.888 18.8255C140.114 18.2596 139.194 17.9766 138.127 17.9766C136.714 17.9766 135.513 18.5156 134.527 19.5936C133.54 20.6716 133.046 22.1674 133.046 24.0809C133.046 25.9943 133.54 27.4901 134.527 28.5681C135.513 29.6461 136.714 30.1851 138.127 30.1851C139.194 30.1851 140.114 29.9156 140.888 29.3766C141.688 28.8376 142.221 28.0695 142.488 27.0723H147.889C147.409 29.3362 146.302 31.1553 144.568 32.5298C142.834 33.9043 140.701 34.5915 138.167 34.5915Z" fill="#251B2C"/>
<path d="M155.194 10.9426C154.261 10.9426 153.487 10.6596 152.874 10.0936C152.287 9.52766 151.994 8.81348 151.994 7.95106C151.994 7.08865 152.287 6.38794 152.874 5.84893C153.487 5.28298 154.261 5 155.194 5C156.128 5 156.888 5.28298 157.475 5.84893C158.088 6.38794 158.395 7.08865 158.395 7.95106C158.395 8.81348 158.088 9.52766 157.475 10.0936C156.888 10.6596 156.128 10.9426 155.194 10.9426ZM152.634 34.1064V14.0553H157.755V34.1064H152.634Z" fill="#251B2C"/>
<path d="M164.02 34.1064V18.3808H161.299V14.0553H164.02V11.7106C164.02 9.28511 164.62 7.56028 165.82 6.53617C167.047 5.51206 168.7 5 170.781 5H172.981V9.40638H171.581C170.701 9.40638 170.074 9.58156 169.701 9.93191C169.327 10.2823 169.14 10.8752 169.14 11.7106V14.0553H173.421V18.3808H169.14V34.1064H164.02Z" fill="#251B2C"/>
<path d="M179.957 43L184.558 32.7723H183.358L175.636 14.0553H181.197L186.758 28.1638L192.559 14.0553H198L185.398 43H179.957Z" fill="#251B2C"/>
</svg>
