<svg width="64" height="65" viewBox="0 0 64 65" fill="none" xmlns="http://www.w3.org/2000/svg">
<rect y="0.0107422" width="64" height="64" rx="32" fill="#111827"/>
<mask id="mask0_332_2197" style="mask-type:alpha" maskUnits="userSpaceOnUse" x="17" y="17" width="30" height="31">
<rect x="17" y="17.0107" width="30" height="30" fill="#D9D9D9"/>
</mask>
<g mask="url(#mask0_332_2197)">
<path d="M32 44.5107C30.2917 44.5107 28.6771 44.1824 27.1562 43.5257C25.6354 42.8699 24.3075 41.9741 23.1725 40.8382C22.0367 39.7032 21.1408 38.3753 20.485 36.8545C19.8283 35.3337 19.5 33.7191 19.5 32.0107C19.5 30.2816 19.8283 28.662 20.485 27.152C21.1408 25.6412 22.0367 24.3182 23.1725 23.1832C24.3075 22.0474 25.6354 21.1512 27.1562 20.4945C28.6771 19.8387 30.2917 19.5107 32 19.5107C33.7292 19.5107 35.3488 19.8387 36.8587 20.4945C38.3696 21.1512 39.6925 22.0474 40.8275 23.1832C41.9633 24.3182 42.8592 25.6412 43.515 27.152C44.1717 28.662 44.5 30.2816 44.5 32.0107C44.5 33.7191 44.1717 35.3337 43.515 36.8545C42.8592 38.3753 41.9633 39.7032 40.8275 40.8382C39.6925 41.9741 38.3696 42.8699 36.8587 43.5257C35.3488 44.1824 33.7292 44.5107 32 44.5107ZM32 41.9482C32.5417 41.1982 33.0104 40.417 33.4062 39.6045C33.8021 38.792 34.125 37.9274 34.375 37.0107H29.625C29.875 37.9274 30.1979 38.792 30.5938 39.6045C30.9896 40.417 31.4583 41.1982 32 41.9482ZM28.75 41.4482C28.375 40.7607 28.0471 40.047 27.7662 39.307C27.4846 38.5678 27.25 37.8024 27.0625 37.0107H23.375C23.9792 38.0524 24.7342 38.9587 25.64 39.7295C26.5467 40.5003 27.5833 41.0732 28.75 41.4482ZM35.25 41.4482C36.4167 41.0732 37.4529 40.5003 38.3587 39.7295C39.2654 38.9587 40.0208 38.0524 40.625 37.0107H36.9375C36.75 37.8024 36.5158 38.5678 36.235 39.307C35.9533 40.047 35.625 40.7607 35.25 41.4482ZM22.3125 34.5107H26.5625C26.5 34.0941 26.4529 33.6824 26.4213 33.2757C26.3904 32.8699 26.375 32.4482 26.375 32.0107C26.375 31.5732 26.3904 31.1516 26.4213 30.7457C26.4529 30.3391 26.5 29.9274 26.5625 29.5107H22.3125C22.2083 29.9274 22.13 30.3391 22.0775 30.7457C22.0258 31.1516 22 31.5732 22 32.0107C22 32.4482 22.0258 32.8699 22.0775 33.2757C22.13 33.6824 22.2083 34.0941 22.3125 34.5107ZM29.0625 34.5107H34.9375C35 34.0941 35.0471 33.6824 35.0788 33.2757C35.1096 32.8699 35.125 32.4482 35.125 32.0107C35.125 31.5732 35.1096 31.1516 35.0788 30.7457C35.0471 30.3391 35 29.9274 34.9375 29.5107H29.0625C29 29.9274 28.9533 30.3391 28.9225 30.7457C28.8908 31.1516 28.875 31.5732 28.875 32.0107C28.875 32.4482 28.8908 32.8699 28.9225 33.2757C28.9533 33.6824 29 34.0941 29.0625 34.5107ZM37.4375 34.5107H41.6875C41.7917 34.0941 41.87 33.6824 41.9225 33.2757C41.9742 32.8699 42 32.4482 42 32.0107C42 31.5732 41.9742 31.1516 41.9225 30.7457C41.87 30.3391 41.7917 29.9274 41.6875 29.5107H37.4375C37.5 29.9274 37.5467 30.3391 37.5775 30.7457C37.6092 31.1516 37.625 31.5732 37.625 32.0107C37.625 32.4482 37.6092 32.8699 37.5775 33.2757C37.5467 33.6824 37.5 34.0941 37.4375 34.5107ZM36.9375 27.0107H40.625C40.0208 25.9691 39.2654 25.0628 38.3587 24.292C37.4529 23.5212 36.4167 22.9482 35.25 22.5732C35.625 23.2607 35.9533 23.9741 36.235 24.7132C36.5158 25.4532 36.75 26.2191 36.9375 27.0107ZM29.625 27.0107H34.375C34.125 26.0941 33.8021 25.2295 33.4062 24.417C33.0104 23.6045 32.5417 22.8232 32 22.0732C31.4583 22.8232 30.9896 23.6045 30.5938 24.417C30.1979 25.2295 29.875 26.0941 29.625 27.0107ZM23.375 27.0107H27.0625C27.25 26.2191 27.4846 25.4532 27.7662 24.7132C28.0471 23.9741 28.375 23.2607 28.75 22.5732C27.5833 22.9482 26.5467 23.5212 25.64 24.292C24.7342 25.0628 23.9792 25.9691 23.375 27.0107Z" fill="white"/>
</g>
</svg>
