<svg width="64" height="65" viewBox="0 0 64 65" fill="none" xmlns="http://www.w3.org/2000/svg">
<rect y="0.0107422" width="64" height="64" rx="32" fill="#111827"/>
<mask id="mask0_332_2215" style="mask-type:alpha" maskUnits="userSpaceOnUse" x="17" y="17" width="30" height="31">
<rect x="17" y="17.0107" width="30" height="30" fill="#D9D9D9"/>
</mask>
<g mask="url(#mask0_332_2215)">
<path d="M27 45.7607C26.3125 45.7607 25.7242 45.5162 25.235 45.027C24.745 44.537 24.5 43.9482 24.5 43.2607V38.2607H27V39.5107H39.5V24.5107H27V25.7607H24.5V20.7607C24.5 20.0732 24.745 19.4845 25.235 18.9945C25.7242 18.5053 26.3125 18.2607 27 18.2607H39.5C40.1875 18.2607 40.7763 18.5053 41.2663 18.9945C41.7554 19.4845 42 20.0732 42 20.7607V43.2607C42 43.9482 41.7554 44.537 41.2663 45.027C40.7763 45.5162 40.1875 45.7607 39.5 45.7607H27ZM27 42.0107V43.2607H39.5V42.0107H27ZM22.5 38.2607L20.75 36.5107L27.75 29.5107H23.25V27.0107H32V35.7607H29.5V31.2607L22.5 38.2607ZM27 22.0107H39.5V20.7607H27V22.0107Z" fill="white"/>
</g>
</svg>
