<svg width="64" height="65" viewBox="0 0 64 65" fill="none" xmlns="http://www.w3.org/2000/svg">
<rect y="0.0107422" width="64" height="64" rx="32" fill="#111827"/>
<mask id="mask0_332_2206" style="mask-type:alpha" maskUnits="userSpaceOnUse" x="17" y="17" width="30" height="31">
<rect x="17" y="17.0107" width="30" height="30" fill="#D9D9D9"/>
</mask>
<g mask="url(#mask0_332_2206)">
<path d="M34.5 33.2607C33.4583 33.2607 32.5729 32.8962 31.8438 32.167C31.1146 31.4378 30.75 30.5524 30.75 29.5107C30.75 28.4691 31.1146 27.5837 31.8438 26.8545C32.5729 26.1253 33.4583 25.7607 34.5 25.7607C35.5417 25.7607 36.4271 26.1253 37.1562 26.8545C37.8854 27.5837 38.25 28.4691 38.25 29.5107C38.25 30.5524 37.8854 31.4378 37.1562 32.167C36.4271 32.8962 35.5417 33.2607 34.5 33.2607ZM25.75 37.0107C25.0625 37.0107 24.4742 36.7657 23.985 36.2757C23.495 35.7866 23.25 35.1982 23.25 34.5107V24.5107C23.25 23.8232 23.495 23.2349 23.985 22.7457C24.4742 22.2557 25.0625 22.0107 25.75 22.0107H43.25C43.9375 22.0107 44.5263 22.2557 45.0163 22.7457C45.5054 23.2349 45.75 23.8232 45.75 24.5107V34.5107C45.75 35.1982 45.5054 35.7866 45.0163 36.2757C44.5263 36.7657 43.9375 37.0107 43.25 37.0107H25.75ZM28.25 34.5107H40.75C40.75 33.8232 40.9946 33.2345 41.4837 32.7445C41.9737 32.2553 42.5625 32.0107 43.25 32.0107V27.0107C42.5625 27.0107 41.9737 26.7657 41.4837 26.2757C40.9946 25.7866 40.75 25.1982 40.75 24.5107H28.25C28.25 25.1982 28.005 25.7866 27.515 26.2757C27.0258 26.7657 26.4375 27.0107 25.75 27.0107V32.0107C26.4375 32.0107 27.0258 32.2553 27.515 32.7445C28.005 33.2345 28.25 33.8232 28.25 34.5107ZM42 42.0107H20.75C20.0625 42.0107 19.4742 41.7662 18.985 41.277C18.495 40.787 18.25 40.1982 18.25 39.5107V25.7607H20.75V39.5107H42V42.0107Z" fill="white"/>
</g>
</svg>
