<svg width="64" height="64" viewBox="0 0 64 64" fill="none" xmlns="http://www.w3.org/2000/svg">
<rect width="64" height="64" rx="32" fill="#111827"/>
<mask id="mask0_332_2575" style="mask-type:alpha" maskUnits="userSpaceOnUse" x="17" y="17" width="30" height="30">
<rect x="17" y="17" width="30" height="30" fill="#D9D9D9"/>
</mask>
<g mask="url(#mask0_332_2575)">
<path d="M27 45.75C26.3125 45.75 25.7242 45.5054 25.235 45.0163C24.745 44.5263 24.5 43.9375 24.5 43.25V38.25H27V39.5H39.5V24.5H27V25.75H24.5V20.75C24.5 20.0625 24.745 19.4737 25.235 18.9837C25.7242 18.4946 26.3125 18.25 27 18.25H39.5C40.1875 18.25 40.7763 18.4946 41.2663 18.9837C41.7554 19.4737 42 20.0625 42 20.75V43.25C42 43.9375 41.7554 44.5263 41.2663 45.0163C40.7763 45.5054 40.1875 45.75 39.5 45.75H27ZM27 42V43.25H39.5V42H27ZM22.5 38.25L20.75 36.5L27.75 29.5H23.25V27H32V35.75H29.5V31.25L22.5 38.25ZM27 22H39.5V20.75H27V22Z" fill="white"/>
</g>
</svg>
