<svg width="177" height="48" viewBox="0 0 177 48" fill="none" xmlns="http://www.w3.org/2000/svg">
<path fill-rule="evenodd" clip-rule="evenodd" d="M14.2222 2.6665C6.36751 2.6665 0 9.03401 0 16.8887V31.1109C0 38.9657 6.36751 45.3332 14.2222 45.3332H28.4444C36.2992 45.3332 42.6667 38.9657 42.6667 31.1109V16.8887C42.6667 9.03401 36.2992 2.6665 28.4444 2.6665H14.2222ZM12.4444 13.3332H19.5556V34.6665H12.4444V13.3332ZM23.1111 13.3332H30.2222V23.9998H23.1111V13.3332Z" fill="#A535F1"/>
<path d="M53.166 32.9837V7.83H62.3764C64.3678 7.83 66.0155 8.16539 67.3194 8.83615C68.6233 9.50691 69.5953 10.4292 70.2354 11.6031C70.8755 12.7769 71.1955 14.0945 71.1955 15.5558C71.1955 16.9452 70.8873 18.2269 70.271 19.4007C69.6546 20.5506 68.6944 21.4849 67.3905 22.2035C66.0866 22.8982 64.4152 23.2456 62.3764 23.2456H57.7178V32.9837H53.166ZM57.7178 19.5085H62.0919C63.6803 19.5085 64.8182 19.1611 65.5058 18.4664C66.217 17.7477 66.5726 16.7775 66.5726 15.5558C66.5726 14.3101 66.217 13.3399 65.5058 12.6451C64.8182 11.9265 63.6803 11.5671 62.0919 11.5671H57.7178V19.5085Z" fill="#F9F9F9"/>
<path d="M82.2206 33.4149C80.5137 33.4149 78.9727 33.0196 77.5977 32.2291C76.2463 31.4385 75.1677 30.3485 74.3616 28.9591C73.5793 27.5457 73.1881 25.9167 73.1881 24.0721C73.1881 22.2275 73.5911 20.6105 74.3972 19.221C75.2032 17.8076 76.2819 16.7057 77.6332 15.9151C79.0083 15.1246 80.5492 14.7293 82.2562 14.7293C83.9394 14.7293 85.4567 15.1246 86.808 15.9151C88.1831 16.7057 89.2617 17.8076 90.0441 19.221C90.8501 20.6105 91.2532 22.2275 91.2532 24.0721C91.2532 25.9167 90.8501 27.5457 90.0441 28.9591C89.2617 30.3485 88.1831 31.4385 86.808 32.2291C85.433 33.0196 83.9039 33.4149 82.2206 33.4149ZM82.2206 29.4262C83.406 29.4262 84.4373 28.983 85.3144 28.0967C86.1916 27.1863 86.6302 25.8448 86.6302 24.0721C86.6302 22.2993 86.1916 20.9698 85.3144 20.0834C84.4373 19.1731 83.4179 18.7179 82.2562 18.7179C81.0471 18.7179 80.004 19.1731 79.1268 20.0834C78.2733 20.9698 77.8466 22.2993 77.8466 24.0721C77.8466 25.8448 78.2733 27.1863 79.1268 28.0967C80.004 28.983 81.0353 29.4262 82.2206 29.4262Z" fill="#F9F9F9"/>
<path d="M95.323 32.9837V7.11133H99.8748V32.9837H95.323Z" fill="#F9F9F9"/>
<path d="M106.98 12.3936C106.15 12.3936 105.462 12.1421 104.917 11.639C104.395 11.1359 104.135 10.5011 104.135 9.7345C104.135 8.96791 104.395 8.34506 104.917 7.86594C105.462 7.36286 106.15 7.11133 106.98 7.11133C107.809 7.11133 108.485 7.36286 109.007 7.86594C109.552 8.34506 109.824 8.96791 109.824 9.7345C109.824 10.5011 109.552 11.1359 109.007 11.639C108.485 12.1421 107.809 12.3936 106.98 12.3936ZM104.704 32.9837V15.1605H109.255V32.9837H104.704Z" fill="#F9F9F9"/>
<path d="M122.648 33.4149C120.846 33.4149 119.258 33.0196 117.883 32.2291C116.508 31.4385 115.417 30.3365 114.611 28.9231C113.829 27.5098 113.438 25.8927 113.438 24.0721C113.438 22.2514 113.829 20.6344 114.611 19.221C115.417 17.8076 116.508 16.7057 117.883 15.9151C119.258 15.1246 120.846 14.7293 122.648 14.7293C124.9 14.7293 126.797 15.3282 128.338 16.526C129.879 17.6998 130.863 19.3288 131.289 21.413H126.488C126.251 20.5506 125.777 19.8798 125.066 19.4007C124.379 18.8976 123.561 18.6461 122.612 18.6461C121.356 18.6461 120.289 19.1252 119.412 20.0834C118.535 21.0417 118.096 22.3712 118.096 24.0721C118.096 25.773 118.535 27.1025 119.412 28.0607C120.289 29.019 121.356 29.4981 122.612 29.4981C123.561 29.4981 124.379 29.2585 125.066 28.7794C125.777 28.3003 126.251 27.6176 126.488 26.7312H131.289C130.863 28.7435 129.879 30.3605 128.338 31.5823C126.797 32.804 124.9 33.4149 122.648 33.4149Z" fill="#F9F9F9"/>
<path d="M137.783 12.3936C136.953 12.3936 136.266 12.1421 135.72 11.639C135.199 11.1359 134.938 10.5011 134.938 9.7345C134.938 8.96791 135.199 8.34506 135.72 7.86594C136.266 7.36286 136.953 7.11133 137.783 7.11133C138.613 7.11133 139.288 7.36286 139.81 7.86594C140.355 8.34506 140.628 8.96791 140.628 9.7345C140.628 10.5011 140.355 11.1359 139.81 11.639C139.288 12.1421 138.613 12.3936 137.783 12.3936ZM135.507 32.9837V15.1605H140.059V32.9837H135.507Z" fill="#F9F9F9"/>
<path d="M145.628 32.9837V19.0054H143.21V15.1605H145.628V13.0763C145.628 10.9203 146.161 9.38714 147.228 8.47681C148.319 7.56649 149.789 7.11133 151.638 7.11133H153.594V11.0281H152.349C151.567 11.0281 151.009 11.1838 150.678 11.4953C150.346 11.8067 150.18 12.3337 150.18 13.0763V15.1605H153.985V19.0054H150.18V32.9837H145.628Z" fill="#F9F9F9"/>
<path d="M159.795 40.8891L163.884 31.7979H162.817L155.954 15.1605H160.897L165.84 27.7014L170.996 15.1605H175.833L164.631 40.8891H159.795Z" fill="#F9F9F9"/>
</svg>
