<svg width="64" height="64" viewBox="0 0 64 64" fill="none" xmlns="http://www.w3.org/2000/svg">
<rect width="64" height="64" rx="32" fill="#111827"/>
<mask id="mask0_332_2557" style="mask-type:alpha" maskUnits="userSpaceOnUse" x="17" y="17" width="30" height="30">
<rect x="17" y="17" width="30" height="30" fill="#D9D9D9"/>
</mask>
<g mask="url(#mask0_332_2557)">
<path d="M32 44.5C30.2917 44.5 28.6771 44.1717 27.1562 43.515C25.6354 42.8592 24.3075 41.9633 23.1725 40.8275C22.0367 39.6925 21.1408 38.3646 20.485 36.8438C19.8283 35.3229 19.5 33.7083 19.5 32C19.5 30.2708 19.8283 28.6512 20.485 27.1412C21.1408 25.6304 22.0367 24.3075 23.1725 23.1725C24.3075 22.0367 25.6354 21.1404 27.1562 20.4837C28.6771 19.8279 30.2917 19.5 32 19.5C33.7292 19.5 35.3488 19.8279 36.8587 20.4837C38.3696 21.1404 39.6925 22.0367 40.8275 23.1725C41.9633 24.3075 42.8592 25.6304 43.515 27.1412C44.1717 28.6512 44.5 30.2708 44.5 32C44.5 33.7083 44.1717 35.3229 43.515 36.8438C42.8592 38.3646 41.9633 39.6925 40.8275 40.8275C39.6925 41.9633 38.3696 42.8592 36.8587 43.515C35.3488 44.1717 33.7292 44.5 32 44.5ZM32 41.9375C32.5417 41.1875 33.0104 40.4062 33.4062 39.5938C33.8021 38.7813 34.125 37.9167 34.375 37H29.625C29.875 37.9167 30.1979 38.7813 30.5938 39.5938C30.9896 40.4062 31.4583 41.1875 32 41.9375ZM28.75 41.4375C28.375 40.75 28.0471 40.0362 27.7662 39.2962C27.4846 38.5571 27.25 37.7917 27.0625 37H23.375C23.9792 38.0417 24.7342 38.9479 25.64 39.7188C26.5467 40.4896 27.5833 41.0625 28.75 41.4375ZM35.25 41.4375C36.4167 41.0625 37.4529 40.4896 38.3587 39.7188C39.2654 38.9479 40.0208 38.0417 40.625 37H36.9375C36.75 37.7917 36.5158 38.5571 36.235 39.2962C35.9533 40.0362 35.625 40.75 35.25 41.4375ZM22.3125 34.5H26.5625C26.5 34.0833 26.4529 33.6717 26.4213 33.265C26.3904 32.8592 26.375 32.4375 26.375 32C26.375 31.5625 26.3904 31.1408 26.4213 30.735C26.4529 30.3283 26.5 29.9167 26.5625 29.5H22.3125C22.2083 29.9167 22.13 30.3283 22.0775 30.735C22.0258 31.1408 22 31.5625 22 32C22 32.4375 22.0258 32.8592 22.0775 33.265C22.13 33.6717 22.2083 34.0833 22.3125 34.5ZM29.0625 34.5H34.9375C35 34.0833 35.0471 33.6717 35.0788 33.265C35.1096 32.8592 35.125 32.4375 35.125 32C35.125 31.5625 35.1096 31.1408 35.0788 30.735C35.0471 30.3283 35 29.9167 34.9375 29.5H29.0625C29 29.9167 28.9533 30.3283 28.9225 30.735C28.8908 31.1408 28.875 31.5625 28.875 32C28.875 32.4375 28.8908 32.8592 28.9225 33.265C28.9533 33.6717 29 34.0833 29.0625 34.5ZM37.4375 34.5H41.6875C41.7917 34.0833 41.87 33.6717 41.9225 33.265C41.9742 32.8592 42 32.4375 42 32C42 31.5625 41.9742 31.1408 41.9225 30.735C41.87 30.3283 41.7917 29.9167 41.6875 29.5H37.4375C37.5 29.9167 37.5467 30.3283 37.5775 30.735C37.6092 31.1408 37.625 31.5625 37.625 32C37.625 32.4375 37.6092 32.8592 37.5775 33.265C37.5467 33.6717 37.5 34.0833 37.4375 34.5ZM36.9375 27H40.625C40.0208 25.9583 39.2654 25.0521 38.3587 24.2812C37.4529 23.5104 36.4167 22.9375 35.25 22.5625C35.625 23.25 35.9533 23.9633 36.235 24.7025C36.5158 25.4425 36.75 26.2083 36.9375 27ZM29.625 27H34.375C34.125 26.0833 33.8021 25.2188 33.4062 24.4062C33.0104 23.5938 32.5417 22.8125 32 22.0625C31.4583 22.8125 30.9896 23.5938 30.5938 24.4062C30.1979 25.2188 29.875 26.0833 29.625 27ZM23.375 27H27.0625C27.25 26.2083 27.4846 25.4425 27.7662 24.7025C28.0471 23.9633 28.375 23.25 28.75 22.5625C27.5833 22.9375 26.5467 23.5104 25.64 24.2812C24.7342 25.0521 23.9792 25.9583 23.375 27Z" fill="white"/>
</g>
</svg>
