<svg width="123" height="56" viewBox="0 0 123 56" fill="none" xmlns="http://www.w3.org/2000/svg">
<rect width="123" height="56" fill="white"/>
<path d="M12.1207 28.78C12.0507 28.77 11.9607 28.77 11.8807 28.78C10.1207 28.72 8.7207 27.28 8.7207 25.51C8.7207 23.7 10.1807 22.23 12.0007 22.23C13.8107 22.23 15.2807 23.7 15.2807 25.51C15.2707 27.28 13.8807 28.72 12.1207 28.78Z" stroke="#251B2C" stroke-width="1.5" stroke-linecap="round" stroke-linejoin="round"/>
<path d="M18.7398 35.3801C16.9598 37.0101 14.5998 38.0001 11.9998 38.0001C9.39977 38.0001 7.03977 37.0101 5.25977 35.3801C5.35977 34.4401 5.95977 33.5201 7.02977 32.8001C9.76977 30.9801 14.2498 30.9801 16.9698 32.8001C18.0398 33.5201 18.6398 34.4401 18.7398 35.3801Z" stroke="#251B2C" stroke-width="1.5" stroke-linecap="round" stroke-linejoin="round"/>
<path d="M12 38C17.5228 38 22 33.5228 22 28C22 22.4772 17.5228 18 12 18C6.47715 18 2 22.4772 2 28C2 33.5228 6.47715 38 12 38Z" stroke="#251B2C" stroke-width="1.5" stroke-linecap="round" stroke-linejoin="round"/>
<path d="M35.4091 22.3636H37.0909L41.0455 32.0227H41.1818L45.1364 22.3636H46.8182V34H45.5V25.1591H45.3864L41.75 34H40.4773L36.8409 25.1591H36.7273V34H35.4091V22.3636ZM50.3253 37.2727C50.098 37.2727 49.8954 37.2538 49.7173 37.2159C49.5393 37.1818 49.4162 37.1477 49.348 37.1136L49.6889 35.9318C50.0147 36.0152 50.3026 36.0455 50.5526 36.0227C50.8026 36 51.0241 35.8883 51.2173 35.6875C51.4143 35.4905 51.5942 35.1705 51.7571 34.7273L52.0071 34.0455L48.7798 25.2727H50.2344L52.6435 32.2273H52.7344L55.1435 25.2727H56.598L52.8935 35.2727C52.7268 35.7235 52.5204 36.0966 52.2741 36.392C52.0279 36.6913 51.742 36.9129 51.4162 37.0568C51.0942 37.2008 50.7306 37.2727 50.3253 37.2727ZM65.4361 34.2045C64.883 34.2045 64.3812 34.1004 63.9304 33.892C63.4796 33.6799 63.1217 33.375 62.8565 32.9773C62.5914 32.5758 62.4588 32.0909 62.4588 31.5227C62.4588 31.0227 62.5573 30.6174 62.7543 30.3068C62.9512 29.9924 63.2145 29.7462 63.544 29.5682C63.8736 29.3902 64.2372 29.2576 64.6349 29.1705C65.0365 29.0795 65.4399 29.0076 65.8452 28.9545C66.3755 28.8864 66.8054 28.8352 67.1349 28.8011C67.4683 28.7633 67.7107 28.7008 67.8622 28.6136C68.0175 28.5265 68.0952 28.375 68.0952 28.1591V28.1136C68.0952 27.553 67.9418 27.1174 67.6349 26.8068C67.3319 26.4962 66.8717 26.3409 66.2543 26.3409C65.6141 26.3409 65.1122 26.4811 64.7486 26.7614C64.3849 27.0417 64.1293 27.3409 63.9815 27.6591L62.7088 27.2045C62.9361 26.6742 63.2391 26.2614 63.6179 25.9659C64.0005 25.6667 64.4171 25.4583 64.8679 25.3409C65.3224 25.2197 65.7694 25.1591 66.2088 25.1591C66.4891 25.1591 66.8111 25.1932 67.1747 25.2614C67.5421 25.3258 67.8963 25.4602 68.2372 25.6648C68.5819 25.8693 68.8679 26.178 69.0952 26.5909C69.3224 27.0038 69.4361 27.5568 69.4361 28.25V34H68.0952V32.8182H68.027C67.9361 33.0076 67.7846 33.2102 67.5724 33.4261C67.3603 33.642 67.0781 33.8258 66.7259 33.9773C66.3736 34.1288 65.9437 34.2045 65.4361 34.2045ZM65.6406 33C66.1709 33 66.6179 32.8958 66.9815 32.6875C67.349 32.4792 67.6255 32.2102 67.8111 31.8807C68.0005 31.5511 68.0952 31.2045 68.0952 30.8409V29.6136C68.0384 29.6818 67.9134 29.7443 67.7202 29.8011C67.5308 29.8542 67.3111 29.9015 67.0611 29.9432C66.8149 29.9811 66.5743 30.0152 66.3395 30.0455C66.1084 30.072 65.9209 30.0947 65.777 30.1136C65.4285 30.1591 65.1027 30.233 64.7997 30.3352C64.5005 30.4337 64.258 30.5833 64.0724 30.7841C63.8906 30.9811 63.7997 31.25 63.7997 31.5909C63.7997 32.0568 63.9721 32.4091 64.3168 32.6477C64.6652 32.8826 65.1065 33 65.6406 33ZM75.429 34.1818C74.6108 34.1818 73.9063 33.9886 73.3153 33.6023C72.7244 33.2159 72.2699 32.6837 71.9517 32.0057C71.6335 31.3277 71.4744 30.553 71.4744 29.6818C71.4744 28.7955 71.6373 28.0133 71.9631 27.3352C72.2926 26.6534 72.7509 26.1212 73.3381 25.7386C73.929 25.3523 74.6184 25.1591 75.4062 25.1591C76.0199 25.1591 76.5729 25.2727 77.0653 25.5C77.5578 25.7273 77.9612 26.0455 78.2756 26.4545C78.59 26.8636 78.785 27.3409 78.8608 27.8864H77.5199C77.4176 27.4886 77.1903 27.1364 76.8381 26.8295C76.4896 26.5189 76.0199 26.3636 75.429 26.3636C74.9063 26.3636 74.4479 26.5 74.054 26.7727C73.6638 27.0417 73.3589 27.4223 73.1392 27.9148C72.9233 28.4034 72.8153 28.9773 72.8153 29.6364C72.8153 30.3106 72.9214 30.8977 73.1335 31.3977C73.3494 31.8977 73.6525 32.286 74.0426 32.5625C74.4366 32.839 74.8987 32.9773 75.429 32.9773C75.7775 32.9773 76.0938 32.9167 76.3778 32.7955C76.6619 32.6742 76.9025 32.5 77.0994 32.2727C77.2964 32.0455 77.4366 31.7727 77.5199 31.4545H78.8608C78.785 31.9697 78.5975 32.4337 78.2983 32.8466C78.0028 33.2557 77.6108 33.5814 77.1222 33.8239C76.6373 34.0625 76.0729 34.1818 75.429 34.1818ZM84.3665 34.1818C83.5483 34.1818 82.8438 33.9886 82.2528 33.6023C81.6619 33.2159 81.2074 32.6837 80.8892 32.0057C80.571 31.3277 80.4119 30.553 80.4119 29.6818C80.4119 28.7955 80.5748 28.0133 80.9006 27.3352C81.2301 26.6534 81.6884 26.1212 82.2756 25.7386C82.8665 25.3523 83.5559 25.1591 84.3438 25.1591C84.9574 25.1591 85.5104 25.2727 86.0028 25.5C86.4953 25.7273 86.8987 26.0455 87.2131 26.4545C87.5275 26.8636 87.7225 27.3409 87.7983 27.8864H86.4574C86.3551 27.4886 86.1278 27.1364 85.7756 26.8295C85.4271 26.5189 84.9574 26.3636 84.3665 26.3636C83.8438 26.3636 83.3854 26.5 82.9915 26.7727C82.6013 27.0417 82.2964 27.4223 82.0767 27.9148C81.8608 28.4034 81.7528 28.9773 81.7528 29.6364C81.7528 30.3106 81.8589 30.8977 82.071 31.3977C82.2869 31.8977 82.59 32.286 82.9801 32.5625C83.3741 32.839 83.8362 32.9773 84.3665 32.9773C84.715 32.9773 85.0312 32.9167 85.3153 32.7955C85.5994 32.6742 85.84 32.5 86.0369 32.2727C86.2339 32.0455 86.3741 31.7727 86.4574 31.4545H87.7983C87.7225 31.9697 87.535 32.4337 87.2358 32.8466C86.9403 33.2557 86.5483 33.5814 86.0597 33.8239C85.5748 34.0625 85.0104 34.1818 84.3665 34.1818ZM93.304 34.1818C92.5161 34.1818 91.8248 33.9943 91.2301 33.6193C90.6392 33.2443 90.1771 32.7197 89.8438 32.0455C89.5142 31.3712 89.3494 30.5833 89.3494 29.6818C89.3494 28.7727 89.5142 27.9792 89.8438 27.3011C90.1771 26.6231 90.6392 26.0966 91.2301 25.7216C91.8248 25.3466 92.5161 25.1591 93.304 25.1591C94.0919 25.1591 94.7813 25.3466 95.3722 25.7216C95.9669 26.0966 96.429 26.6231 96.7585 27.3011C97.0919 27.9792 97.2585 28.7727 97.2585 29.6818C97.2585 30.5833 97.0919 31.3712 96.7585 32.0455C96.429 32.7197 95.9669 33.2443 95.3722 33.6193C94.7813 33.9943 94.0919 34.1818 93.304 34.1818ZM93.304 32.9773C93.9025 32.9773 94.3949 32.8239 94.7812 32.517C95.1676 32.2102 95.4536 31.8068 95.6392 31.3068C95.8248 30.8068 95.9176 30.2652 95.9176 29.6818C95.9176 29.0985 95.8248 28.5549 95.6392 28.0511C95.4536 27.5473 95.1676 27.1402 94.7812 26.8295C94.3949 26.5189 93.9025 26.3636 93.304 26.3636C92.7055 26.3636 92.2131 26.5189 91.8267 26.8295C91.4403 27.1402 91.1544 27.5473 90.9688 28.0511C90.7831 28.5549 90.6903 29.0985 90.6903 29.6818C90.6903 30.2652 90.7831 30.8068 90.9688 31.3068C91.1544 31.8068 91.4403 32.2102 91.8267 32.517C92.2131 32.8239 92.7055 32.9773 93.304 32.9773ZM104.805 30.4318V25.2727H106.146V34H104.805V32.5227H104.714C104.51 32.9659 104.192 33.3428 103.76 33.6534C103.328 33.9602 102.783 34.1136 102.124 34.1136C101.578 34.1136 101.093 33.9943 100.669 33.7557C100.245 33.5133 99.9115 33.1496 99.669 32.6648C99.4266 32.1761 99.3054 31.5606 99.3054 30.8182V25.2727H100.646V30.7273C100.646 31.3636 100.824 31.8712 101.18 32.25C101.54 32.6288 101.999 32.8182 102.555 32.8182C102.889 32.8182 103.228 32.733 103.572 32.5625C103.921 32.392 104.213 32.1307 104.447 31.7784C104.686 31.4261 104.805 30.9773 104.805 30.4318ZM109.943 28.75V34H108.602V25.2727H109.898V26.6364H110.011C110.216 26.1932 110.527 25.8371 110.943 25.5682C111.36 25.2955 111.898 25.1591 112.557 25.1591C113.148 25.1591 113.665 25.2803 114.108 25.5227C114.551 25.7614 114.896 26.125 115.142 26.6136C115.388 27.0985 115.511 27.7121 115.511 28.4545V34H114.17V28.5455C114.17 27.8598 113.992 27.3258 113.636 26.9432C113.28 26.5568 112.792 26.3636 112.17 26.3636C111.742 26.3636 111.36 26.4564 111.023 26.642C110.689 26.8277 110.426 27.0985 110.233 27.4545C110.04 27.8106 109.943 28.2424 109.943 28.75ZM121.757 25.2727V26.4091H117.234V25.2727H121.757ZM118.553 23.1818H119.893V31.5C119.893 31.8788 119.948 32.1629 120.058 32.3523C120.172 32.5379 120.316 32.6629 120.49 32.7273C120.668 32.7879 120.856 32.8182 121.053 32.8182C121.2 32.8182 121.321 32.8106 121.416 32.7955C121.511 32.7765 121.587 32.7614 121.643 32.75L121.916 33.9545C121.825 33.9886 121.698 34.0227 121.536 34.0568C121.373 34.0947 121.166 34.1136 120.916 34.1136C120.537 34.1136 120.166 34.0322 119.803 33.8693C119.443 33.7064 119.143 33.4583 118.905 33.125C118.67 32.7917 118.553 32.3712 118.553 31.8636V23.1818Z" fill="#251B2C"/>
</svg>
