<svg width="87" height="56" viewBox="0 0 87 56" fill="none" xmlns="http://www.w3.org/2000/svg">
<rect width="87" height="56" fill="white"/>
<path d="M8.90039 23.5602C9.21039 19.9602 11.0604 18.4902 15.1104 18.4902H15.2404C19.7104 18.4902 21.5004 20.2802 21.5004 24.7502V31.2702C21.5004 35.7402 19.7104 37.5302 15.2404 37.5302H15.1104C11.0904 37.5302 9.24039 36.0802 8.91039 32.5402" stroke="#251B2C" stroke-width="1.5" stroke-linecap="round" stroke-linejoin="round"/>
<path d="M14.9991 28H3.61914" stroke="#251B2C" stroke-width="1.5" stroke-linecap="round" stroke-linejoin="round"/>
<path d="M5.85 24.6499L2.5 27.9999L5.85 31.3499" stroke="#251B2C" stroke-width="1.5" stroke-linecap="round" stroke-linejoin="round"/>
<path d="M35.4091 34V22.3636H36.8182V32.75H42.2273V34H35.4091ZM47.7727 34.1818C46.9848 34.1818 46.2936 33.9943 45.6989 33.6193C45.108 33.2443 44.6458 32.7197 44.3125 32.0455C43.983 31.3712 43.8182 30.5833 43.8182 29.6818C43.8182 28.7727 43.983 27.9792 44.3125 27.3011C44.6458 26.6231 45.108 26.0966 45.6989 25.7216C46.2936 25.3466 46.9848 25.1591 47.7727 25.1591C48.5606 25.1591 49.25 25.3466 49.8409 25.7216C50.4356 26.0966 50.8977 26.6231 51.2273 27.3011C51.5606 27.9792 51.7273 28.7727 51.7273 29.6818C51.7273 30.5833 51.5606 31.3712 51.2273 32.0455C50.8977 32.7197 50.4356 33.2443 49.8409 33.6193C49.25 33.9943 48.5606 34.1818 47.7727 34.1818ZM47.7727 32.9773C48.3712 32.9773 48.8636 32.8239 49.25 32.517C49.6364 32.2102 49.9223 31.8068 50.108 31.3068C50.2936 30.8068 50.3864 30.2652 50.3864 29.6818C50.3864 29.0985 50.2936 28.5549 50.108 28.0511C49.9223 27.5473 49.6364 27.1402 49.25 26.8295C48.8636 26.5189 48.3712 26.3636 47.7727 26.3636C47.1742 26.3636 46.6818 26.5189 46.2955 26.8295C45.9091 27.1402 45.6231 27.5473 45.4375 28.0511C45.2519 28.5549 45.1591 29.0985 45.1591 29.6818C45.1591 30.2652 45.2519 30.8068 45.4375 31.3068C45.6231 31.8068 45.9091 32.2102 46.2955 32.517C46.6818 32.8239 47.1742 32.9773 47.7727 32.9773ZM57.2969 37.4545C56.6491 37.4545 56.0923 37.3712 55.6264 37.2045C55.1605 37.0417 54.7723 36.8258 54.4616 36.5568C54.1548 36.2917 53.9105 36.0076 53.7287 35.7045L54.7969 34.9545C54.9181 35.1136 55.0715 35.2955 55.2571 35.5C55.4427 35.7083 55.6965 35.8883 56.0185 36.0398C56.3442 36.1951 56.7704 36.2727 57.2969 36.2727C58.0014 36.2727 58.5829 36.1023 59.0412 35.7614C59.4995 35.4205 59.7287 34.8864 59.7287 34.1591V32.3864H59.6151C59.5166 32.5455 59.3764 32.7424 59.1946 32.9773C59.0166 33.2083 58.759 33.4148 58.4219 33.5966C58.0885 33.7746 57.6378 33.8636 57.0696 33.8636C56.3651 33.8636 55.7325 33.697 55.1719 33.3636C54.6151 33.0303 54.1738 32.5455 53.848 31.9091C53.526 31.2727 53.3651 30.5 53.3651 29.5909C53.3651 28.697 53.5223 27.9186 53.8366 27.2557C54.151 26.589 54.5885 26.0739 55.1491 25.7102C55.7098 25.3428 56.3575 25.1591 57.0923 25.1591C57.6605 25.1591 58.1113 25.2538 58.4446 25.4432C58.7817 25.6288 59.0393 25.8409 59.2173 26.0795C59.3991 26.3144 59.5393 26.5076 59.6378 26.6591H59.7741V25.2727H61.0696V34.25C61.0696 35 60.8991 35.6098 60.5582 36.0795C60.2211 36.553 59.7666 36.8996 59.1946 37.1193C58.6264 37.3428 57.9938 37.4545 57.2969 37.4545ZM57.2514 32.6591C57.7893 32.6591 58.2438 32.536 58.6151 32.2898C58.9863 32.0436 59.2685 31.6894 59.4616 31.2273C59.6548 30.7652 59.7514 30.2121 59.7514 29.5682C59.7514 28.9394 59.6567 28.3845 59.4673 27.9034C59.2779 27.4223 58.9976 27.0455 58.6264 26.7727C58.2552 26.5 57.7969 26.3636 57.2514 26.3636C56.6832 26.3636 56.2098 26.5076 55.831 26.7955C55.456 27.0833 55.1738 27.4697 54.9844 27.9545C54.7988 28.4394 54.706 28.9773 54.706 29.5682C54.706 30.1742 54.8007 30.7102 54.9901 31.1761C55.1832 31.6383 55.4673 32.0019 55.8423 32.267C56.2211 32.5284 56.6908 32.6591 57.2514 32.6591ZM67.0696 34.1818C66.2817 34.1818 65.5904 33.9943 64.9957 33.6193C64.4048 33.2443 63.9427 32.7197 63.6094 32.0455C63.2798 31.3712 63.1151 30.5833 63.1151 29.6818C63.1151 28.7727 63.2798 27.9792 63.6094 27.3011C63.9427 26.6231 64.4048 26.0966 64.9957 25.7216C65.5904 25.3466 66.2817 25.1591 67.0696 25.1591C67.8575 25.1591 68.5469 25.3466 69.1378 25.7216C69.7325 26.0966 70.1946 26.6231 70.5241 27.3011C70.8575 27.9792 71.0241 28.7727 71.0241 29.6818C71.0241 30.5833 70.8575 31.3712 70.5241 32.0455C70.1946 32.7197 69.7325 33.2443 69.1378 33.6193C68.5469 33.9943 67.8575 34.1818 67.0696 34.1818ZM67.0696 32.9773C67.6681 32.9773 68.1605 32.8239 68.5469 32.517C68.9332 32.2102 69.2192 31.8068 69.4048 31.3068C69.5904 30.8068 69.6832 30.2652 69.6832 29.6818C69.6832 29.0985 69.5904 28.5549 69.4048 28.0511C69.2192 27.5473 68.9332 27.1402 68.5469 26.8295C68.1605 26.5189 67.6681 26.3636 67.0696 26.3636C66.4711 26.3636 65.9787 26.5189 65.5923 26.8295C65.206 27.1402 64.92 27.5473 64.7344 28.0511C64.5488 28.5549 64.456 29.0985 64.456 29.6818C64.456 30.2652 64.5488 30.8068 64.7344 31.3068C64.92 31.8068 65.206 32.2102 65.5923 32.517C65.9787 32.8239 66.4711 32.9773 67.0696 32.9773ZM78.571 30.4318V25.2727H79.9119V34H78.571V32.5227H78.4801C78.2756 32.9659 77.9574 33.3428 77.5256 33.6534C77.0938 33.9602 76.5483 34.1136 75.8892 34.1136C75.3438 34.1136 74.8589 33.9943 74.4347 33.7557C74.0104 33.5133 73.6771 33.1496 73.4347 32.6648C73.1922 32.1761 73.071 31.5606 73.071 30.8182V25.2727H74.4119V30.7273C74.4119 31.3636 74.59 31.8712 74.946 32.25C75.3059 32.6288 75.7642 32.8182 76.321 32.8182C76.6544 32.8182 76.9934 32.733 77.3381 32.5625C77.6866 32.392 77.9782 32.1307 78.2131 31.7784C78.4517 31.4261 78.571 30.9773 78.571 30.4318ZM86.1634 25.2727V26.4091H81.6406V25.2727H86.1634ZM82.9588 23.1818H84.2997V31.5C84.2997 31.8788 84.3546 32.1629 84.4645 32.3523C84.5781 32.5379 84.7221 32.6629 84.8963 32.7273C85.0743 32.7879 85.2618 32.8182 85.4588 32.8182C85.6065 32.8182 85.7277 32.8106 85.8224 32.7955C85.9171 32.7765 85.9929 32.7614 86.0497 32.75L86.3224 33.9545C86.2315 33.9886 86.1046 34.0227 85.9418 34.0568C85.7789 34.0947 85.5724 34.1136 85.3224 34.1136C84.9437 34.1136 84.5724 34.0322 84.2088 33.8693C83.849 33.7064 83.5497 33.4583 83.3111 33.125C83.0762 32.7917 82.9588 32.3712 82.9588 31.8636V23.1818Z" fill="#251B2C"/>
</svg>



