<svg width="40" height="40" viewBox="0 0 40 40" fill="none" xmlns="http://www.w3.org/2000/svg">
<path d="M20 3.3335C11.7358 3.3335 5 10.0693 5 18.3335C5 26.5977 11.7358 33.3335 20 33.3335V38.4865L22.5651 36.8426C26.2915 34.4526 33.0868 29.2924 34.6647 21.4715C34.8807 20.4628 35 19.4131 35 18.3335C35 10.0693 28.2642 3.3335 20 3.3335ZM20 6.66683C26.4625 6.66683 31.6667 11.871 31.6667 18.3335C31.6667 19.1738 31.5744 19.9925 31.403 20.7879L31.3997 20.8009L31.3965 20.8107C30.4062 25.7241 26.6193 29.3422 23.3333 31.898V29.6649L21.4583 29.8993C20.9568 29.9619 20.4732 30.0002 20 30.0002C13.5375 30.0002 8.33333 24.796 8.33333 18.3335C8.33333 11.871 13.5375 6.66683 20 6.66683Z" fill="white"/>
</svg>

