<svg width="24" height="24" viewBox="0 0 24 24" fill="none" xmlns="http://www.w3.org/2000/svg">
<mask id="mask0_522_4931" style="mask-type:alpha" maskUnits="userSpaceOnUse" x="0" y="0" width="24" height="24">
<rect width="24" height="24" fill="#D9D9D9"/>
</mask>
<g mask="url(#mask0_522_4931)">
<path d="M12 19.2746C11.5833 19.2746 11.2293 19.1286 10.938 18.8366C10.646 18.5453 10.5 18.1913 10.5 17.7746C10.5 17.3579 10.646 17.0036 10.938 16.7116C11.2293 16.4203 11.5833 16.2746 12 16.2746C12.4167 16.2746 12.7707 16.4203 13.062 16.7116C13.354 17.0036 13.5 17.3579 13.5 17.7746C13.5 18.1913 13.354 18.5453 13.062 18.8366C12.7707 19.1286 12.4167 19.2746 12 19.2746ZM12 13.4996C11.5833 13.4996 11.2293 13.3536 10.938 13.0616C10.646 12.7703 10.5 12.4163 10.5 11.9996C10.5 11.5829 10.646 11.2289 10.938 10.9376C11.2293 10.6456 11.5833 10.4996 12 10.4996C12.4167 10.4996 12.7707 10.6456 13.062 10.9376C13.354 11.2289 13.5 11.5829 13.5 11.9996C13.5 12.4163 13.354 12.7703 13.062 13.0616C12.7707 13.3536 12.4167 13.4996 12 13.4996ZM12 7.72461C11.5833 7.72461 11.2293 7.57861 10.938 7.28661C10.646 6.99528 10.5 6.64128 10.5 6.22461C10.5 5.80794 10.646 5.45361 10.938 5.16161C11.2293 4.87028 11.5833 4.72461 12 4.72461C12.4167 4.72461 12.7707 4.87028 13.062 5.16161C13.354 5.45361 13.5 5.80794 13.5 6.22461C13.5 6.64128 13.354 6.99528 13.062 7.28661C12.7707 7.57861 12.4167 7.72461 12 7.72461Z" fill="#1C1B1F"/>
</g>
</svg>
