<svg width="64" height="64" viewBox="0 0 64 64" fill="none" xmlns="http://www.w3.org/2000/svg">
<rect width="64" height="64" rx="32" fill="#A535F1"/>
<path d="M32 15.3335C23.7358 15.3335 17 22.0693 17 30.3335C17 38.5977 23.7358 45.3335 32 45.3335V50.4865L34.5651 48.8426C38.2915 46.4526 45.0868 41.2924 46.6647 33.4715C46.8807 32.4628 47 31.4131 47 30.3335C47 22.0693 40.2642 15.3335 32 15.3335ZM32 18.6668C38.4625 18.6668 43.6667 23.871 43.6667 30.3335C43.6667 31.1738 43.5744 31.9925 43.403 32.7879L43.3997 32.8009L43.3965 32.8107C42.4062 37.7241 38.6193 41.3422 35.3333 43.898V41.6649L33.4583 41.8993C32.9568 41.9619 32.4732 42.0002 32 42.0002C25.5375 42.0002 20.3333 36.796 20.3333 30.3335C20.3333 23.871 25.5375 18.6668 32 18.6668Z" fill="white"/>
</svg>
