<svg width="44" height="44" viewBox="0 0 44 44" fill="none" xmlns="http://www.w3.org/2000/svg">
<path d="M21.9948 31.375C19.4337 31.375 19.1318 31.3615 18.1324 31.3178C17.353 31.2922 16.5837 31.134 15.8576 30.85C14.6013 30.3618 13.6079 29.3695 13.1195 28.1149C12.846 27.3872 12.6985 26.6184 12.6833 25.8413C12.625 24.8454 12.625 24.5189 12.625 21.9813C12.625 19.4166 12.6385 19.1172 12.6833 18.1244C12.6989 17.3484 12.8464 16.5806 13.1195 15.854C13.6074 14.5976 14.6024 13.6045 15.8607 13.1178C16.5881 12.8435 17.3571 12.6958 18.1344 12.6811C19.1287 12.625 19.4556 12.625 21.9948 12.625C24.5767 12.625 24.8734 12.6385 25.8572 12.6811C26.6366 12.696 27.4077 12.8436 28.1372 13.1178C29.3952 13.605 30.39 14.598 30.8784 15.854C31.1565 16.5912 31.3048 17.371 31.3167 18.1587C31.375 19.1546 31.375 19.48 31.375 22.0166C31.375 24.5532 31.3604 24.8859 31.3167 25.8704C31.3012 26.6482 31.1533 27.4177 30.8794 28.146C30.3898 29.4016 29.3949 30.3942 28.1372 30.8822C27.4087 31.1548 26.6392 31.3021 25.8614 31.3178C24.8672 31.375 24.5413 31.375 21.9948 31.375ZM21.9594 14.2707C19.4129 14.2707 19.1485 14.2831 18.1542 14.3278C17.5608 14.3357 16.9731 14.445 16.4166 14.6512C15.595 14.9651 14.9448 15.6117 14.627 16.4309C14.419 16.9926 14.3095 17.5859 14.3032 18.1847C14.2481 19.1921 14.2481 19.4561 14.2481 21.9813C14.2481 24.4763 14.2574 24.7788 14.3032 25.7799C14.3126 26.3727 14.422 26.9597 14.627 27.5161C14.9452 28.3347 15.5953 28.9808 16.4166 29.2948C16.9727 29.5023 17.5606 29.6117 18.1542 29.6181C19.162 29.6763 19.4275 29.6763 21.9594 29.6763C24.5132 29.6763 24.7776 29.6638 25.7635 29.6181C26.3574 29.6109 26.9455 29.5015 27.5022 29.2948C28.3189 28.9781 28.9648 28.3335 29.2824 27.5181C29.49 26.956 29.5995 26.3624 29.6062 25.7633H29.6176C29.6624 24.7695 29.6624 24.5044 29.6624 21.9647C29.6624 19.4249 29.651 19.1578 29.6062 18.165C29.5969 17.5729 29.4874 16.9866 29.2824 16.4309C28.9655 15.6144 28.3195 14.9685 27.5022 14.6512C26.9456 14.444 26.3574 14.3346 25.7635 14.3278C24.7568 14.2707 24.4934 14.2707 21.9594 14.2707ZM21.9948 26.7831C20.0479 26.7844 18.2921 25.6144 17.5461 23.8187C16.8001 22.0231 17.2109 19.9555 18.5869 18.5802C19.963 17.205 22.0332 16.793 23.8321 17.5364C25.631 18.2797 26.8042 20.032 26.8046 21.9761C26.8018 24.6281 24.6507 26.778 21.9948 26.7831ZM21.9948 18.8552C20.2699 18.8552 18.8715 20.2516 18.8715 21.974C18.8715 23.6965 20.2699 25.0928 21.9948 25.0928C23.7197 25.0928 25.1181 23.6965 25.1181 21.974C25.1141 20.2532 23.7181 18.8592 21.9948 18.8552ZM26.992 18.114C26.373 18.1117 25.8727 17.6094 25.8739 16.9913C25.875 16.3732 26.3772 15.8727 26.9962 15.8727C27.6152 15.8727 28.1173 16.3731 28.1185 16.9913C28.1188 17.2895 28.0001 17.5755 27.7887 17.7862C27.5774 17.9969 27.2907 18.1149 26.992 18.114Z" fill="#F9F9F9"/>
</svg>
