<svg width="44" height="44" viewBox="0 0 44 44" fill="none" xmlns="http://www.w3.org/2000/svg">
<path fill-rule="evenodd" clip-rule="evenodd" d="M16.811 15.1533C16.811 16.1908 16.021 17.0305 14.7855 17.0305C13.5982 17.0305 12.8081 16.1908 12.8326 15.1533C12.8081 14.0652 13.5981 13.25 14.8092 13.25C16.021 13.25 16.7873 14.0652 16.811 15.1533ZM12.9319 30.5993V18.5136H16.688V30.5986H12.9319V30.5993Z" fill="#F9F9F9"/>
<path fill-rule="evenodd" clip-rule="evenodd" d="M19.697 22.3705C19.697 20.8631 19.6473 19.5779 19.5977 18.5151H22.8602L23.0336 20.1708H23.1077C23.6021 19.4045 24.8375 18.2439 26.8394 18.2439C29.3103 18.2439 31.1639 19.8751 31.1639 23.4326V30.6009H27.4078V23.9032C27.4078 22.3453 26.8646 21.2833 25.5053 21.2833C24.467 21.2833 23.8496 22 23.6028 22.6914C23.5035 22.939 23.4546 23.2843 23.4546 23.6312V30.6009H19.6985V22.3705H19.697Z" fill="#F9F9F9"/>
</svg>
