<svg width="32" height="32" viewBox="0 0 32 32" fill="none" xmlns="http://www.w3.org/2000/svg">
<path d="M29.3334 22.32V6.22667C29.3334 4.62667 28.0267 3.44 26.44 3.57334H26.36C23.56 3.81334 19.3067 5.24 16.9334 6.73334L16.7067 6.88C16.32 7.12 15.68 7.12 15.2934 6.88L14.96 6.68C12.5867 5.2 8.34669 3.78667 5.54669 3.56C3.96002 3.42667 2.66669 4.62667 2.66669 6.21334V22.32C2.66669 23.6 3.70669 24.8 4.98669 24.96L5.37335 25.0133C8.26669 25.4 12.7334 26.8667 15.2934 28.2667L15.3467 28.2933C15.7067 28.4933 16.28 28.4933 16.6267 28.2933C19.1867 26.88 23.6667 25.4 26.5734 25.0133L27.0134 24.96C28.2934 24.8 29.3334 23.6 29.3334 22.32Z" stroke="#F9F9F9" stroke-width="1.5" stroke-linecap="round" stroke-linejoin="round"/>
<path d="M16 7.32001V27.32" stroke="#F9F9F9" stroke-width="1.5" stroke-linecap="round" stroke-linejoin="round"/>
<path d="M10.3333 11.32H7.33331" stroke="#F9F9F9" stroke-width="1.5" stroke-linecap="round" stroke-linejoin="round"/>
<path d="M11.3333 15.32H7.33331" stroke="#F9F9F9" stroke-width="1.5" stroke-linecap="round" stroke-linejoin="round"/>
</svg>
