<svg width="343" height="429" viewBox="0 0 343 429" fill="none" xmlns="http://www.w3.org/2000/svg">
<rect width="343" height="1" fill="#E0E0E0"/>
<path fill-rule="evenodd" clip-rule="evenodd" d="M118.167 25C112.276 25 107.5 29.7756 107.5 35.6667V46.3333C107.5 52.2244 112.276 57 118.167 57H128.833C134.724 57 139.5 52.2244 139.5 46.3333V35.6667C139.5 29.7756 134.724 25 128.833 25H118.167ZM116.833 33H122.167V49H116.833V33ZM124.833 33H130.167V41H124.833V33Z" fill="#A535F1"/>
<path d="M147.5 47.383V29.5106H154.107C155.536 29.5106 156.718 29.7489 157.653 30.2255C158.589 30.7021 159.286 31.3574 159.745 32.1915C160.205 33.0255 160.434 33.9617 160.434 35C160.434 35.9872 160.213 36.8979 159.771 37.7319C159.329 38.5489 158.64 39.2128 157.705 39.7234C156.769 40.217 155.57 40.4638 154.107 40.4638H150.765V47.383H147.5ZM150.765 37.8085H153.903C155.043 37.8085 155.859 37.5617 156.352 37.0681C156.863 36.5574 157.118 35.8681 157.118 35C157.118 34.1149 156.863 33.4255 156.352 32.9319C155.859 32.4213 155.043 32.166 153.903 32.166H150.765V37.8085Z" fill="#F9F9F9"/>
<path d="M168.344 47.6894C167.119 47.6894 166.013 47.4085 165.027 46.8468C164.058 46.2851 163.284 45.5106 162.706 44.5234C162.144 43.5191 161.864 42.3617 161.864 41.0511C161.864 39.7404 162.153 38.5915 162.731 37.6043C163.309 36.6 164.083 35.817 165.053 35.2553C166.039 34.6936 167.144 34.4128 168.369 34.4128C169.577 34.4128 170.665 34.6936 171.634 35.2553C172.621 35.817 173.395 36.6 173.956 37.6043C174.534 38.5915 174.823 39.7404 174.823 41.0511C174.823 42.3617 174.534 43.5191 173.956 44.5234C173.395 45.5106 172.621 46.2851 171.634 46.8468C170.648 47.4085 169.551 47.6894 168.344 47.6894ZM168.344 44.8553C169.194 44.8553 169.934 44.5404 170.563 43.9106C171.192 43.2638 171.507 42.3106 171.507 41.0511C171.507 39.7915 171.192 38.8468 170.563 38.217C169.934 37.5702 169.202 37.2468 168.369 37.2468C167.502 37.2468 166.753 37.5702 166.124 38.217C165.512 38.8468 165.206 39.7915 165.206 41.0511C165.206 42.3106 165.512 43.2638 166.124 43.9106C166.753 44.5404 167.493 44.8553 168.344 44.8553Z" fill="#F9F9F9"/>
<path d="M177.743 47.383V29H181.008V47.383H177.743Z" fill="#F9F9F9"/>
<path d="M186.105 32.7532C185.51 32.7532 185.017 32.5745 184.626 32.217C184.252 31.8596 184.064 31.4085 184.064 30.8638C184.064 30.3191 184.252 29.8766 184.626 29.5362C185.017 29.1787 185.51 29 186.105 29C186.701 29 187.185 29.1787 187.56 29.5362C187.951 29.8766 188.146 30.3191 188.146 30.8638C188.146 31.4085 187.951 31.8596 187.56 32.217C187.185 32.5745 186.701 32.7532 186.105 32.7532ZM184.473 47.383V34.7191H187.738V47.383H184.473Z" fill="#F9F9F9"/>
<path d="M197.346 47.6894C196.053 47.6894 194.914 47.4085 193.927 46.8468C192.941 46.2851 192.158 45.5021 191.58 44.4979C191.019 43.4936 190.738 42.3447 190.738 41.0511C190.738 39.7574 191.019 38.6085 191.58 37.6043C192.158 36.6 192.941 35.817 193.927 35.2553C194.914 34.6936 196.053 34.4128 197.346 34.4128C198.961 34.4128 200.322 34.8383 201.427 35.6894C202.533 36.5234 203.239 37.6809 203.545 39.1617H200.101C199.931 38.5489 199.591 38.0723 199.08 37.7319C198.587 37.3745 198 37.1957 197.32 37.1957C196.419 37.1957 195.653 37.5362 195.024 38.217C194.395 38.8979 194.08 39.8426 194.08 41.0511C194.08 42.2596 194.395 43.2043 195.024 43.8851C195.653 44.566 196.419 44.9064 197.32 44.9064C198 44.9064 198.587 44.7362 199.08 44.3957C199.591 44.0553 199.931 43.5702 200.101 42.9404H203.545C203.239 44.3702 202.533 45.5191 201.427 46.3872C200.322 47.2553 198.961 47.6894 197.346 47.6894Z" fill="#F9F9F9"/>
<path d="M208.204 32.7532C207.608 32.7532 207.115 32.5745 206.724 32.217C206.35 31.8596 206.163 31.4085 206.163 30.8638C206.163 30.3191 206.35 29.8766 206.724 29.5362C207.115 29.1787 207.608 29 208.204 29C208.799 29 209.283 29.1787 209.658 29.5362C210.049 29.8766 210.244 30.3191 210.244 30.8638C210.244 31.4085 210.049 31.8596 209.658 32.217C209.283 32.5745 208.799 32.7532 208.204 32.7532ZM206.571 47.383V34.7191H209.836V47.383H206.571Z" fill="#F9F9F9"/>
<path d="M213.831 47.383V37.4511H212.097V34.7191H213.831V33.2383C213.831 31.7064 214.214 30.617 214.979 29.9702C215.762 29.3234 216.816 29 218.143 29H219.546V31.783H218.653C218.092 31.783 217.692 31.8936 217.454 32.1149C217.216 32.3362 217.097 32.7106 217.097 33.2383V34.7191H219.826V37.4511H217.097V47.383H213.831Z" fill="#F9F9F9"/>
<path d="M223.994 53L226.928 46.5404H226.163L221.239 34.7191H224.785L228.331 43.6298L232.03 34.7191H235.5L227.464 53H223.994Z" fill="#F9F9F9"/>
<path d="M53.733 140V129.818H57.1733C57.9721 129.818 58.625 129.962 59.1321 130.251C59.6425 130.536 60.0204 130.922 60.2656 131.409C60.5109 131.896 60.6335 132.44 60.6335 133.04C60.6335 133.64 60.5109 134.185 60.2656 134.675C60.0237 135.166 59.6491 135.557 59.142 135.849C58.6349 136.137 57.9853 136.281 57.1932 136.281H54.7273V135.188H57.1534C57.7003 135.188 58.1394 135.093 58.4709 134.904C58.8023 134.715 59.0426 134.46 59.1918 134.138C59.3442 133.814 59.4205 133.447 59.4205 133.04C59.4205 132.632 59.3442 132.268 59.1918 131.946C59.0426 131.625 58.8007 131.373 58.4659 131.19C58.1312 131.005 57.687 130.912 57.1335 130.912H54.9659V140H53.733ZM62.7406 140V132.364H63.8741V133.517H63.9537C64.0929 133.139 64.3447 132.833 64.7093 132.597C65.0739 132.362 65.4849 132.244 65.9423 132.244C66.0285 132.244 66.1362 132.246 66.2654 132.249C66.3947 132.253 66.4925 132.258 66.5588 132.264V133.457C66.519 133.447 66.4278 133.433 66.2853 133.413C66.1461 133.389 65.9986 133.378 65.8429 133.378C65.4716 133.378 65.1402 133.456 64.8485 133.612C64.5602 133.764 64.3315 133.976 64.1625 134.248C63.9967 134.516 63.9139 134.823 63.9139 135.168V140H62.7406ZM71.0994 140.159C70.41 140.159 69.8051 139.995 69.2848 139.667C68.7677 139.339 68.3634 138.88 68.0717 138.29C67.7834 137.7 67.6392 137.01 67.6392 136.222C67.6392 135.426 67.7834 134.732 68.0717 134.138C68.3634 133.545 68.7677 133.085 69.2848 132.756C69.8051 132.428 70.41 132.264 71.0994 132.264C71.7888 132.264 72.392 132.428 72.9091 132.756C73.4294 133.085 73.8338 133.545 74.1221 134.138C74.4138 134.732 74.5596 135.426 74.5596 136.222C74.5596 137.01 74.4138 137.7 74.1221 138.29C73.8338 138.88 73.4294 139.339 72.9091 139.667C72.392 139.995 71.7888 140.159 71.0994 140.159ZM71.0994 139.105C71.6231 139.105 72.054 138.971 72.392 138.702C72.7301 138.434 72.9803 138.081 73.1427 137.643C73.3051 137.206 73.3864 136.732 73.3864 136.222C73.3864 135.711 73.3051 135.236 73.1427 134.795C72.9803 134.354 72.7301 133.998 72.392 133.726C72.054 133.454 71.6231 133.318 71.0994 133.318C70.5757 133.318 70.1449 133.454 69.8068 133.726C69.4687 133.998 69.2185 134.354 69.0561 134.795C68.8937 135.236 68.8125 135.711 68.8125 136.222C68.8125 136.732 68.8937 137.206 69.0561 137.643C69.2185 138.081 69.4687 138.434 69.8068 138.702C70.1449 138.971 70.5757 139.105 71.0994 139.105ZM79.5142 140.159C78.8778 140.159 78.316 139.998 77.8288 139.677C77.3416 139.352 76.9604 138.895 76.6853 138.305C76.4103 137.711 76.2727 137.01 76.2727 136.202C76.2727 135.4 76.4103 134.704 76.6853 134.114C76.9604 133.524 77.3433 133.068 77.8338 132.746C78.3243 132.425 78.8911 132.264 79.5341 132.264C80.0312 132.264 80.424 132.347 80.7123 132.513C81.004 132.675 81.2261 132.861 81.3785 133.07C81.5343 133.275 81.6553 133.444 81.7415 133.577H81.8409V129.818H83.0142V140H81.8807V138.827H81.7415C81.6553 138.966 81.5326 139.142 81.3736 139.354C81.2145 139.562 80.9874 139.75 80.6925 139.915C80.3975 140.078 80.0047 140.159 79.5142 140.159ZM79.6733 139.105C80.1439 139.105 80.5416 138.982 80.8665 138.737C81.1913 138.489 81.4382 138.146 81.6072 137.708C81.7763 137.267 81.8608 136.759 81.8608 136.182C81.8608 135.612 81.7779 135.113 81.6122 134.685C81.4465 134.254 81.2012 133.92 80.8764 133.681C80.5516 133.439 80.1505 133.318 79.6733 133.318C79.1761 133.318 78.7618 133.446 78.4304 133.701C78.1023 133.953 77.8553 134.296 77.6896 134.73C77.5272 135.161 77.446 135.645 77.446 136.182C77.446 136.725 77.5289 137.219 77.6946 137.663C77.8636 138.104 78.1122 138.455 78.4403 138.717C78.7718 138.976 79.1827 139.105 79.6733 139.105ZM90.4185 136.878V132.364H91.5918V140H90.4185V138.707H90.3389C90.1599 139.095 89.8815 139.425 89.5037 139.697C89.1259 139.965 88.6486 140.099 88.0719 140.099C87.5946 140.099 87.1704 139.995 86.7992 139.786C86.4279 139.574 86.1363 139.256 85.9242 138.832C85.712 138.404 85.606 137.866 85.606 137.216V132.364H86.7793V137.136C86.7793 137.693 86.935 138.137 87.2466 138.469C87.5615 138.8 87.9625 138.966 88.4497 138.966C88.7414 138.966 89.038 138.891 89.3396 138.742C89.6446 138.593 89.8998 138.364 90.1053 138.056C90.3141 137.748 90.4185 137.355 90.4185 136.878ZM97.123 140.159C96.4071 140.159 95.7906 139.99 95.2736 139.652C94.7565 139.314 94.3588 138.848 94.0804 138.255C93.802 137.662 93.6628 136.984 93.6628 136.222C93.6628 135.446 93.8053 134.762 94.0903 134.168C94.3787 133.572 94.7797 133.106 95.2935 132.771C95.8105 132.433 96.4137 132.264 97.1031 132.264C97.6401 132.264 98.124 132.364 98.5548 132.562C98.9857 132.761 99.3387 133.04 99.6138 133.398C99.8889 133.756 100.06 134.173 100.126 134.651H98.9526C98.8631 134.303 98.6642 133.994 98.356 133.726C98.051 133.454 97.6401 133.318 97.123 133.318C96.6656 133.318 96.2646 133.437 95.9199 133.676C95.5785 133.911 95.3117 134.245 95.1195 134.675C94.9305 135.103 94.8361 135.605 94.8361 136.182C94.8361 136.772 94.9289 137.286 95.1145 137.723C95.3034 138.161 95.5686 138.5 95.9099 138.742C96.2546 138.984 96.659 139.105 97.123 139.105C97.4279 139.105 97.7047 139.052 97.9533 138.946C98.2018 138.84 98.4123 138.688 98.5847 138.489C98.757 138.29 98.8796 138.051 98.9526 137.773H100.126C100.06 138.223 99.8955 138.629 99.6337 138.991C99.3751 139.349 99.0321 139.634 98.6045 139.846C98.1803 140.055 97.6865 140.159 97.123 140.159ZM105.442 132.364V133.358H101.485V132.364H105.442ZM102.638 130.534H103.811V137.812C103.811 138.144 103.859 138.393 103.956 138.558C104.055 138.721 104.181 138.83 104.333 138.886C104.489 138.939 104.653 138.966 104.826 138.966C104.955 138.966 105.061 138.959 105.144 138.946C105.227 138.929 105.293 138.916 105.343 138.906L105.581 139.96C105.502 139.99 105.391 140.02 105.248 140.05C105.106 140.083 104.925 140.099 104.706 140.099C104.375 140.099 104.05 140.028 103.732 139.886C103.417 139.743 103.155 139.526 102.946 139.234C102.741 138.943 102.638 138.575 102.638 138.131V130.534ZM112.759 134.074L111.705 134.372C111.639 134.196 111.541 134.026 111.412 133.86C111.286 133.691 111.114 133.552 110.895 133.442C110.676 133.333 110.396 133.278 110.055 133.278C109.587 133.278 109.198 133.386 108.886 133.602C108.578 133.814 108.424 134.084 108.424 134.412C108.424 134.704 108.53 134.934 108.742 135.103C108.954 135.272 109.286 135.413 109.737 135.526L110.87 135.804C111.553 135.97 112.062 136.223 112.396 136.565C112.731 136.903 112.899 137.339 112.899 137.872C112.899 138.31 112.773 138.701 112.521 139.045C112.272 139.39 111.924 139.662 111.477 139.861C111.029 140.06 110.509 140.159 109.916 140.159C109.137 140.159 108.492 139.99 107.982 139.652C107.471 139.314 107.148 138.82 107.012 138.17L108.126 137.892C108.232 138.303 108.432 138.611 108.727 138.817C109.026 139.022 109.415 139.125 109.896 139.125C110.443 139.125 110.877 139.009 111.198 138.777C111.523 138.542 111.685 138.26 111.685 137.932C111.685 137.667 111.593 137.445 111.407 137.266C111.221 137.083 110.936 136.947 110.552 136.858L109.279 136.56C108.58 136.394 108.066 136.137 107.738 135.789C107.413 135.438 107.251 134.999 107.251 134.472C107.251 134.041 107.372 133.66 107.614 133.328C107.859 132.997 108.192 132.737 108.613 132.548C109.037 132.359 109.518 132.264 110.055 132.264C110.81 132.264 111.404 132.43 111.835 132.761C112.269 133.093 112.577 133.53 112.759 134.074Z" fill="#F9F9F9"/>
<path d="M135.78 132.967L131.433 137.313C130.92 137.827 130.08 137.827 129.567 137.313L125.22 132.967" stroke="#F9F9F9" stroke-width="1.5" stroke-miterlimit="10" stroke-linecap="round" stroke-linejoin="round"/>
<path d="M53.1761 174.912V173.818H60.8125V174.912H57.6108V184H56.3778V174.912H53.1761ZM64.9306 184.159C64.1948 184.159 63.5601 183.997 63.0264 183.672C62.4961 183.344 62.0868 182.886 61.7985 182.3C61.5134 181.71 61.3709 181.024 61.3709 180.241C61.3709 179.459 61.5134 178.77 61.7985 178.173C62.0868 177.573 62.4879 177.106 63.0016 176.771C63.5186 176.433 64.1219 176.264 64.8112 176.264C65.209 176.264 65.6017 176.33 65.9895 176.463C66.3773 176.596 66.7303 176.811 67.0485 177.109C67.3666 177.404 67.6202 177.795 67.8091 178.283C67.998 178.77 68.0925 179.37 68.0925 180.082V180.58H62.2061V179.565H66.8993C66.8993 179.134 66.8131 178.75 66.6408 178.412C66.4718 178.074 66.2298 177.807 65.9149 177.612C65.6034 177.416 65.2355 177.318 64.8112 177.318C64.3439 177.318 63.9396 177.434 63.5982 177.666C63.2601 177.895 62.9999 178.193 62.8176 178.561C62.6354 178.929 62.5442 179.323 62.5442 179.744V180.42C62.5442 180.997 62.6436 181.486 62.8425 181.887C63.0447 182.285 63.3247 182.588 63.6827 182.797C64.0407 183.002 64.4566 183.105 64.9306 183.105C65.2388 183.105 65.5172 183.062 65.7658 182.976C66.0177 182.886 66.2348 182.754 66.4171 182.578C66.5994 182.399 66.7402 182.177 66.8397 181.912L67.9732 182.23C67.8539 182.615 67.6533 182.953 67.3716 183.244C67.0899 183.533 66.7419 183.758 66.3276 183.92C65.9133 184.08 65.4476 184.159 64.9306 184.159ZM70.1573 184V176.364H71.2908V177.557H71.3903C71.5493 177.149 71.8062 176.833 72.1609 176.607C72.5155 176.379 72.9414 176.264 73.4386 176.264C73.9423 176.264 74.3616 176.379 74.6964 176.607C75.0344 176.833 75.2979 177.149 75.4868 177.557H75.5664C75.7619 177.162 76.0553 176.849 76.4464 176.617C76.8375 176.382 77.3064 176.264 77.8533 176.264C78.5361 176.264 79.0946 176.478 79.5287 176.906C79.9629 177.33 80.18 177.991 80.18 178.889V184H79.0067V178.889C79.0067 178.326 78.8526 177.923 78.5444 177.681C78.2361 177.439 77.8732 177.318 77.4556 177.318C76.9187 177.318 76.5027 177.481 76.2077 177.805C75.9127 178.127 75.7653 178.535 75.7653 179.028V184H74.5721V178.77C74.5721 178.336 74.4312 177.986 74.1495 177.721C73.8678 177.452 73.5048 177.318 73.0607 177.318C72.7558 177.318 72.4707 177.399 72.2056 177.562C71.9438 177.724 71.7316 177.95 71.5692 178.238C71.4101 178.523 71.3306 178.853 71.3306 179.227V184H70.1573ZM82.6053 186.864V176.364H83.7388V177.577H83.878C83.9642 177.444 84.0835 177.275 84.236 177.07C84.3917 176.861 84.6138 176.675 84.9021 176.513C85.1938 176.347 85.5882 176.264 86.0854 176.264C86.7284 176.264 87.2951 176.425 87.7857 176.746C88.2762 177.068 88.659 177.524 88.9341 178.114C89.2092 178.704 89.3467 179.4 89.3467 180.202C89.3467 181.01 89.2092 181.711 88.9341 182.305C88.659 182.895 88.2779 183.352 87.7906 183.677C87.3034 183.998 86.7416 184.159 86.1053 184.159C85.6147 184.159 85.222 184.078 84.927 183.915C84.632 183.75 84.405 183.562 84.2459 183.354C84.0868 183.142 83.9642 182.966 83.878 182.827H83.7786V186.864H82.6053ZM83.7587 180.182C83.7587 180.759 83.8432 181.267 84.0122 181.708C84.1813 182.146 84.4282 182.489 84.753 182.737C85.0778 182.982 85.4755 183.105 85.9462 183.105C86.4367 183.105 86.846 182.976 87.1742 182.717C87.5056 182.455 87.7542 182.104 87.9199 181.663C88.0889 181.219 88.1735 180.725 88.1735 180.182C88.1735 179.645 88.0906 179.161 87.9249 178.73C87.7625 178.296 87.5155 177.953 87.1841 177.701C86.856 177.446 86.4433 177.318 85.9462 177.318C85.4689 177.318 85.0679 177.439 84.7431 177.681C84.4182 177.92 84.173 178.254 84.0073 178.685C83.8415 179.113 83.7587 179.612 83.7587 180.182ZM92.5898 173.818V184H91.4165V173.818H92.5898ZM97.2659 184.179C96.782 184.179 96.3429 184.088 95.9485 183.906C95.5541 183.72 95.2409 183.453 95.0088 183.105C94.7768 182.754 94.6608 182.33 94.6608 181.832C94.6608 181.395 94.747 181.04 94.9194 180.768C95.0917 180.493 95.3221 180.278 95.6104 180.122C95.8988 179.966 96.2169 179.85 96.565 179.774C96.9163 179.695 97.2693 179.632 97.6239 179.585C98.0879 179.526 98.4641 179.481 98.7525 179.451C99.0441 179.418 99.2562 179.363 99.3888 179.287C99.5247 179.211 99.5927 179.078 99.5927 178.889V178.849C99.5927 178.359 99.4584 177.978 99.19 177.706C98.9248 177.434 98.5221 177.298 97.9819 177.298C97.4217 177.298 96.9826 177.421 96.6644 177.666C96.3462 177.911 96.1225 178.173 95.9932 178.452L94.8796 178.054C95.0784 177.59 95.3436 177.229 95.675 176.97C96.0098 176.708 96.3744 176.526 96.7688 176.423C97.1665 176.317 97.5576 176.264 97.9421 176.264C98.1873 176.264 98.4691 176.294 98.7873 176.354C99.1087 176.41 99.4186 176.528 99.7169 176.707C100.019 176.886 100.269 177.156 100.468 177.517C100.667 177.878 100.766 178.362 100.766 178.969V184H99.5927V182.966H99.533C99.4534 183.132 99.3209 183.309 99.1353 183.498C98.9497 183.687 98.7027 183.848 98.3945 183.98C98.0863 184.113 97.7101 184.179 97.2659 184.179ZM97.4449 183.125C97.9089 183.125 98.3 183.034 98.6182 182.852C98.9397 182.669 99.1817 182.434 99.3441 182.146C99.5098 181.857 99.5927 181.554 99.5927 181.236V180.162C99.5429 180.222 99.4336 180.276 99.2645 180.326C99.0988 180.372 98.9066 180.414 98.6878 180.45C98.4724 180.483 98.2619 180.513 98.0564 180.54C97.8543 180.563 97.6902 180.583 97.5642 180.599C97.2593 180.639 96.9743 180.704 96.7091 180.793C96.4473 180.879 96.2352 181.01 96.0728 181.186C95.9137 181.358 95.8341 181.594 95.8341 181.892C95.8341 182.3 95.9849 182.608 96.2865 182.817C96.5915 183.022 96.9776 183.125 97.4449 183.125ZM106.508 176.364V177.358H102.551V176.364H106.508ZM103.705 174.534H104.878V181.812C104.878 182.144 104.926 182.393 105.022 182.558C105.121 182.721 105.247 182.83 105.4 182.886C105.556 182.939 105.72 182.966 105.892 182.966C106.021 182.966 106.127 182.959 106.21 182.946C106.293 182.929 106.359 182.916 106.409 182.906L106.648 183.96C106.568 183.99 106.457 184.02 106.315 184.05C106.172 184.083 105.991 184.099 105.773 184.099C105.441 184.099 105.116 184.028 104.798 183.886C104.483 183.743 104.222 183.526 104.013 183.234C103.807 182.943 103.705 182.575 103.705 182.131V174.534ZM111.673 184.159C110.937 184.159 110.303 183.997 109.769 183.672C109.239 183.344 108.829 182.886 108.541 182.3C108.256 181.71 108.113 181.024 108.113 180.241C108.113 179.459 108.256 178.77 108.541 178.173C108.829 177.573 109.23 177.106 109.744 176.771C110.261 176.433 110.864 176.264 111.554 176.264C111.951 176.264 112.344 176.33 112.732 176.463C113.12 176.596 113.473 176.811 113.791 177.109C114.109 177.404 114.363 177.795 114.552 178.283C114.741 178.77 114.835 179.37 114.835 180.082V180.58H108.949V179.565H113.642C113.642 179.134 113.556 178.75 113.383 178.412C113.214 178.074 112.972 177.807 112.657 177.612C112.346 177.416 111.978 177.318 111.554 177.318C111.086 177.318 110.682 177.434 110.341 177.666C110.003 177.895 109.742 178.193 109.56 178.561C109.378 178.929 109.287 179.323 109.287 179.744V180.42C109.287 180.997 109.386 181.486 109.585 181.887C109.787 182.285 110.067 182.588 110.425 182.797C110.783 183.002 111.199 183.105 111.673 183.105C111.981 183.105 112.26 183.062 112.508 182.976C112.76 182.886 112.977 182.754 113.16 182.578C113.342 182.399 113.483 182.177 113.582 181.912L114.716 182.23C114.596 182.615 114.396 182.953 114.114 183.244C113.832 183.533 113.484 183.758 113.07 183.92C112.656 184.08 112.19 184.159 111.673 184.159ZM122.309 178.074L121.255 178.372C121.189 178.196 121.091 178.026 120.962 177.86C120.836 177.691 120.663 177.552 120.445 177.442C120.226 177.333 119.946 177.278 119.604 177.278C119.137 177.278 118.748 177.386 118.436 177.602C118.128 177.814 117.974 178.084 117.974 178.412C117.974 178.704 118.08 178.934 118.292 179.103C118.504 179.272 118.835 179.413 119.286 179.526L120.42 179.804C121.102 179.97 121.611 180.223 121.946 180.565C122.281 180.903 122.448 181.339 122.448 181.872C122.448 182.31 122.322 182.701 122.07 183.045C121.822 183.39 121.474 183.662 121.026 183.861C120.579 184.06 120.058 184.159 119.465 184.159C118.686 184.159 118.042 183.99 117.531 183.652C117.021 183.314 116.698 182.82 116.562 182.17L117.675 181.892C117.781 182.303 117.982 182.611 118.277 182.817C118.575 183.022 118.965 183.125 119.445 183.125C119.992 183.125 120.426 183.009 120.748 182.777C121.073 182.542 121.235 182.26 121.235 181.932C121.235 181.667 121.142 181.445 120.957 181.266C120.771 181.083 120.486 180.947 120.102 180.858L118.829 180.56C118.129 180.394 117.616 180.137 117.288 179.789C116.963 179.438 116.8 178.999 116.8 178.472C116.8 178.041 116.921 177.66 117.163 177.328C117.409 176.997 117.742 176.737 118.163 176.548C118.587 176.359 119.067 176.264 119.604 176.264C120.36 176.264 120.953 176.43 121.384 176.761C121.818 177.093 122.127 177.53 122.309 178.074Z" fill="#F9F9F9"/>
<path d="M53.733 228V217.818H59.8381V218.912H54.9659V222.352H59.3807V223.446H54.9659V228H53.733ZM64.7118 228.159C63.976 228.159 63.3413 227.997 62.8077 227.672C62.2774 227.344 61.8681 226.886 61.5797 226.3C61.2947 225.71 61.1522 225.024 61.1522 224.241C61.1522 223.459 61.2947 222.77 61.5797 222.173C61.8681 221.573 62.2691 221.106 62.7828 220.771C63.2999 220.433 63.9031 220.264 64.5925 220.264C64.9902 220.264 65.383 220.33 65.7708 220.463C66.1586 220.596 66.5115 220.811 66.8297 221.109C67.1479 221.404 67.4014 221.795 67.5904 222.283C67.7793 222.77 67.8738 223.37 67.8738 224.082V224.58H61.9874V223.565H66.6806C66.6806 223.134 66.5944 222.75 66.422 222.412C66.253 222.074 66.0111 221.807 65.6962 221.612C65.3846 221.416 65.0167 221.318 64.5925 221.318C64.1252 221.318 63.7208 221.434 63.3794 221.666C63.0414 221.895 62.7812 222.193 62.5989 222.561C62.4166 222.929 62.3255 223.323 62.3255 223.744V224.42C62.3255 224.997 62.4249 225.486 62.6238 225.887C62.8259 226.285 63.106 226.588 63.4639 226.797C63.8219 227.002 64.2379 227.105 64.7118 227.105C65.0201 227.105 65.2985 227.062 65.547 226.976C65.7989 226.886 66.016 226.754 66.1983 226.578C66.3806 226.399 66.5215 226.177 66.6209 225.912L67.7544 226.23C67.6351 226.615 67.4346 226.953 67.1529 227.244C66.8711 227.533 66.5231 227.758 66.1088 227.92C65.6945 228.08 65.2289 228.159 64.7118 228.159ZM73.1403 228.159C72.4045 228.159 71.7698 227.997 71.2361 227.672C70.7058 227.344 70.2965 226.886 70.0082 226.3C69.7231 225.71 69.5806 225.024 69.5806 224.241C69.5806 223.459 69.7231 222.77 70.0082 222.173C70.2965 221.573 70.6975 221.106 71.2113 220.771C71.7283 220.433 72.3315 220.264 73.0209 220.264C73.4187 220.264 73.8114 220.33 74.1992 220.463C74.587 220.596 74.94 220.811 75.2582 221.109C75.5763 221.404 75.8299 221.795 76.0188 222.283C76.2077 222.77 76.3022 223.37 76.3022 224.082V224.58H70.4158V223.565H75.109C75.109 223.134 75.0228 222.75 74.8505 222.412C74.6814 222.074 74.4395 221.807 74.1246 221.612C73.8131 221.416 73.4452 221.318 73.0209 221.318C72.5536 221.318 72.1493 221.434 71.8079 221.666C71.4698 221.895 71.2096 222.193 71.0273 222.561C70.845 222.929 70.7539 223.323 70.7539 223.744V224.42C70.7539 224.997 70.8533 225.486 71.0522 225.887C71.2544 226.285 71.5344 226.588 71.8924 226.797C72.2503 227.002 72.6663 227.105 73.1403 227.105C73.4485 227.105 73.7269 227.062 73.9755 226.976C74.2274 226.886 74.4445 226.754 74.6268 226.578C74.8091 226.399 74.9499 226.177 75.0493 225.912L76.1829 226.23C76.0636 226.615 75.863 226.953 75.5813 227.244C75.2996 227.533 74.9516 227.758 74.5373 227.92C74.123 228.08 73.6573 228.159 73.1403 228.159ZM81.2505 228.159C80.6141 228.159 80.0524 227.998 79.5651 227.677C79.0779 227.352 78.6968 226.895 78.4217 226.305C78.1466 225.711 78.009 225.01 78.009 224.202C78.009 223.4 78.1466 222.704 78.4217 222.114C78.6968 221.524 79.0796 221.068 79.5701 220.746C80.0606 220.425 80.6274 220.264 81.2704 220.264C81.7676 220.264 82.1603 220.347 82.4487 220.513C82.7403 220.675 82.9624 220.861 83.1149 221.07C83.2706 221.275 83.3916 221.444 83.4778 221.577H83.5772V217.818H84.7505V228H83.617V226.827H83.4778C83.3916 226.966 83.269 227.142 83.1099 227.354C82.9508 227.562 82.7238 227.75 82.4288 227.915C82.1338 228.078 81.741 228.159 81.2505 228.159ZM81.4096 227.105C81.8802 227.105 82.278 226.982 82.6028 226.737C82.9276 226.489 83.1745 226.146 83.3436 225.708C83.5126 225.267 83.5971 224.759 83.5971 224.182C83.5971 223.612 83.5142 223.113 83.3485 222.685C83.1828 222.254 82.9375 221.92 82.6127 221.681C82.2879 221.439 81.8869 221.318 81.4096 221.318C80.9124 221.318 80.4981 221.446 80.1667 221.701C79.8386 221.953 79.5917 222.296 79.4259 222.73C79.2635 223.161 79.1823 223.645 79.1823 224.182C79.1823 224.725 79.2652 225.219 79.4309 225.663C79.5999 226.104 79.8485 226.455 80.1766 226.717C80.5081 226.976 80.9191 227.105 81.4096 227.105ZM87.5014 228V217.818H88.6747V221.577H88.7741C88.8603 221.444 88.9796 221.275 89.1321 221.07C89.2878 220.861 89.5099 220.675 89.7983 220.513C90.0899 220.347 90.4843 220.264 90.9815 220.264C91.6245 220.264 92.1913 220.425 92.6818 220.746C93.1723 221.068 93.5551 221.524 93.8302 222.114C94.1053 222.704 94.2429 223.4 94.2429 224.202C94.2429 225.01 94.1053 225.711 93.8302 226.305C93.5551 226.895 93.174 227.352 92.6868 227.677C92.1995 227.998 91.6378 228.159 91.0014 228.159C90.5109 228.159 90.1181 228.078 89.8231 227.915C89.5281 227.75 89.3011 227.562 89.142 227.354C88.9829 227.142 88.8603 226.966 88.7741 226.827H88.6349V228H87.5014ZM88.6548 224.182C88.6548 224.759 88.7393 225.267 88.9084 225.708C89.0774 226.146 89.3243 226.489 89.6491 226.737C89.9739 226.982 90.3717 227.105 90.8423 227.105C91.3328 227.105 91.7422 226.976 92.0703 226.717C92.4017 226.455 92.6503 226.104 92.816 225.663C92.9851 225.219 93.0696 224.725 93.0696 224.182C93.0696 223.645 92.9867 223.161 92.821 222.73C92.6586 222.296 92.4117 221.953 92.0802 221.701C91.7521 221.446 91.3395 221.318 90.8423 221.318C90.365 221.318 89.964 221.439 89.6392 221.681C89.3144 221.92 89.0691 222.254 88.9034 222.685C88.7377 223.113 88.6548 223.612 88.6548 224.182ZM98.5648 228.179C98.0809 228.179 97.6417 228.088 97.2473 227.906C96.8529 227.72 96.5397 227.453 96.3077 227.105C96.0757 226.754 95.9597 226.33 95.9597 225.832C95.9597 225.395 96.0458 225.04 96.2182 224.768C96.3905 224.493 96.6209 224.278 96.9092 224.122C97.1976 223.966 97.5158 223.85 97.8638 223.774C98.2151 223.695 98.5681 223.632 98.9227 223.585C99.3867 223.526 99.7629 223.481 100.051 223.451C100.343 223.418 100.555 223.363 100.688 223.287C100.824 223.211 100.891 223.078 100.891 222.889V222.849C100.891 222.359 100.757 221.978 100.489 221.706C100.224 221.434 99.8209 221.298 99.2807 221.298C98.7206 221.298 98.2814 221.421 97.9632 221.666C97.645 221.911 97.4213 222.173 97.292 222.452L96.1784 222.054C96.3773 221.59 96.6424 221.229 96.9739 220.97C97.3086 220.708 97.6732 220.526 98.0676 220.423C98.4653 220.317 98.8564 220.264 99.2409 220.264C99.4862 220.264 99.7679 220.294 100.086 220.354C100.408 220.41 100.717 220.528 101.016 220.707C101.317 220.886 101.568 221.156 101.766 221.517C101.965 221.878 102.065 222.362 102.065 222.969V228H100.891V226.966H100.832C100.752 227.132 100.62 227.309 100.434 227.498C100.248 227.687 100.002 227.848 99.6933 227.98C99.3851 228.113 99.0089 228.179 98.5648 228.179ZM98.7438 227.125C99.2078 227.125 99.5989 227.034 99.917 226.852C100.239 226.669 100.48 226.434 100.643 226.146C100.809 225.857 100.891 225.554 100.891 225.236V224.162C100.842 224.222 100.732 224.276 100.563 224.326C100.398 224.372 100.205 224.414 99.9866 224.45C99.7712 224.483 99.5607 224.513 99.3553 224.54C99.1531 224.563 98.989 224.583 98.8631 224.599C98.5581 224.639 98.2731 224.704 98.008 224.793C97.7461 224.879 97.534 225.01 97.3716 225.186C97.2125 225.358 97.133 225.594 97.133 225.892C97.133 226.3 97.2838 226.608 97.5854 226.817C97.8903 227.022 98.2764 227.125 98.7438 227.125ZM107.589 228.159C106.873 228.159 106.256 227.99 105.739 227.652C105.222 227.314 104.824 226.848 104.546 226.255C104.268 225.662 104.128 224.984 104.128 224.222C104.128 223.446 104.271 222.762 104.556 222.168C104.844 221.572 105.245 221.106 105.759 220.771C106.276 220.433 106.879 220.264 107.569 220.264C108.106 220.264 108.59 220.364 109.02 220.562C109.451 220.761 109.804 221.04 110.079 221.398C110.354 221.756 110.525 222.173 110.591 222.651H109.418C109.329 222.303 109.13 221.994 108.822 221.726C108.517 221.454 108.106 221.318 107.589 221.318C107.131 221.318 106.73 221.437 106.385 221.676C106.044 221.911 105.777 222.245 105.585 222.675C105.396 223.103 105.302 223.605 105.302 224.182C105.302 224.772 105.394 225.286 105.58 225.723C105.769 226.161 106.034 226.5 106.375 226.742C106.72 226.984 107.125 227.105 107.589 227.105C107.893 227.105 108.17 227.052 108.419 226.946C108.667 226.84 108.878 226.688 109.05 226.489C109.223 226.29 109.345 226.051 109.418 225.773H110.591C110.525 226.223 110.361 226.629 110.099 226.991C109.841 227.349 109.498 227.634 109.07 227.846C108.646 228.055 108.152 228.159 107.589 228.159ZM113.68 225.216L113.66 223.764H113.899L117.24 220.364H118.692L115.132 223.963H115.033L113.68 225.216ZM112.587 228V217.818H113.76V228H112.587ZM117.439 228L114.456 224.222L115.291 223.406L118.93 228H117.439ZM125.891 222.074L124.837 222.372C124.771 222.196 124.673 222.026 124.544 221.86C124.418 221.691 124.245 221.552 124.027 221.442C123.808 221.333 123.528 221.278 123.186 221.278C122.719 221.278 122.33 221.386 122.018 221.602C121.71 221.814 121.556 222.084 121.556 222.412C121.556 222.704 121.662 222.934 121.874 223.103C122.086 223.272 122.417 223.413 122.868 223.526L124.002 223.804C124.684 223.97 125.193 224.223 125.528 224.565C125.863 224.903 126.03 225.339 126.03 225.872C126.03 226.31 125.904 226.701 125.652 227.045C125.404 227.39 125.056 227.662 124.608 227.861C124.161 228.06 123.64 228.159 123.047 228.159C122.268 228.159 121.624 227.99 121.113 227.652C120.603 227.314 120.28 226.82 120.144 226.17L121.257 225.892C121.363 226.303 121.564 226.611 121.859 226.817C122.157 227.022 122.547 227.125 123.027 227.125C123.574 227.125 124.008 227.009 124.33 226.777C124.655 226.542 124.817 226.26 124.817 225.932C124.817 225.667 124.724 225.445 124.539 225.266C124.353 225.083 124.068 224.947 123.684 224.858L122.411 224.56C121.711 224.394 121.198 224.137 120.87 223.789C120.545 223.438 120.382 222.999 120.382 222.472C120.382 222.041 120.503 221.66 120.745 221.328C120.991 220.997 121.324 220.737 121.745 220.548C122.169 220.359 122.649 220.264 123.186 220.264C123.942 220.264 124.535 220.43 124.966 220.761C125.4 221.093 125.709 221.53 125.891 222.074Z" fill="#F9F9F9"/>
<path d="M54.1506 272H52.858L56.5966 261.818H57.8693L61.608 272H60.3153L57.2727 263.429H57.1932L54.1506 272ZM54.6278 268.023H59.8381V269.116H54.6278V268.023ZM63.4739 272V261.818H64.6472V265.577H64.7466C64.8328 265.444 64.9521 265.275 65.1046 265.07C65.2604 264.861 65.4824 264.675 65.7708 264.513C66.0624 264.347 66.4568 264.264 66.954 264.264C67.597 264.264 68.1638 264.425 68.6543 264.746C69.1448 265.068 69.5276 265.524 69.8027 266.114C70.0778 266.704 70.2154 267.4 70.2154 268.202C70.2154 269.01 70.0778 269.711 69.8027 270.305C69.5276 270.895 69.1465 271.352 68.6593 271.677C68.172 271.998 67.6103 272.159 66.9739 272.159C66.4834 272.159 66.0906 272.078 65.7956 271.915C65.5006 271.75 65.2736 271.562 65.1145 271.354C64.9554 271.142 64.8328 270.966 64.7466 270.827H64.6074V272H63.4739ZM64.6273 268.182C64.6273 268.759 64.7118 269.267 64.8809 269.708C65.0499 270.146 65.2968 270.489 65.6216 270.737C65.9464 270.982 66.3442 271.105 66.8148 271.105C67.3053 271.105 67.7147 270.976 68.0428 270.717C68.3742 270.455 68.6228 270.104 68.7885 269.663C68.9576 269.219 69.0421 268.725 69.0421 268.182C69.0421 267.645 68.9592 267.161 68.7935 266.73C68.6311 266.296 68.3842 265.953 68.0527 265.701C67.7246 265.446 67.312 265.318 66.8148 265.318C66.3375 265.318 65.9365 265.439 65.6117 265.681C65.2869 265.92 65.0416 266.254 64.8759 266.685C64.7102 267.113 64.6273 267.612 64.6273 268.182ZM75.3924 272.159C74.703 272.159 74.0981 271.995 73.5778 271.667C73.0607 271.339 72.6564 270.88 72.3647 270.29C72.0763 269.7 71.9322 269.01 71.9322 268.222C71.9322 267.426 72.0763 266.732 72.3647 266.138C72.6564 265.545 73.0607 265.085 73.5778 264.756C74.0981 264.428 74.703 264.264 75.3924 264.264C76.0818 264.264 76.685 264.428 77.202 264.756C77.7224 265.085 78.1268 265.545 78.4151 266.138C78.7068 266.732 78.8526 267.426 78.8526 268.222C78.8526 269.01 78.7068 269.7 78.4151 270.29C78.1268 270.88 77.7224 271.339 77.202 271.667C76.685 271.995 76.0818 272.159 75.3924 272.159ZM75.3924 271.105C75.9161 271.105 76.3469 270.971 76.685 270.702C77.0231 270.434 77.2733 270.081 77.4357 269.643C77.5981 269.206 77.6793 268.732 77.6793 268.222C77.6793 267.711 77.5981 267.236 77.4357 266.795C77.2733 266.354 77.0231 265.998 76.685 265.726C76.3469 265.454 75.9161 265.318 75.3924 265.318C74.8687 265.318 74.4378 265.454 74.0998 265.726C73.7617 265.998 73.5115 266.354 73.3491 266.795C73.1867 267.236 73.1055 267.711 73.1055 268.222C73.1055 268.732 73.1867 269.206 73.3491 269.643C73.5115 270.081 73.7617 270.434 74.0998 270.702C74.4378 270.971 74.8687 271.105 75.3924 271.105ZM85.7361 268.878V264.364H86.9094V272H85.7361V270.707H85.6566C85.4776 271.095 85.1992 271.425 84.8214 271.697C84.4435 271.965 83.9662 272.099 83.3895 272.099C82.9123 272.099 82.488 271.995 82.1168 271.786C81.7456 271.574 81.4539 271.256 81.2418 270.832C81.0297 270.404 80.9236 269.866 80.9236 269.216V264.364H82.0969V269.136C82.0969 269.693 82.2527 270.137 82.5643 270.469C82.8791 270.8 83.2802 270.966 83.7674 270.966C84.059 270.966 84.3557 270.891 84.6573 270.742C84.9622 270.593 85.2174 270.364 85.4229 270.056C85.6317 269.748 85.7361 269.355 85.7361 268.878ZM92.6594 264.364V265.358H88.702V264.364H92.6594ZM89.8554 262.534H91.0287V269.812C91.0287 270.144 91.0768 270.393 91.1729 270.558C91.2723 270.721 91.3983 270.83 91.5508 270.886C91.7065 270.939 91.8706 270.966 92.0429 270.966C92.1722 270.966 92.2783 270.959 92.3611 270.946C92.444 270.929 92.5103 270.916 92.56 270.906L92.7986 271.96C92.7191 271.99 92.608 272.02 92.4655 272.05C92.323 272.083 92.1424 272.099 91.9236 272.099C91.5922 272.099 91.2674 272.028 90.9492 271.886C90.6343 271.743 90.3725 271.526 90.1637 271.234C89.9582 270.943 89.8554 270.575 89.8554 270.131V262.534ZM103.734 268.878V264.364H104.908V272H103.734V270.707H103.655C103.476 271.095 103.197 271.425 102.82 271.697C102.442 271.965 101.964 272.099 101.388 272.099C100.91 272.099 100.486 271.995 100.115 271.786C99.7438 271.574 99.4521 271.256 99.24 270.832C99.0279 270.404 98.9218 269.866 98.9218 269.216V264.364H100.095V269.136C100.095 269.693 100.251 270.137 100.562 270.469C100.877 270.8 101.278 270.966 101.766 270.966C102.057 270.966 102.354 270.891 102.655 270.742C102.96 270.593 103.216 270.364 103.421 270.056C103.63 269.748 103.734 269.355 103.734 268.878ZM112.746 266.074L111.692 266.372C111.625 266.196 111.528 266.026 111.398 265.86C111.272 265.691 111.1 265.552 110.881 265.442C110.663 265.333 110.383 265.278 110.041 265.278C109.574 265.278 109.184 265.386 108.873 265.602C108.565 265.814 108.41 266.084 108.41 266.412C108.41 266.704 108.517 266.934 108.729 267.103C108.941 267.272 109.272 267.413 109.723 267.526L110.856 267.804C111.539 267.97 112.048 268.223 112.383 268.565C112.718 268.903 112.885 269.339 112.885 269.872C112.885 270.31 112.759 270.701 112.507 271.045C112.258 271.39 111.91 271.662 111.463 271.861C111.016 272.06 110.495 272.159 109.902 272.159C109.123 272.159 108.478 271.99 107.968 271.652C107.458 271.314 107.134 270.82 106.999 270.17L108.112 269.892C108.218 270.303 108.419 270.611 108.714 270.817C109.012 271.022 109.401 271.125 109.882 271.125C110.429 271.125 110.863 271.009 111.185 270.777C111.509 270.542 111.672 270.26 111.672 269.932C111.672 269.667 111.579 269.445 111.393 269.266C111.208 269.083 110.923 268.947 110.538 268.858L109.266 268.56C108.566 268.394 108.053 268.137 107.724 267.789C107.4 267.438 107.237 266.999 107.237 266.472C107.237 266.041 107.358 265.66 107.6 265.328C107.845 264.997 108.178 264.737 108.599 264.548C109.024 264.359 109.504 264.264 110.041 264.264C110.797 264.264 111.39 264.43 111.821 264.761C112.255 265.093 112.563 265.53 112.746 266.074Z" fill="#F9F9F9"/>
<path d="M203.926 133H202.693C202.62 132.645 202.493 132.334 202.31 132.065C202.131 131.797 201.913 131.571 201.654 131.389C201.399 131.204 201.116 131.064 200.804 130.972C200.492 130.879 200.168 130.832 199.83 130.832C199.213 130.832 198.655 130.988 198.154 131.3C197.657 131.611 197.261 132.07 196.966 132.677C196.674 133.283 196.528 134.027 196.528 134.909C196.528 135.791 196.674 136.535 196.966 137.141C197.261 137.748 197.657 138.207 198.154 138.518C198.655 138.83 199.213 138.986 199.83 138.986C200.168 138.986 200.492 138.939 200.804 138.847C201.116 138.754 201.399 138.616 201.654 138.434C201.913 138.248 202.131 138.021 202.31 137.753C202.493 137.481 202.62 137.17 202.693 136.818H203.926C203.833 137.339 203.664 137.804 203.419 138.215C203.174 138.626 202.869 138.976 202.504 139.264C202.14 139.549 201.73 139.766 201.276 139.915C200.826 140.065 200.343 140.139 199.83 140.139C198.961 140.139 198.189 139.927 197.513 139.503C196.837 139.079 196.305 138.475 195.917 137.693C195.529 136.911 195.335 135.983 195.335 134.909C195.335 133.835 195.529 132.907 195.917 132.125C196.305 131.343 196.837 130.74 197.513 130.315C198.189 129.891 198.961 129.679 199.83 129.679C200.343 129.679 200.826 129.754 201.276 129.903C201.73 130.052 202.14 130.271 202.504 130.559C202.869 130.844 203.174 131.192 203.419 131.603C203.664 132.011 203.833 132.476 203.926 133ZM209.142 140.159C208.452 140.159 207.847 139.995 207.327 139.667C206.81 139.339 206.406 138.88 206.114 138.29C205.826 137.7 205.681 137.01 205.681 136.222C205.681 135.426 205.826 134.732 206.114 134.138C206.406 133.545 206.81 133.085 207.327 132.756C207.847 132.428 208.452 132.264 209.142 132.264C209.831 132.264 210.434 132.428 210.951 132.756C211.472 133.085 211.876 133.545 212.164 134.138C212.456 134.732 212.602 135.426 212.602 136.222C212.602 137.01 212.456 137.7 212.164 138.29C211.876 138.88 211.472 139.339 210.951 139.667C210.434 139.995 209.831 140.159 209.142 140.159ZM209.142 139.105C209.665 139.105 210.096 138.971 210.434 138.702C210.772 138.434 211.023 138.081 211.185 137.643C211.347 137.206 211.429 136.732 211.429 136.222C211.429 135.711 211.347 135.236 211.185 134.795C211.023 134.354 210.772 133.998 210.434 133.726C210.096 133.454 209.665 133.318 209.142 133.318C208.618 133.318 208.187 133.454 207.849 133.726C207.511 133.998 207.261 134.354 207.098 134.795C206.936 135.236 206.855 135.711 206.855 136.222C206.855 136.732 206.936 137.206 207.098 137.643C207.261 138.081 207.511 138.434 207.849 138.702C208.187 138.971 208.618 139.105 209.142 139.105ZM215.846 135.406V140H214.673V132.364H215.806V133.557H215.906C216.085 133.169 216.357 132.857 216.721 132.622C217.086 132.384 217.556 132.264 218.133 132.264C218.65 132.264 219.103 132.37 219.49 132.582C219.878 132.791 220.18 133.109 220.395 133.537C220.611 133.961 220.718 134.498 220.718 135.148V140H219.545V135.227C219.545 134.627 219.389 134.16 219.078 133.825C218.766 133.487 218.339 133.318 217.795 133.318C217.421 133.318 217.086 133.399 216.791 133.562C216.499 133.724 216.269 133.961 216.1 134.273C215.931 134.584 215.846 134.962 215.846 135.406ZM226.463 132.364V133.358H222.506V132.364H226.463ZM223.659 130.534H224.833V137.812C224.833 138.144 224.881 138.393 224.977 138.558C225.076 138.721 225.202 138.83 225.355 138.886C225.511 138.939 225.675 138.966 225.847 138.966C225.976 138.966 226.082 138.959 226.165 138.946C226.248 138.929 226.314 138.916 226.364 138.906L226.603 139.96C226.523 139.99 226.412 140.02 226.27 140.05C226.127 140.083 225.946 140.099 225.728 140.099C225.396 140.099 225.071 140.028 224.753 139.886C224.438 139.743 224.176 139.526 223.968 139.234C223.762 138.943 223.659 138.575 223.659 138.131V130.534ZM230.755 140.179C230.272 140.179 229.832 140.088 229.438 139.906C229.044 139.72 228.73 139.453 228.498 139.105C228.266 138.754 228.15 138.33 228.15 137.832C228.15 137.395 228.237 137.04 228.409 136.768C228.581 136.493 228.812 136.278 229.1 136.122C229.388 135.966 229.706 135.85 230.054 135.774C230.406 135.695 230.759 135.632 231.113 135.585C231.577 135.526 231.954 135.481 232.242 135.451C232.534 135.418 232.746 135.363 232.878 135.287C233.014 135.211 233.082 135.078 233.082 134.889V134.849C233.082 134.359 232.948 133.978 232.679 133.706C232.414 133.434 232.012 133.298 231.471 133.298C230.911 133.298 230.472 133.421 230.154 133.666C229.836 133.911 229.612 134.173 229.483 134.452L228.369 134.054C228.568 133.59 228.833 133.229 229.165 132.97C229.499 132.708 229.864 132.526 230.258 132.423C230.656 132.317 231.047 132.264 231.432 132.264C231.677 132.264 231.959 132.294 232.277 132.354C232.598 132.41 232.908 132.528 233.206 132.707C233.508 132.886 233.758 133.156 233.957 133.517C234.156 133.878 234.255 134.362 234.255 134.969V140H233.082V138.966H233.023C232.943 139.132 232.81 139.309 232.625 139.498C232.439 139.687 232.192 139.848 231.884 139.98C231.576 140.113 231.2 140.179 230.755 140.179ZM230.934 139.125C231.398 139.125 231.79 139.034 232.108 138.852C232.429 138.669 232.671 138.434 232.834 138.146C232.999 137.857 233.082 137.554 233.082 137.236V136.162C233.032 136.222 232.923 136.276 232.754 136.326C232.588 136.372 232.396 136.414 232.177 136.45C231.962 136.483 231.751 136.513 231.546 136.54C231.344 136.563 231.18 136.583 231.054 136.599C230.749 136.639 230.464 136.704 230.199 136.793C229.937 136.879 229.725 137.01 229.562 137.186C229.403 137.358 229.324 137.594 229.324 137.892C229.324 138.3 229.474 138.608 229.776 138.817C230.081 139.022 230.467 139.125 230.934 139.125ZM239.779 140.159C239.063 140.159 238.447 139.99 237.93 139.652C237.413 139.314 237.015 138.848 236.737 138.255C236.458 137.662 236.319 136.984 236.319 136.222C236.319 135.446 236.462 134.762 236.747 134.168C237.035 133.572 237.436 133.106 237.95 132.771C238.467 132.433 239.07 132.264 239.759 132.264C240.296 132.264 240.78 132.364 241.211 132.562C241.642 132.761 241.995 133.04 242.27 133.398C242.545 133.756 242.716 134.173 242.782 134.651H241.609C241.519 134.303 241.32 133.994 241.012 133.726C240.707 133.454 240.296 133.318 239.779 133.318C239.322 133.318 238.921 133.437 238.576 133.676C238.235 133.911 237.968 134.245 237.776 134.675C237.587 135.103 237.492 135.605 237.492 136.182C237.492 136.772 237.585 137.286 237.771 137.723C237.96 138.161 238.225 138.5 238.566 138.742C238.911 138.984 239.315 139.105 239.779 139.105C240.084 139.105 240.361 139.052 240.61 138.946C240.858 138.84 241.069 138.688 241.241 138.489C241.413 138.29 241.536 138.051 241.609 137.773H242.782C242.716 138.223 242.552 138.629 242.29 138.991C242.031 139.349 241.688 139.634 241.261 139.846C240.837 140.055 240.343 140.159 239.779 140.159ZM248.098 132.364V133.358H244.141V132.364H248.098ZM245.294 130.534H246.468V137.812C246.468 138.144 246.516 138.393 246.612 138.558C246.711 138.721 246.837 138.83 246.99 138.886C247.145 138.939 247.309 138.966 247.482 138.966C247.611 138.966 247.717 138.959 247.8 138.946C247.883 138.929 247.949 138.916 247.999 138.906L248.238 139.96C248.158 139.99 248.047 140.02 247.904 140.05C247.762 140.083 247.581 140.099 247.363 140.099C247.031 140.099 246.706 140.028 246.388 139.886C246.073 139.743 245.811 139.526 245.603 139.234C245.397 138.943 245.294 138.575 245.294 138.131V130.534ZM259.173 136.878V132.364H260.347V140H259.173V138.707H259.094C258.915 139.095 258.636 139.425 258.258 139.697C257.881 139.965 257.403 140.099 256.827 140.099C256.349 140.099 255.925 139.995 255.554 139.786C255.183 139.574 254.891 139.256 254.679 138.832C254.467 138.404 254.361 137.866 254.361 137.216V132.364H255.534V137.136C255.534 137.693 255.69 138.137 256.001 138.469C256.316 138.8 256.717 138.966 257.204 138.966C257.496 138.966 257.793 138.891 258.094 138.742C258.399 138.593 258.655 138.364 258.86 138.056C259.069 137.748 259.173 137.355 259.173 136.878ZM268.185 134.074L267.131 134.372C267.064 134.196 266.967 134.026 266.837 133.86C266.711 133.691 266.539 133.552 266.32 133.442C266.101 133.333 265.821 133.278 265.48 133.278C265.013 133.278 264.623 133.386 264.312 133.602C264.003 133.814 263.849 134.084 263.849 134.412C263.849 134.704 263.955 134.934 264.168 135.103C264.38 135.272 264.711 135.413 265.162 135.526L266.295 135.804C266.978 135.97 267.487 136.223 267.822 136.565C268.156 136.903 268.324 137.339 268.324 137.872C268.324 138.31 268.198 138.701 267.946 139.045C267.697 139.39 267.349 139.662 266.902 139.861C266.454 140.06 265.934 140.159 265.341 140.159C264.562 140.159 263.917 139.99 263.407 139.652C262.896 139.314 262.573 138.82 262.437 138.17L263.551 137.892C263.657 138.303 263.858 138.611 264.153 138.817C264.451 139.022 264.84 139.125 265.321 139.125C265.868 139.125 266.302 139.009 266.624 138.777C266.948 138.542 267.111 138.26 267.111 137.932C267.111 137.667 267.018 137.445 266.832 137.266C266.647 137.083 266.362 136.947 265.977 136.858L264.704 136.56C264.005 136.394 263.491 136.137 263.163 135.789C262.838 135.438 262.676 134.999 262.676 134.472C262.676 134.041 262.797 133.66 263.039 133.328C263.284 132.997 263.617 132.737 264.038 132.548C264.463 132.359 264.943 132.264 265.48 132.264C266.236 132.264 266.829 132.43 267.26 132.761C267.694 133.093 268.002 133.53 268.185 134.074Z" fill="#F9F9F9"/>
<path d="M195.176 174.912V173.818H202.812V174.912H199.611V184H198.378V174.912H195.176ZM206.931 184.159C206.195 184.159 205.56 183.997 205.026 183.672C204.496 183.344 204.087 182.886 203.798 182.3C203.513 181.71 203.371 181.024 203.371 180.241C203.371 179.459 203.513 178.77 203.798 178.173C204.087 177.573 204.488 177.106 205.002 176.771C205.519 176.433 206.122 176.264 206.811 176.264C207.209 176.264 207.602 176.33 207.99 176.463C208.377 176.596 208.73 176.811 209.048 177.109C209.367 177.404 209.62 177.795 209.809 178.283C209.998 178.77 210.092 179.37 210.092 180.082V180.58H204.206V179.565H208.899C208.899 179.134 208.813 178.75 208.641 178.412C208.472 178.074 208.23 177.807 207.915 177.612C207.603 177.416 207.235 177.318 206.811 177.318C206.344 177.318 205.94 177.434 205.598 177.666C205.26 177.895 205 178.193 204.818 178.561C204.635 178.929 204.544 179.323 204.544 179.744V180.42C204.544 180.997 204.644 181.486 204.842 181.887C205.045 182.285 205.325 182.588 205.683 182.797C206.041 183.002 206.457 183.105 206.931 183.105C207.239 183.105 207.517 183.062 207.766 182.976C208.018 182.886 208.235 182.754 208.417 182.578C208.599 182.399 208.74 182.177 208.84 181.912L209.973 182.23C209.854 182.615 209.653 182.953 209.372 183.244C209.09 183.533 208.742 183.758 208.328 183.92C207.913 184.08 207.448 184.159 206.931 184.159ZM212.157 184V176.364H213.291V177.517H213.37C213.51 177.139 213.761 176.833 214.126 176.597C214.491 176.362 214.902 176.244 215.359 176.244C215.445 176.244 215.553 176.246 215.682 176.249C215.811 176.253 215.909 176.258 215.975 176.264V177.457C215.936 177.447 215.845 177.433 215.702 177.413C215.563 177.389 215.415 177.378 215.26 177.378C214.888 177.378 214.557 177.456 214.265 177.612C213.977 177.764 213.748 177.976 213.579 178.248C213.413 178.516 213.331 178.823 213.331 179.168V184H212.157ZM217.646 184V176.364H218.78V177.557H218.879C219.038 177.149 219.295 176.833 219.65 176.607C220.004 176.379 220.43 176.264 220.928 176.264C221.431 176.264 221.851 176.379 222.185 176.607C222.523 176.833 222.787 177.149 222.976 177.557H223.055C223.251 177.162 223.544 176.849 223.935 176.617C224.326 176.382 224.795 176.264 225.342 176.264C226.025 176.264 226.584 176.478 227.018 176.906C227.452 177.33 227.669 177.991 227.669 178.889V184H226.496V178.889C226.496 178.326 226.342 177.923 226.033 177.681C225.725 177.439 225.362 177.318 224.945 177.318C224.408 177.318 223.992 177.481 223.697 177.805C223.402 178.127 223.254 178.535 223.254 179.028V184H222.061V178.77C222.061 178.336 221.92 177.986 221.638 177.721C221.357 177.452 220.994 177.318 220.55 177.318C220.245 177.318 219.96 177.399 219.695 177.562C219.433 177.724 219.221 177.95 219.058 178.238C218.899 178.523 218.82 178.853 218.82 179.227V184H217.646ZM235.503 178.074L234.449 178.372C234.383 178.196 234.285 178.026 234.156 177.86C234.03 177.691 233.858 177.552 233.639 177.442C233.42 177.333 233.14 177.278 232.799 177.278C232.331 177.278 231.942 177.386 231.63 177.602C231.322 177.814 231.168 178.084 231.168 178.412C231.168 178.704 231.274 178.934 231.486 179.103C231.698 179.272 232.03 179.413 232.481 179.526L233.614 179.804C234.297 179.97 234.806 180.223 235.14 180.565C235.475 180.903 235.643 181.339 235.643 181.872C235.643 182.31 235.517 182.701 235.265 183.045C235.016 183.39 234.668 183.662 234.221 183.861C233.773 184.06 233.253 184.159 232.66 184.159C231.881 184.159 231.236 183.99 230.726 183.652C230.215 183.314 229.892 182.82 229.756 182.17L230.87 181.892C230.976 182.303 231.176 182.611 231.471 182.817C231.77 183.022 232.159 183.125 232.64 183.125C233.187 183.125 233.621 183.009 233.942 182.777C234.267 182.542 234.429 182.26 234.429 181.932C234.429 181.667 234.337 181.445 234.151 181.266C233.965 181.083 233.68 180.947 233.296 180.858L232.023 180.56C231.324 180.394 230.81 180.137 230.482 179.789C230.157 179.438 229.995 178.999 229.995 178.472C229.995 178.041 230.116 177.66 230.358 177.328C230.603 176.997 230.936 176.737 231.357 176.548C231.781 176.359 232.262 176.264 232.799 176.264C233.554 176.264 234.148 176.43 234.579 176.761C235.013 177.093 235.321 177.53 235.503 178.074Z" fill="#F9F9F9"/>
<path d="M195.733 228V217.818H199.173C199.972 217.818 200.625 217.962 201.132 218.251C201.643 218.536 202.02 218.922 202.266 219.409C202.511 219.896 202.634 220.44 202.634 221.04C202.634 221.64 202.511 222.185 202.266 222.675C202.024 223.166 201.649 223.557 201.142 223.849C200.635 224.137 199.985 224.281 199.193 224.281H196.727V223.188H199.153C199.7 223.188 200.139 223.093 200.471 222.904C200.802 222.715 201.043 222.46 201.192 222.138C201.344 221.814 201.42 221.447 201.42 221.04C201.42 220.632 201.344 220.268 201.192 219.946C201.043 219.625 200.801 219.373 200.466 219.19C200.131 219.005 199.687 218.912 199.134 218.912H196.966V228H195.733ZM204.741 228V220.364H205.874V221.517H205.954C206.093 221.139 206.345 220.833 206.709 220.597C207.074 220.362 207.485 220.244 207.942 220.244C208.028 220.244 208.136 220.246 208.265 220.249C208.395 220.253 208.492 220.258 208.559 220.264V221.457C208.519 221.447 208.428 221.433 208.285 221.413C208.146 221.389 207.999 221.378 207.843 221.378C207.472 221.378 207.14 221.456 206.849 221.612C206.56 221.764 206.331 221.976 206.162 222.248C205.997 222.516 205.914 222.823 205.914 223.168V228H204.741ZM210.23 228V220.364H211.403V228H210.23ZM210.826 219.091C210.597 219.091 210.4 219.013 210.235 218.857C210.072 218.701 209.991 218.514 209.991 218.295C209.991 218.077 210.072 217.889 210.235 217.734C210.4 217.578 210.597 217.5 210.826 217.5C211.055 217.5 211.25 217.578 211.413 217.734C211.579 217.889 211.661 218.077 211.661 218.295C211.661 218.514 211.579 218.701 211.413 218.857C211.25 219.013 211.055 219.091 210.826 219.091ZM220.076 220.364L217.252 228H216.059L213.235 220.364H214.508L216.616 226.449H216.695L218.803 220.364H220.076ZM223.92 228.179C223.436 228.179 222.996 228.088 222.602 227.906C222.208 227.72 221.894 227.453 221.662 227.105C221.43 226.754 221.314 226.33 221.314 225.832C221.314 225.395 221.401 225.04 221.573 224.768C221.745 224.493 221.976 224.278 222.264 224.122C222.552 223.966 222.871 223.85 223.219 223.774C223.57 223.695 223.923 223.632 224.277 223.585C224.742 223.526 225.118 223.481 225.406 223.451C225.698 223.418 225.91 223.363 226.042 223.287C226.178 223.211 226.246 223.078 226.246 222.889V222.849C226.246 222.359 226.112 221.978 225.844 221.706C225.578 221.434 225.176 221.298 224.635 221.298C224.075 221.298 223.636 221.421 223.318 221.666C223 221.911 222.776 222.173 222.647 222.452L221.533 222.054C221.732 221.59 221.997 221.229 222.329 220.97C222.663 220.708 223.028 220.526 223.422 220.423C223.82 220.317 224.211 220.264 224.596 220.264C224.841 220.264 225.123 220.294 225.441 220.354C225.762 220.41 226.072 220.528 226.371 220.707C226.672 220.886 226.922 221.156 227.121 221.517C227.32 221.878 227.42 222.362 227.42 222.969V228H226.246V226.966H226.187C226.107 227.132 225.974 227.309 225.789 227.498C225.603 227.687 225.356 227.848 225.048 227.98C224.74 228.113 224.364 228.179 223.92 228.179ZM224.099 227.125C224.563 227.125 224.954 227.034 225.272 226.852C225.593 226.669 225.835 226.434 225.998 226.146C226.163 225.857 226.246 225.554 226.246 225.236V224.162C226.197 224.222 226.087 224.276 225.918 224.326C225.752 224.372 225.56 224.414 225.341 224.45C225.126 224.483 224.916 224.513 224.71 224.54C224.508 224.563 224.344 224.583 224.218 224.599C223.913 224.639 223.628 224.704 223.363 224.793C223.101 224.879 222.889 225.01 222.726 225.186C222.567 225.358 222.488 225.594 222.488 225.892C222.488 226.3 222.639 226.608 222.94 226.817C223.245 227.022 223.631 227.125 224.099 227.125ZM232.943 228.159C232.227 228.159 231.611 227.99 231.094 227.652C230.577 227.314 230.179 226.848 229.901 226.255C229.622 225.662 229.483 224.984 229.483 224.222C229.483 223.446 229.626 222.762 229.911 222.168C230.199 221.572 230.6 221.106 231.114 220.771C231.631 220.433 232.234 220.264 232.923 220.264C233.46 220.264 233.944 220.364 234.375 220.562C234.806 220.761 235.159 221.04 235.434 221.398C235.709 221.756 235.88 222.173 235.946 222.651H234.773C234.683 222.303 234.485 221.994 234.176 221.726C233.871 221.454 233.46 221.318 232.943 221.318C232.486 221.318 232.085 221.437 231.74 221.676C231.399 221.911 231.132 222.245 230.94 222.675C230.751 223.103 230.656 223.605 230.656 224.182C230.656 224.772 230.749 225.286 230.935 225.723C231.124 226.161 231.389 226.5 231.73 226.742C232.075 226.984 232.479 227.105 232.943 227.105C233.248 227.105 233.525 227.052 233.774 226.946C234.022 226.84 234.233 226.688 234.405 226.489C234.577 226.29 234.7 226.051 234.773 225.773H235.946C235.88 226.223 235.716 226.629 235.454 226.991C235.195 227.349 234.852 227.634 234.425 227.846C234.001 228.055 233.507 228.159 232.943 228.159ZM238.697 230.864C238.498 230.864 238.321 230.847 238.165 230.814C238.009 230.784 237.902 230.754 237.842 230.724L238.14 229.69C238.425 229.763 238.677 229.79 238.896 229.77C239.115 229.75 239.309 229.652 239.478 229.477C239.65 229.304 239.807 229.024 239.95 228.636L240.169 228.04L237.345 220.364H238.618L240.725 226.449H240.805L242.913 220.364H244.186L240.944 229.114C240.798 229.508 240.618 229.835 240.402 230.093C240.187 230.355 239.937 230.549 239.652 230.675C239.37 230.801 239.052 230.864 238.697 230.864ZM250.391 228V217.818H253.831C254.63 217.818 255.283 217.962 255.79 218.251C256.3 218.536 256.678 218.922 256.924 219.409C257.169 219.896 257.291 220.44 257.291 221.04C257.291 221.64 257.169 222.185 256.924 222.675C256.682 223.166 256.307 223.557 255.8 223.849C255.293 224.137 254.643 224.281 253.851 224.281H251.385V223.188H253.811C254.358 223.188 254.797 223.093 255.129 222.904C255.46 222.715 255.701 222.46 255.85 222.138C256.002 221.814 256.078 221.447 256.078 221.04C256.078 220.632 256.002 220.268 255.85 219.946C255.701 219.625 255.459 219.373 255.124 219.19C254.789 219.005 254.345 218.912 253.791 218.912H251.624V228H250.391ZM262.419 228.159C261.729 228.159 261.125 227.995 260.604 227.667C260.087 227.339 259.683 226.88 259.391 226.29C259.103 225.7 258.959 225.01 258.959 224.222C258.959 223.426 259.103 222.732 259.391 222.138C259.683 221.545 260.087 221.085 260.604 220.756C261.125 220.428 261.729 220.264 262.419 220.264C263.108 220.264 263.711 220.428 264.228 220.756C264.749 221.085 265.153 221.545 265.442 222.138C265.733 222.732 265.879 223.426 265.879 224.222C265.879 225.01 265.733 225.7 265.442 226.29C265.153 226.88 264.749 227.339 264.228 227.667C263.711 227.995 263.108 228.159 262.419 228.159ZM262.419 227.105C262.942 227.105 263.373 226.971 263.711 226.702C264.049 226.434 264.3 226.081 264.462 225.643C264.625 225.206 264.706 224.732 264.706 224.222C264.706 223.711 264.625 223.236 264.462 222.795C264.3 222.354 264.049 221.998 263.711 221.726C263.373 221.454 262.942 221.318 262.419 221.318C261.895 221.318 261.464 221.454 261.126 221.726C260.788 221.998 260.538 222.354 260.375 222.795C260.213 223.236 260.132 223.711 260.132 224.222C260.132 224.732 260.213 225.206 260.375 225.643C260.538 226.081 260.788 226.434 261.126 226.702C261.464 226.971 261.895 227.105 262.419 227.105ZM269.123 217.818V228H267.95V217.818H269.123ZM271.552 228V220.364H272.726V228H271.552ZM272.149 219.091C271.92 219.091 271.723 219.013 271.557 218.857C271.395 218.701 271.314 218.514 271.314 218.295C271.314 218.077 271.395 217.889 271.557 217.734C271.723 217.578 271.92 217.5 272.149 217.5C272.378 217.5 272.573 217.578 272.736 217.734C272.901 217.889 272.984 218.077 272.984 218.295C272.984 218.514 272.901 218.701 272.736 218.857C272.573 219.013 272.378 219.091 272.149 219.091ZM278.257 228.159C277.541 228.159 276.924 227.99 276.407 227.652C275.89 227.314 275.493 226.848 275.214 226.255C274.936 225.662 274.797 224.984 274.797 224.222C274.797 223.446 274.939 222.762 275.224 222.168C275.513 221.572 275.914 221.106 276.427 220.771C276.944 220.433 277.548 220.264 278.237 220.264C278.774 220.264 279.258 220.364 279.689 220.562C280.12 220.761 280.473 221.04 280.748 221.398C281.023 221.756 281.193 222.173 281.26 222.651H280.086C279.997 222.303 279.798 221.994 279.49 221.726C279.185 221.454 278.774 221.318 278.257 221.318C277.799 221.318 277.398 221.437 277.054 221.676C276.712 221.911 276.446 222.245 276.253 222.675C276.064 223.103 275.97 223.605 275.97 224.182C275.97 224.772 276.063 225.286 276.248 225.723C276.437 226.161 276.702 226.5 277.044 226.742C277.388 226.984 277.793 227.105 278.257 227.105C278.562 227.105 278.839 227.052 279.087 226.946C279.336 226.84 279.546 226.688 279.718 226.489C279.891 226.29 280.013 226.051 280.086 225.773H281.26C281.193 226.223 281.029 226.629 280.767 226.991C280.509 227.349 280.166 227.634 279.738 227.846C279.314 228.055 278.82 228.159 278.257 228.159ZM284.011 230.864C283.812 230.864 283.634 230.847 283.479 230.814C283.323 230.784 283.215 230.754 283.155 230.724L283.454 229.69C283.739 229.763 283.991 229.79 284.209 229.77C284.428 229.75 284.622 229.652 284.791 229.477C284.963 229.304 285.121 229.024 285.263 228.636L285.482 228.04L282.658 220.364H283.931L286.039 226.449H286.119L288.226 220.364H289.499L286.258 229.114C286.112 229.508 285.931 229.835 285.716 230.093C285.5 230.355 285.25 230.549 284.965 230.675C284.683 230.801 284.365 230.864 284.011 230.864Z" fill="#F9F9F9"/>
<path d="M116.182 358.233C116.119 358.195 116.069 358.14 116.037 358.074C116.005 358.008 115.992 357.934 116 357.862C116.008 357.789 116.037 357.72 116.083 357.663C116.129 357.605 116.19 357.563 116.259 357.539C117.665 357.053 119.161 356.886 120.638 357.051C122.116 357.216 123.539 357.709 124.802 358.494C124.849 358.522 124.89 358.559 124.921 358.604C124.952 358.649 124.974 358.7 124.984 358.754C124.994 358.808 124.992 358.863 124.979 358.916C124.966 358.97 124.942 359.019 124.908 359.062C123.787 360.485 122.418 361.694 120.868 362.63C119.613 360.868 118.02 359.373 116.182 358.233ZM119.489 363.353C118.078 361.435 116.226 359.884 114.09 358.831C114.027 358.802 113.957 358.79 113.888 358.795C113.819 358.8 113.753 358.822 113.694 358.86C111.966 360.105 110.674 361.862 110.001 363.883C109.985 363.935 109.98 363.989 109.987 364.042C109.993 364.096 110.01 364.147 110.037 364.193C110.065 364.24 110.101 364.28 110.145 364.311C110.188 364.342 110.238 364.364 110.291 364.375C111.298 364.593 112.326 364.703 113.357 364.703C115.475 364.706 117.568 364.245 119.489 363.353ZM129.498 365.928C129.251 363.691 128.26 361.602 126.682 359.998C126.643 359.96 126.597 359.93 126.546 359.911C126.495 359.892 126.441 359.883 126.387 359.886C126.332 359.889 126.279 359.903 126.231 359.927C126.182 359.951 126.139 359.985 126.104 360.027C124.885 361.583 123.391 362.903 121.697 363.922C122.226 364.839 122.665 365.804 123.009 366.805C124.389 366.432 125.812 366.244 127.242 366.246C127.854 366.247 128.465 366.283 129.074 366.352C129.131 366.358 129.189 366.351 129.243 366.332C129.297 366.313 129.346 366.282 129.387 366.241C129.428 366.2 129.459 366.151 129.478 366.097C129.497 366.043 129.504 365.985 129.498 365.928ZM123.433 368.29C123.716 369.507 123.859 370.753 123.857 372.002C123.856 373.196 123.724 374.386 123.462 375.551C123.445 375.622 123.448 375.697 123.472 375.767C123.497 375.836 123.54 375.898 123.598 375.943C123.656 375.989 123.725 376.017 123.799 376.024C123.872 376.032 123.946 376.018 124.011 375.984C125.475 375.253 126.737 374.174 127.688 372.843C128.639 371.512 129.25 369.969 129.469 368.348C129.476 368.297 129.472 368.246 129.459 368.196C129.446 368.147 129.422 368.101 129.391 368.06C129.36 368.02 129.321 367.986 129.276 367.961C129.231 367.936 129.182 367.92 129.131 367.914C128.505 367.828 127.874 367.786 127.242 367.789C125.955 367.787 124.675 367.956 123.433 368.29ZM121.533 367.287C121.228 366.373 120.827 365.494 120.338 364.665C118.159 365.708 115.773 366.248 113.357 366.246C112.226 366.245 111.098 366.126 109.992 365.889C109.938 365.878 109.883 365.878 109.829 365.89C109.776 365.902 109.726 365.925 109.682 365.958C109.638 365.991 109.602 366.033 109.576 366.081C109.549 366.129 109.533 366.182 109.529 366.236C109.51 366.493 109.5 366.754 109.5 367.017C109.5 368.39 109.782 369.749 110.329 371.008C110.877 372.267 111.678 373.4 112.682 374.336C112.723 374.375 112.773 374.405 112.828 374.423C112.883 374.44 112.941 374.445 112.997 374.436C113.054 374.428 113.108 374.407 113.155 374.374C113.203 374.342 113.242 374.299 113.27 374.249C115.151 371.055 118.067 368.599 121.533 367.287ZM114.485 375.232C114.459 375.277 114.443 375.325 114.436 375.376C114.429 375.427 114.433 375.478 114.446 375.528C114.46 375.577 114.483 375.623 114.514 375.664C114.546 375.704 114.585 375.738 114.63 375.763C116.124 376.607 117.812 377.048 119.528 377.045C120.113 377.048 120.697 376.996 121.273 376.891C121.34 376.88 121.402 376.85 121.453 376.806C121.504 376.762 121.542 376.704 121.562 376.64C122.062 375.145 122.316 373.579 122.314 372.002C122.314 370.916 122.194 369.833 121.958 368.772C118.799 370.004 116.161 372.285 114.485 375.232Z" fill="#F9F9F9"/>
<path d="M171.495 376.375C168.934 376.375 168.632 376.361 167.632 376.318C166.853 376.292 166.084 376.134 165.358 375.85C164.101 375.362 163.108 374.369 162.62 373.115C162.346 372.387 162.199 371.618 162.183 370.841C162.125 369.845 162.125 369.519 162.125 366.981C162.125 364.417 162.139 364.117 162.183 363.124C162.199 362.348 162.346 361.581 162.62 360.854C163.107 359.598 164.102 358.604 165.361 358.118C166.088 357.844 166.857 357.696 167.634 357.681C168.629 357.625 168.956 357.625 171.495 357.625C174.077 357.625 174.373 357.639 175.357 357.681C176.137 357.696 176.908 357.844 177.637 358.118C178.895 358.605 179.89 359.598 180.378 360.854C180.657 361.591 180.805 362.371 180.817 363.159C180.875 364.155 180.875 364.48 180.875 367.017C180.875 369.553 180.86 369.886 180.817 370.87C180.801 371.648 180.653 372.418 180.379 373.146C179.89 374.402 178.895 375.394 177.637 375.882C176.909 376.155 176.139 376.302 175.361 376.318C174.367 376.375 174.041 376.375 171.495 376.375ZM171.459 359.271C168.913 359.271 168.648 359.283 167.654 359.328C167.061 359.336 166.473 359.445 165.917 359.651C165.095 359.965 164.445 360.612 164.127 361.431C163.919 361.993 163.809 362.586 163.803 363.185C163.748 364.192 163.748 364.456 163.748 366.981C163.748 369.476 163.757 369.779 163.803 370.78C163.813 371.373 163.922 371.96 164.127 372.516C164.445 373.335 165.095 373.981 165.917 374.295C166.473 374.502 167.061 374.612 167.654 374.618C168.662 374.676 168.927 374.676 171.459 374.676C174.013 374.676 174.278 374.664 175.264 374.618C175.857 374.611 176.446 374.502 177.002 374.295C177.819 373.978 178.465 373.333 178.782 372.518C178.99 371.956 179.1 371.362 179.106 370.763H179.118C179.162 369.769 179.162 369.504 179.162 366.965C179.162 364.425 179.151 364.158 179.106 363.165C179.097 362.573 178.987 361.987 178.782 361.431C178.466 360.614 177.819 359.969 177.002 359.651C176.446 359.444 175.857 359.335 175.264 359.328C174.257 359.271 173.993 359.271 171.459 359.271ZM171.495 371.783C169.548 371.784 167.792 370.614 167.046 368.819C166.3 367.023 166.711 364.955 168.087 363.58C169.463 362.205 171.533 361.793 173.332 362.536C175.131 363.28 176.304 365.032 176.305 366.976C176.302 369.628 174.151 371.778 171.495 371.783ZM171.495 363.855C169.77 363.855 168.372 365.252 168.372 366.974C168.372 368.696 169.77 370.093 171.495 370.093C173.22 370.093 174.618 368.696 174.618 366.974C174.614 365.253 173.218 363.859 171.495 363.855ZM176.492 363.114C175.873 363.112 175.373 362.609 175.374 361.991C175.375 361.373 175.877 360.873 176.496 360.873C177.115 360.873 177.617 361.373 177.618 361.991C177.619 362.289 177.5 362.576 177.289 362.786C177.077 362.997 176.791 363.115 176.492 363.114Z" fill="#F9F9F9"/>
<path fill-rule="evenodd" clip-rule="evenodd" d="M218.312 360.153C218.312 361.191 217.522 362.031 216.287 362.031C215.099 362.031 214.309 361.191 214.334 360.153C214.309 359.065 215.099 358.25 216.31 358.25C217.522 358.25 218.288 359.065 218.312 360.153ZM214.433 375.599V363.514H218.189V375.599H214.433V375.599Z" fill="#F9F9F9"/>
<path fill-rule="evenodd" clip-rule="evenodd" d="M221.2 367.371C221.2 365.863 221.15 364.578 221.1 363.515H224.363L224.536 365.171H224.611C225.105 364.404 226.34 363.244 228.342 363.244C230.813 363.244 232.667 364.875 232.667 368.433V375.601H228.911V368.903C228.911 367.345 228.367 366.283 227.008 366.283C225.97 366.283 225.352 367 225.106 367.691C225.006 367.939 224.957 368.284 224.957 368.631V375.601H221.201V367.371H221.2Z" fill="#F9F9F9"/>
<path d="M66.5 420.636C66.5 420.17 66.6136 419.746 66.8409 419.362C67.0682 418.979 67.3736 418.673 67.7571 418.446C68.1406 418.219 68.5653 418.105 69.0312 418.105C69.4347 418.105 69.8068 418.192 70.1477 418.365C70.4915 418.538 70.7756 418.776 71 419.077C71.2244 419.375 71.3636 419.713 71.4176 420.091H70.3864C70.3295 419.798 70.1719 419.56 69.9134 419.375C69.6548 419.188 69.3608 419.094 69.0312 419.094C68.7472 419.094 68.4886 419.163 68.2557 419.303C68.0227 419.442 67.8366 419.628 67.6974 419.861C67.5582 420.094 67.4886 420.352 67.4886 420.636C67.4886 420.92 67.5582 421.179 67.6974 421.412C67.8366 421.645 68.0227 421.831 68.2557 421.97C68.4886 422.109 68.7472 422.179 69.0312 422.179C69.3608 422.179 69.6392 422.087 69.8665 421.902C70.0966 421.714 70.2415 421.474 70.3011 421.182H71.3324C71.2784 421.56 71.1463 421.899 70.9361 422.2C70.7259 422.499 70.456 422.734 70.1264 422.908C69.7997 423.081 69.4347 423.168 69.0312 423.168C68.5653 423.168 68.1406 423.054 67.7571 422.827C67.3736 422.599 67.0682 422.294 66.8409 421.911C66.6136 421.527 66.5 421.102 66.5 420.636ZM68.9886 425.136C68.3693 425.136 67.7869 425.02 67.2415 424.787C66.6989 424.554 66.2202 424.232 65.8054 423.82C65.3935 423.405 65.0696 422.926 64.8338 422.384C64.6009 421.841 64.4858 421.259 64.4886 420.636C64.4915 420.014 64.6094 419.432 64.8423 418.889C65.0781 418.347 65.402 417.869 65.8139 417.457C66.2259 417.043 66.7031 416.719 67.2457 416.486C67.7884 416.253 68.3693 416.136 68.9886 416.136C69.6108 416.136 70.1932 416.253 70.7358 416.486C71.2813 416.719 71.7585 417.043 72.1676 417.457C72.5795 417.869 72.902 418.347 73.1349 418.889C73.3679 419.432 73.4858 420.014 73.4886 420.636C73.4915 421.259 73.3764 421.841 73.1435 422.384C72.9105 422.926 72.5881 423.405 72.1761 423.82C71.7642 424.232 71.2855 424.554 70.7401 424.787C70.1946 425.02 69.6108 425.136 68.9886 425.136ZM68.9886 424.148C69.4744 424.148 69.9304 424.057 70.3565 423.875C70.7827 423.693 71.1562 423.442 71.4773 423.121C71.7983 422.8 72.0497 422.428 72.2315 422.004C72.4134 421.578 72.5028 421.124 72.5 420.641C72.4972 420.155 72.4048 419.699 72.223 419.273C72.0412 418.847 71.7898 418.473 71.4688 418.152C71.1477 417.831 70.7756 417.58 70.3523 417.398C69.929 417.216 69.4744 417.125 68.9886 417.125C68.5057 417.125 68.0526 417.216 67.6293 417.398C67.206 417.58 66.8338 417.832 66.5128 418.156C66.1918 418.477 65.9389 418.851 65.7543 419.277C65.5724 419.7 65.4801 420.155 65.4773 420.641C65.4744 421.121 65.5639 421.574 65.7457 422C65.9276 422.423 66.179 422.795 66.5 423.116C66.8239 423.437 67.1974 423.69 67.6207 423.875C68.0469 424.057 68.5028 424.148 68.9886 424.148ZM79.2389 425V424.233L82.1196 421.08C82.4576 420.71 82.736 420.389 82.9548 420.116C83.1735 419.841 83.3355 419.582 83.4406 419.341C83.5485 419.097 83.6025 418.841 83.6025 418.574C83.6025 418.267 83.5287 418.001 83.3809 417.777C83.236 417.553 83.0372 417.379 82.7843 417.257C82.5315 417.135 82.2474 417.074 81.9321 417.074C81.5968 417.074 81.3042 417.143 81.0542 417.283C80.8071 417.419 80.6153 417.611 80.4789 417.858C80.3454 418.105 80.2787 418.395 80.2787 418.727H79.273C79.273 418.216 79.3909 417.767 79.6267 417.381C79.8625 416.994 80.1835 416.693 80.5897 416.477C80.9988 416.261 81.4576 416.153 81.9662 416.153C82.4775 416.153 82.9306 416.261 83.3255 416.477C83.7204 416.693 84.0301 416.984 84.2545 417.351C84.4789 417.717 84.5912 418.125 84.5912 418.574C84.5912 418.895 84.5329 419.209 84.4164 419.516C84.3028 419.82 84.1039 420.159 83.8198 420.534C83.5386 420.906 83.148 421.361 82.648 421.898L80.6877 423.994V424.062H84.7446V425H79.2389ZM89.5911 425.119C88.949 425.119 88.4022 424.945 87.9505 424.595C87.4988 424.243 87.1536 423.733 86.915 423.065C86.6763 422.395 86.557 421.585 86.557 420.636C86.557 419.693 86.6763 418.888 86.915 418.22C87.1564 417.55 87.503 417.038 87.9547 416.686C88.4093 416.331 88.9547 416.153 89.5911 416.153C90.2275 416.153 90.7715 416.331 91.2232 416.686C91.6777 417.038 92.0243 417.55 92.263 418.22C92.5044 418.888 92.6252 419.693 92.6252 420.636C92.6252 421.585 92.5059 422.395 92.2672 423.065C92.0286 423.733 91.6834 424.243 91.2317 424.595C90.78 424.945 90.2331 425.119 89.5911 425.119ZM89.5911 424.182C90.2275 424.182 90.7218 423.875 91.074 423.261C91.4263 422.648 91.6025 421.773 91.6025 420.636C91.6025 419.881 91.5215 419.237 91.3596 418.706C91.2005 418.175 90.9704 417.77 90.6692 417.491C90.3709 417.213 90.0115 417.074 89.5911 417.074C88.9604 417.074 88.4675 417.385 88.1124 418.007C87.7573 418.626 87.5797 419.503 87.5797 420.636C87.5797 421.392 87.6593 422.034 87.8184 422.562C87.9775 423.091 88.2061 423.493 88.5044 423.768C88.8056 424.044 89.1678 424.182 89.5911 424.182ZM94.4845 425V424.233L97.3652 421.08C97.7033 420.71 97.9817 420.389 98.2004 420.116C98.4192 419.841 98.5811 419.582 98.6862 419.341C98.7942 419.097 98.8481 418.841 98.8481 418.574C98.8481 418.267 98.7743 418.001 98.6265 417.777C98.4817 417.553 98.2828 417.379 98.03 417.257C97.7771 417.135 97.493 417.074 97.1777 417.074C96.8425 417.074 96.5498 417.143 96.2998 417.283C96.0527 417.419 95.8609 417.611 95.7246 417.858C95.591 418.105 95.5243 418.395 95.5243 418.727H94.5186C94.5186 418.216 94.6365 417.767 94.8723 417.381C95.1081 416.994 95.4291 416.693 95.8354 416.477C96.2444 416.261 96.7033 416.153 97.2118 416.153C97.7231 416.153 98.1763 416.261 98.5711 416.477C98.966 416.693 99.2757 416.984 99.5001 417.351C99.7246 417.717 99.8368 418.125 99.8368 418.574C99.8368 418.895 99.7785 419.209 99.6621 419.516C99.5484 419.82 99.3496 420.159 99.0655 420.534C98.7842 420.906 98.3936 421.361 97.8936 421.898L95.9334 423.994V424.062H99.9902V425H94.4845ZM101.99 425V424.233L104.871 421.08C105.209 420.71 105.487 420.389 105.706 420.116C105.925 419.841 106.087 419.582 106.192 419.341C106.3 419.097 106.354 418.841 106.354 418.574C106.354 418.267 106.28 418.001 106.132 417.777C105.987 417.553 105.788 417.379 105.536 417.257C105.283 417.135 104.999 417.074 104.683 417.074C104.348 417.074 104.055 417.143 103.805 417.283C103.558 417.419 103.367 417.611 103.23 417.858C103.097 418.105 103.03 418.395 103.03 418.727H102.024C102.024 418.216 102.142 417.767 102.378 417.381C102.614 416.994 102.935 416.693 103.341 416.477C103.75 416.261 104.209 416.153 104.717 416.153C105.229 416.153 105.682 416.261 106.077 416.477C106.472 416.693 106.781 416.984 107.006 417.351C107.23 417.717 107.342 418.125 107.342 418.574C107.342 418.895 107.284 419.209 107.168 419.516C107.054 419.82 106.855 420.159 106.571 420.534C106.29 420.906 105.899 421.361 105.399 421.898L103.439 423.994V424.062H107.496V425H101.99ZM113.264 425V416.273H116.213C116.898 416.273 117.457 416.396 117.892 416.643C118.33 416.888 118.653 417.219 118.864 417.636C119.074 418.054 119.179 418.52 119.179 419.034C119.179 419.548 119.074 420.016 118.864 420.436C118.656 420.857 118.335 421.192 117.901 421.442C117.466 421.689 116.909 421.812 116.23 421.812H114.116V420.875H116.196C116.665 420.875 117.041 420.794 117.325 420.632C117.609 420.47 117.815 420.251 117.943 419.976C118.074 419.697 118.139 419.384 118.139 419.034C118.139 418.685 118.074 418.372 117.943 418.097C117.815 417.821 117.608 417.605 117.321 417.449C117.034 417.29 116.653 417.21 116.179 417.21H114.321V425H113.264ZM123.574 425.136C122.983 425.136 122.464 424.996 122.018 424.714C121.575 424.433 121.229 424.04 120.979 423.534C120.731 423.028 120.608 422.437 120.608 421.761C120.608 421.08 120.731 420.484 120.979 419.976C121.229 419.467 121.575 419.072 122.018 418.791C122.464 418.51 122.983 418.369 123.574 418.369C124.165 418.369 124.682 418.51 125.125 418.791C125.571 419.072 125.918 419.467 126.165 419.976C126.415 420.484 126.54 421.08 126.54 421.761C126.54 422.437 126.415 423.028 126.165 423.534C125.918 424.04 125.571 424.433 125.125 424.714C124.682 424.996 124.165 425.136 123.574 425.136ZM123.574 424.233C124.023 424.233 124.392 424.118 124.682 423.888C124.971 423.658 125.186 423.355 125.325 422.98C125.464 422.605 125.534 422.199 125.534 421.761C125.534 421.324 125.464 420.916 125.325 420.538C125.186 420.161 124.971 419.855 124.682 419.622C124.392 419.389 124.023 419.273 123.574 419.273C123.125 419.273 122.756 419.389 122.466 419.622C122.176 419.855 121.962 420.161 121.822 420.538C121.683 420.916 121.614 421.324 121.614 421.761C121.614 422.199 121.683 422.605 121.822 422.98C121.962 423.355 122.176 423.658 122.466 423.888C122.756 424.118 123.125 424.233 123.574 424.233ZM129.321 416.273V425H128.315V416.273H129.321ZM131.402 425V418.455H132.408V425H131.402ZM131.914 417.364C131.718 417.364 131.549 417.297 131.407 417.163C131.268 417.03 131.198 416.869 131.198 416.682C131.198 416.494 131.268 416.334 131.407 416.2C131.549 416.067 131.718 416 131.914 416C132.11 416 132.277 416.067 132.417 416.2C132.559 416.334 132.63 416.494 132.63 416.682C132.63 416.869 132.559 417.03 132.417 417.163C132.277 417.297 132.11 417.364 131.914 417.364ZM137.149 425.136C136.536 425.136 136.007 424.991 135.564 424.702C135.121 424.412 134.78 424.013 134.541 423.504C134.303 422.996 134.183 422.415 134.183 421.761C134.183 421.097 134.305 420.51 134.55 420.001C134.797 419.49 135.141 419.091 135.581 418.804C136.024 418.514 136.541 418.369 137.132 418.369C137.592 418.369 138.007 418.455 138.377 418.625C138.746 418.795 139.048 419.034 139.284 419.341C139.52 419.648 139.666 420.006 139.723 420.415H138.717C138.641 420.116 138.47 419.852 138.206 419.622C137.945 419.389 137.592 419.273 137.149 419.273C136.757 419.273 136.413 419.375 136.118 419.58C135.825 419.781 135.597 420.067 135.432 420.436C135.27 420.803 135.189 421.233 135.189 421.727C135.189 422.233 135.269 422.673 135.428 423.048C135.59 423.423 135.817 423.714 136.109 423.922C136.405 424.129 136.752 424.233 137.149 424.233C137.411 424.233 137.648 424.188 137.861 424.097C138.074 424.006 138.254 423.875 138.402 423.705C138.55 423.534 138.655 423.33 138.717 423.091H139.723C139.666 423.477 139.526 423.825 139.301 424.135C139.08 424.442 138.786 424.686 138.419 424.868C138.055 425.047 137.632 425.136 137.149 425.136ZM141.433 425V418.455H142.439V425H141.433ZM141.945 417.364C141.749 417.364 141.58 417.297 141.438 417.163C141.298 417.03 141.229 416.869 141.229 416.682C141.229 416.494 141.298 416.334 141.438 416.2C141.58 416.067 141.749 416 141.945 416C142.141 416 142.308 416.067 142.447 416.2C142.59 416.334 142.661 416.494 142.661 416.682C142.661 416.869 142.59 417.03 142.447 417.163C142.308 417.297 142.141 417.364 141.945 417.364ZM147.436 418.455V419.307H143.907V418.455H147.436ZM144.964 425V417.551C144.964 417.176 145.052 416.864 145.228 416.614C145.404 416.364 145.633 416.176 145.914 416.051C146.196 415.926 146.493 415.864 146.805 415.864C147.052 415.864 147.254 415.884 147.41 415.923C147.566 415.963 147.683 416 147.76 416.034L147.47 416.903C147.419 416.886 147.348 416.865 147.257 416.839C147.169 416.814 147.052 416.801 146.907 416.801C146.575 416.801 146.335 416.885 146.187 417.053C146.042 417.22 145.97 417.466 145.97 417.79V425H144.964ZM149.733 427.455C149.562 427.455 149.41 427.44 149.277 427.412C149.143 427.386 149.051 427.361 149 427.335L149.256 426.449C149.5 426.511 149.716 426.534 149.903 426.517C150.091 426.5 150.257 426.416 150.402 426.266C150.55 426.118 150.685 425.878 150.807 425.545L150.994 425.034L148.574 418.455H149.665L151.472 423.67H151.54L153.347 418.455H154.437L151.659 425.955C151.534 426.293 151.379 426.572 151.195 426.794C151.01 427.018 150.795 427.185 150.551 427.293C150.31 427.401 150.037 427.455 149.733 427.455ZM156.328 425.068C156.117 425.068 155.937 424.993 155.786 424.842C155.636 424.692 155.561 424.511 155.561 424.301C155.561 424.091 155.636 423.911 155.786 423.76C155.937 423.609 156.117 423.534 156.328 423.534C156.538 423.534 156.718 423.609 156.869 423.76C157.019 423.911 157.095 424.091 157.095 424.301C157.095 424.44 157.059 424.568 156.988 424.685C156.92 424.801 156.828 424.895 156.711 424.966C156.598 425.034 156.47 425.068 156.328 425.068ZM163.249 425H162.141L165.345 416.273H166.436L169.641 425H168.533L165.925 417.653H165.857L163.249 425ZM163.658 421.591H168.124V422.528H163.658V421.591ZM172.109 416.273V425H171.104V416.273H172.109ZM175.197 416.273V425H174.191V416.273H175.197ZM181.03 425V416.273H183.979C184.661 416.273 185.221 416.389 185.658 416.622C186.096 416.852 186.42 417.169 186.63 417.572C186.84 417.976 186.945 418.435 186.945 418.949C186.945 419.463 186.84 419.919 186.63 420.317C186.42 420.714 186.097 421.027 185.663 421.254C185.228 421.479 184.672 421.591 183.996 421.591H181.61V420.636H183.962C184.428 420.636 184.803 420.568 185.087 420.432C185.374 420.295 185.582 420.102 185.709 419.852C185.84 419.599 185.905 419.298 185.905 418.949C185.905 418.599 185.84 418.294 185.709 418.033C185.579 417.771 185.37 417.57 185.083 417.428C184.796 417.283 184.417 417.21 183.945 417.21H182.087V425H181.03ZM185.138 421.08L187.286 425H186.059L183.945 421.08H185.138ZM188.81 425V418.455H189.816V425H188.81ZM189.321 417.364C189.125 417.364 188.956 417.297 188.814 417.163C188.675 417.03 188.605 416.869 188.605 416.682C188.605 416.494 188.675 416.334 188.814 416.2C188.956 416.067 189.125 416 189.321 416C189.517 416 189.685 416.067 189.824 416.2C189.966 416.334 190.037 416.494 190.037 416.682C190.037 416.869 189.966 417.03 189.824 417.163C189.685 417.297 189.517 417.364 189.321 417.364ZM194.54 427.591C194.054 427.591 193.636 427.528 193.287 427.403C192.937 427.281 192.646 427.119 192.413 426.918C192.183 426.719 192 426.506 191.863 426.278L192.665 425.716C192.755 425.835 192.87 425.972 193.01 426.125C193.149 426.281 193.339 426.416 193.581 426.53C193.825 426.646 194.145 426.705 194.54 426.705C195.068 426.705 195.504 426.577 195.848 426.321C196.192 426.065 196.363 425.665 196.363 425.119V423.79H196.278C196.204 423.909 196.099 424.057 195.963 424.233C195.829 424.406 195.636 424.561 195.383 424.697C195.133 424.831 194.795 424.898 194.369 424.898C193.841 424.898 193.366 424.773 192.946 424.523C192.528 424.273 192.197 423.909 191.953 423.432C191.711 422.955 191.591 422.375 191.591 421.693C191.591 421.023 191.709 420.439 191.944 419.942C192.18 419.442 192.508 419.055 192.929 418.783C193.349 418.507 193.835 418.369 194.386 418.369C194.812 418.369 195.15 418.44 195.4 418.582C195.653 418.722 195.846 418.881 195.98 419.06C196.116 419.236 196.221 419.381 196.295 419.494H196.397V418.455H197.369V425.188C197.369 425.75 197.241 426.207 196.986 426.56C196.733 426.915 196.392 427.175 195.963 427.339C195.537 427.507 195.062 427.591 194.54 427.591ZM194.505 423.994C194.909 423.994 195.25 423.902 195.528 423.717C195.807 423.533 196.018 423.267 196.163 422.92C196.308 422.574 196.38 422.159 196.38 421.676C196.38 421.205 196.309 420.788 196.167 420.428C196.025 420.067 195.815 419.784 195.537 419.58C195.258 419.375 194.915 419.273 194.505 419.273C194.079 419.273 193.724 419.381 193.44 419.597C193.159 419.812 192.947 420.102 192.805 420.466C192.666 420.83 192.596 421.233 192.596 421.676C192.596 422.131 192.667 422.533 192.809 422.882C192.954 423.229 193.167 423.501 193.449 423.7C193.733 423.896 194.085 423.994 194.505 423.994ZM200.456 421.062V425H199.45V416.273H200.456V419.477H200.541C200.694 419.139 200.924 418.871 201.231 418.672C201.541 418.47 201.953 418.369 202.467 418.369C202.913 418.369 203.304 418.459 203.639 418.638C203.974 418.814 204.234 419.085 204.419 419.452C204.606 419.815 204.7 420.278 204.7 420.841V425H203.694V420.909C203.694 420.389 203.559 419.987 203.289 419.703C203.022 419.416 202.652 419.273 202.177 419.273C201.848 419.273 201.552 419.342 201.291 419.482C201.032 419.621 200.828 419.824 200.677 420.091C200.53 420.358 200.456 420.682 200.456 421.062ZM209.626 418.455V419.307H206.234V418.455H209.626ZM207.223 416.886H208.229V423.125C208.229 423.409 208.27 423.622 208.352 423.764C208.438 423.903 208.545 423.997 208.676 424.045C208.81 424.091 208.95 424.114 209.098 424.114C209.209 424.114 209.3 424.108 209.371 424.097C209.442 424.082 209.499 424.071 209.541 424.062L209.746 424.966C209.678 424.991 209.582 425.017 209.46 425.043C209.338 425.071 209.183 425.085 208.996 425.085C208.712 425.085 208.433 425.024 208.161 424.902C207.891 424.78 207.666 424.594 207.487 424.344C207.311 424.094 207.223 423.778 207.223 423.398V416.886ZM215.898 419.92L214.995 420.176C214.938 420.026 214.854 419.879 214.744 419.737C214.636 419.592 214.488 419.473 214.3 419.379C214.113 419.286 213.873 419.239 213.58 419.239C213.18 419.239 212.846 419.331 212.579 419.516C212.315 419.697 212.182 419.929 212.182 420.21C212.182 420.46 212.273 420.658 212.455 420.803C212.637 420.947 212.921 421.068 213.307 421.165L214.279 421.403C214.864 421.545 215.3 421.763 215.587 422.055C215.874 422.345 216.018 422.719 216.018 423.176C216.018 423.551 215.91 423.886 215.694 424.182C215.481 424.477 215.182 424.71 214.799 424.881C214.415 425.051 213.969 425.136 213.461 425.136C212.793 425.136 212.241 424.991 211.803 424.702C211.366 424.412 211.089 423.989 210.972 423.432L211.927 423.193C212.018 423.545 212.19 423.81 212.442 423.986C212.698 424.162 213.032 424.25 213.444 424.25C213.913 424.25 214.285 424.151 214.56 423.952C214.839 423.75 214.978 423.509 214.978 423.227C214.978 423 214.898 422.81 214.739 422.656C214.58 422.5 214.336 422.384 214.006 422.307L212.915 422.051C212.316 421.909 211.876 421.689 211.594 421.391C211.316 421.089 211.177 420.713 211.177 420.261C211.177 419.892 211.28 419.565 211.488 419.281C211.698 418.997 211.984 418.774 212.344 418.612C212.708 418.45 213.12 418.369 213.58 418.369C214.228 418.369 214.736 418.511 215.106 418.795C215.478 419.08 215.742 419.455 215.898 419.92ZM221.523 425V416.273H224.472C225.154 416.273 225.713 416.389 226.151 416.622C226.588 416.852 226.912 417.169 227.122 417.572C227.333 417.976 227.438 418.435 227.438 418.949C227.438 419.463 227.333 419.919 227.122 420.317C226.912 420.714 226.59 421.027 226.155 421.254C225.72 421.479 225.165 421.591 224.489 421.591H222.102V420.636H224.455C224.921 420.636 225.296 420.568 225.58 420.432C225.867 420.295 226.074 420.102 226.202 419.852C226.333 419.599 226.398 419.298 226.398 418.949C226.398 418.599 226.333 418.294 226.202 418.033C226.071 417.771 225.862 417.57 225.575 417.428C225.289 417.283 224.909 417.21 224.438 417.21H222.58V425H221.523ZM225.631 421.08L227.779 425H226.551L224.438 421.08H225.631ZM231.976 425.136C231.346 425.136 230.802 424.997 230.344 424.719C229.89 424.438 229.539 424.045 229.292 423.543C229.047 423.037 228.925 422.449 228.925 421.778C228.925 421.108 229.047 420.517 229.292 420.006C229.539 419.491 229.883 419.091 230.323 418.804C230.766 418.514 231.283 418.369 231.874 418.369C232.215 418.369 232.552 418.426 232.884 418.54C233.216 418.653 233.519 418.838 233.792 419.094C234.064 419.347 234.282 419.682 234.444 420.099C234.606 420.517 234.687 421.031 234.687 421.642V422.068H229.641V421.199H233.664C233.664 420.83 233.59 420.5 233.442 420.21C233.297 419.92 233.09 419.692 232.82 419.524C232.553 419.357 232.238 419.273 231.874 419.273C231.474 419.273 231.127 419.372 230.834 419.571C230.545 419.767 230.322 420.023 230.165 420.338C230.009 420.653 229.931 420.991 229.931 421.352V421.932C229.931 422.426 230.016 422.845 230.187 423.189C230.36 423.53 230.6 423.79 230.907 423.969C231.214 424.145 231.57 424.233 231.976 424.233C232.241 424.233 232.479 424.196 232.692 424.122C232.908 424.045 233.094 423.932 233.25 423.781C233.407 423.628 233.527 423.437 233.613 423.21L234.584 423.483C234.482 423.812 234.31 424.102 234.069 424.352C233.827 424.599 233.529 424.793 233.174 424.932C232.819 425.068 232.42 425.136 231.976 425.136ZM241.093 419.92L240.189 420.176C240.133 420.026 240.049 419.879 239.938 419.737C239.83 419.592 239.682 419.473 239.495 419.379C239.307 419.286 239.067 419.239 238.775 419.239C238.374 419.239 238.04 419.331 237.773 419.516C237.509 419.697 237.377 419.929 237.377 420.21C237.377 420.46 237.468 420.658 237.65 420.803C237.831 420.947 238.115 421.068 238.502 421.165L239.473 421.403C240.059 421.545 240.495 421.763 240.782 422.055C241.069 422.345 241.212 422.719 241.212 423.176C241.212 423.551 241.104 423.886 240.888 424.182C240.675 424.477 240.377 424.71 239.993 424.881C239.61 425.051 239.164 425.136 238.655 425.136C237.988 425.136 237.435 424.991 236.998 424.702C236.56 424.412 236.283 423.989 236.167 423.432L237.121 423.193C237.212 423.545 237.384 423.81 237.637 423.986C237.892 424.162 238.226 424.25 238.638 424.25C239.107 424.25 239.479 424.151 239.755 423.952C240.033 423.75 240.172 423.509 240.172 423.227C240.172 423 240.093 422.81 239.934 422.656C239.775 422.5 239.53 422.384 239.201 422.307L238.11 422.051C237.51 421.909 237.07 421.689 236.789 421.391C236.51 421.089 236.371 420.713 236.371 420.261C236.371 419.892 236.475 419.565 236.682 419.281C236.892 418.997 237.178 418.774 237.539 418.612C237.902 418.45 238.314 418.369 238.775 418.369C239.422 418.369 239.931 418.511 240.3 418.795C240.672 419.08 240.937 419.455 241.093 419.92ZM245.71 425.136C245.08 425.136 244.536 424.997 244.078 424.719C243.624 424.438 243.273 424.045 243.026 423.543C242.781 423.037 242.659 422.449 242.659 421.778C242.659 421.108 242.781 420.517 243.026 420.006C243.273 419.491 243.616 419.091 244.057 418.804C244.5 418.514 245.017 418.369 245.608 418.369C245.949 418.369 246.286 418.426 246.618 418.54C246.95 418.653 247.253 418.838 247.526 419.094C247.798 419.347 248.016 419.682 248.178 420.099C248.34 420.517 248.42 421.031 248.42 421.642V422.068H243.375V421.199H247.398C247.398 420.83 247.324 420.5 247.176 420.21C247.031 419.92 246.824 419.692 246.554 419.524C246.287 419.357 245.972 419.273 245.608 419.273C245.207 419.273 244.861 419.372 244.568 419.571C244.278 419.767 244.055 420.023 243.899 420.338C243.743 420.653 243.665 420.991 243.665 421.352V421.932C243.665 422.426 243.75 422.845 243.92 423.189C244.094 423.53 244.334 423.79 244.641 423.969C244.947 424.145 245.304 424.233 245.71 424.233C245.974 424.233 246.213 424.196 246.426 424.122C246.642 424.045 246.828 423.932 246.984 423.781C247.141 423.628 247.261 423.437 247.347 423.21L248.318 423.483C248.216 423.812 248.044 424.102 247.803 424.352C247.561 424.599 247.263 424.793 246.908 424.932C246.553 425.068 246.153 425.136 245.71 425.136ZM250.19 425V418.455H251.162V419.443H251.23C251.349 419.119 251.565 418.857 251.878 418.655C252.19 418.453 252.543 418.352 252.935 418.352C253.008 418.352 253.101 418.354 253.212 418.357C253.322 418.359 253.406 418.364 253.463 418.369V419.392C253.429 419.384 253.351 419.371 253.229 419.354C253.109 419.334 252.983 419.324 252.849 419.324C252.531 419.324 252.247 419.391 251.997 419.524C251.75 419.655 251.554 419.837 251.409 420.07C251.267 420.3 251.196 420.562 251.196 420.858V425H250.19ZM260.447 418.455L258.026 425H257.003L254.583 418.455H255.674L257.481 423.67H257.549L259.356 418.455H260.447ZM264.524 425.136C263.893 425.136 263.349 424.997 262.892 424.719C262.437 424.438 262.086 424.045 261.839 423.543C261.595 423.037 261.473 422.449 261.473 421.778C261.473 421.108 261.595 420.517 261.839 420.006C262.086 419.491 262.43 419.091 262.871 418.804C263.314 418.514 263.831 418.369 264.422 418.369C264.763 418.369 265.099 418.426 265.432 418.54C265.764 418.653 266.067 418.838 266.339 419.094C266.612 419.347 266.829 419.682 266.991 420.099C267.153 420.517 267.234 421.031 267.234 421.642V422.068H262.189V421.199H266.211C266.211 420.83 266.138 420.5 265.99 420.21C265.845 419.92 265.638 419.692 265.368 419.524C265.101 419.357 264.785 419.273 264.422 419.273C264.021 419.273 263.675 419.372 263.382 419.571C263.092 419.767 262.869 420.023 262.713 420.338C262.557 420.653 262.479 420.991 262.479 421.352V421.932C262.479 422.426 262.564 422.845 262.734 423.189C262.908 423.53 263.148 423.79 263.454 423.969C263.761 424.145 264.118 424.233 264.524 424.233C264.788 424.233 265.027 424.196 265.24 424.122C265.456 424.045 265.642 423.932 265.798 423.781C265.954 423.628 266.075 423.437 266.16 423.21L267.132 423.483C267.03 423.812 266.858 424.102 266.616 424.352C266.375 424.599 266.077 424.793 265.721 424.932C265.366 425.068 264.967 425.136 264.524 425.136ZM271.476 425.136C270.93 425.136 270.449 424.999 270.031 424.723C269.613 424.445 269.287 424.053 269.051 423.547C268.815 423.038 268.697 422.438 268.697 421.744C268.697 421.057 268.815 420.46 269.051 419.955C269.287 419.449 269.615 419.058 270.035 418.783C270.456 418.507 270.942 418.369 271.493 418.369C271.919 418.369 272.255 418.44 272.503 418.582C272.753 418.722 272.943 418.881 273.074 419.06C273.207 419.236 273.311 419.381 273.385 419.494H273.47V416.273H274.476V425H273.504V423.994H273.385C273.311 424.114 273.206 424.264 273.069 424.446C272.933 424.625 272.738 424.786 272.486 424.928C272.233 425.067 271.896 425.136 271.476 425.136ZM271.612 424.233C272.015 424.233 272.356 424.128 272.635 423.918C272.913 423.705 273.125 423.411 273.27 423.036C273.415 422.658 273.487 422.222 273.487 421.727C273.487 421.239 273.416 420.811 273.274 420.445C273.132 420.075 272.922 419.788 272.643 419.584C272.365 419.376 272.021 419.273 271.612 419.273C271.186 419.273 270.831 419.382 270.547 419.601C270.265 419.817 270.054 420.111 269.912 420.483C269.773 420.852 269.703 421.267 269.703 421.727C269.703 422.193 269.774 422.616 269.916 422.997C270.061 423.375 270.274 423.676 270.555 423.901C270.839 424.122 271.192 424.233 271.612 424.233ZM277.43 425.068C277.22 425.068 277.04 424.993 276.889 424.842C276.738 424.692 276.663 424.511 276.663 424.301C276.663 424.091 276.738 423.911 276.889 423.76C277.04 423.609 277.22 423.534 277.43 423.534C277.64 423.534 277.821 423.609 277.971 423.76C278.122 423.911 278.197 424.091 278.197 424.301C278.197 424.44 278.162 424.568 278.091 424.685C278.022 424.801 277.93 424.895 277.814 424.966C277.7 425.034 277.572 425.068 277.43 425.068Z" fill="#F9F9F9"/>
</svg>
