<svg width="44" height="44" viewBox="0 0 44 44" fill="none" xmlns="http://www.w3.org/2000/svg">
<path fill-rule="evenodd" clip-rule="evenodd" d="M16.8121 15.1533C16.8121 16.1908 16.0221 17.0305 14.7866 17.0305C13.5993 17.0305 12.8092 16.1908 12.8337 15.1533C12.8092 14.0652 13.5992 13.25 14.8103 13.25C16.0221 13.25 16.7884 14.0652 16.8121 15.1533ZM12.933 30.5993V18.5136H16.6891V30.5986H12.933V30.5993Z" fill="#F9F9F9"/>
<path fill-rule="evenodd" clip-rule="evenodd" d="M19.6998 22.3705C19.6998 20.8631 19.6501 19.5779 19.6005 18.5151H22.863L23.0364 20.1708H23.1105C23.6049 19.4045 24.8404 18.2439 26.8422 18.2439C29.3131 18.2439 31.1667 19.8751 31.1667 23.4326V30.6009H27.4106V23.9032C27.4106 22.3453 26.8674 21.2833 25.5081 21.2833C24.4698 21.2833 23.8524 22 23.6056 22.6914C23.5063 22.939 23.4574 23.2843 23.4574 23.6312V30.6009H19.7013V22.3705H19.6998Z" fill="#F9F9F9"/>
</svg>
